<svg xmlns="http://www.w3.org/2000/svg" width="27" height="27" viewBox="0 0 27 27">
    <g fill="none" fill-rule="evenodd">
        <g>
            <g transform="translate(-677 -1718) translate(677 1718)">
                <circle cx="13.5" cy="13.5" r="13.5" fill="#016DF0"/>
                <path fill="#FFF" fill-rule="nonzero" d="M18.705 12.054h-.292v-1.367c0-2.529-2.006-4.641-4.515-4.686h-.274c-2.508.045-4.514 2.157-4.514 4.686v1.367h-.293c-.45 0-.817.465-.817 1.039v6.857c0 .573.367 1.042.817 1.042h9.888c.45 0 .818-.47.818-1.042v-6.857c0-.574-.367-1.039-.818-1.039zm-4.017 4.46v2.072c0 .237-.199.438-.436.438h-.98c-.238 0-.437-.2-.437-.438v-2.072c-.23-.226-.364-.54-.364-.887 0-.657.508-1.221 1.153-1.248.069-.002.206-.002.274 0 .646.027 1.154.591 1.154 1.248 0 .347-.134.66-.364.887zm1.8-4.46h-5.454v-1.367c0-1.506 1.225-2.752 2.727-2.752 1.503 0 2.727 1.246 2.727 2.752v1.367z"/>
            </g>
        </g>
    </g>
</svg>
