<?xml version="1.0" encoding="UTF-8"?>
<svg width="146px" height="146px" viewBox="0 0 146 146" version="1.1" xmlns="http://www.w3.org/2000/svg" xmlns:xlink="http://www.w3.org/1999/xlink">
    <title>Image Container</title>
    <g id="No-Ads" stroke="none" stroke-width="1" fill="none" fill-rule="evenodd">
        <g id="Home_2b" transform="translate(-653.000000, -1910.000000)">
            <g id="Image-Container" transform="translate(653.000000, 1910.000000)">
                <g id="Picture" transform="translate(5.000000, 0.000000)">
                    <rect id="Woman-background" fill="#E4F0FF" x="0" y="0" width="136" height="146"></rect>
                    <g id="Woman-image" transform="translate(25.000000, 6.000000)" fill-rule="nonzero">
                        <g id="general_3_">
                            <g id="picture_2_" transform="translate(3.106095, 0.000000)">
                                <path d="M48.6880361,6.60797478 C48.5133183,5.94326726 47.8532731,5.57181305 47.2126411,5.74776504 L29.8767494,10.7330715 L19.5295711,13.6851549 L1.02889391,19.002815 C0.388261851,19.178767 0.0194130926,19.8630248 0.194130926,20.5277323 L6.75575621,44.8286573 C6.75575621,44.8286573 7.20225734,42.2089277 8.3282167,42.2480281 C9.45417607,42.2871285 9.55124153,45.0828102 9.55124153,45.0828102 L9.47358916,45.2001115 C11.5507901,42.3457792 14.1715576,39.0808923 15.0839729,39.3936958 C15.4139955,39.4914469 15.5693002,39.7260496 15.5693002,39.7260496 C15.6081264,39.7847002 15.6275395,39.8433509 15.6469526,39.9020015 L15.6469526,39.9020015 C16.4817156,36.5589137 18.0735892,32.5706686 21.3349887,31.3585549 C22.4997743,30.92845 22.7327314,31.4758562 23.8198646,30.8697993 C26.4600451,29.3839825 26.3823928,24.828781 31.4103837,21.3488416 C37.6419865,17.0282427 41.8740406,22.6391562 41.8740406,22.6391562 C41.8740406,22.6391562 43.0582393,22.2481518 44.5530474,22.2481518 C46.2419865,22.2481518 48.2997743,22.7564575 49.4063205,24.9460823 C50.8040632,27.7222137 52.7259594,27.9372661 54.531377,28.191419 L48.6880361,6.60797478 Z M18.2094808,53.8608595 C17.9765237,54.0368115 17.7435666,54.2127635 17.5106095,54.3887155 C17.7435666,54.2127635 17.9765237,54.0172613 18.2094808,53.8608595 Z M16.3458239,68.6994774 L16.4428894,68.5626259 L16.3458239,68.5626259 L16.3458239,68.6994774 Z M15.724605,57.43855 C15.724605,57.4189998 15.7440181,57.3798993 15.7440181,57.3603491 C15.7440181,57.3407989 15.7440181,57.3407989 15.7634312,57.3212487 C15.7634312,57.3407989 15.7634312,57.3407989 15.7440181,57.3603491 C15.7440181,57.3798993 15.724605,57.3994496 15.724605,57.43855 Z M15.5498871,40.7817615 C15.4139955,41.2118664 15.1616253,41.6419712 14.9869074,41.9352246 C15.2004515,41.6419712 15.4334086,41.2900673 15.5498871,40.7817615 Z M10.5801354,48.4649985 C12.4826185,45.864819 13.1426637,45.0241595 14.0162528,43.655644 C14.5986456,42.7367836 14.5792325,42.678133 14.7151242,42.4239801 C14.268623,43.1473383 13.7250564,43.9879978 13.1620767,44.8091071 C12.1914221,46.216723 11.2013544,47.6047887 10.5801354,48.4649985 Z M16.3458239,68.5626259 L16.3458239,68.6994774 L16.4428894,68.5626259 L16.3458239,68.5626259 Z" id="Shape" fill="#52A0FF"></path>
                                <path d="M66.703386,75.6789064 C66.5674944,75.8353082 66.3733634,75.9526095 66.1792325,76.0112602 L65.8492099,76.1090113 L64.6455982,76.441365 L63.5390519,76.7541686 L63.4808126,76.7737188 L61.3647856,77.3797757 L61.0153499,77.4775268 L59.9088036,77.7903303 L57.3851016,78.5136885 L56.2785553,78.826492 L54.2595937,79.4129987 L53.7548533,79.5498502 L52.9783296,79.7649027 L52.648307,79.8626538 L50.1051919,80.5860119 L49.8528217,80.6642128 C49.2121896,78.6114396 47.9115124,74.7795962 46.8826185,75.0923998 C45.5042889,75.4834042 46.8049661,80.1363569 46.8049661,80.1363569 L47.8920993,81.2311692 C47.4261851,80.7815142 46.9602709,80.3123088 46.4943567,79.8626538 C46.3390519,79.706252 46.1837472,79.5498502 46.0284424,79.3934484 C45.096614,78.4745881 44.1453725,77.5557277 43.213544,76.6368673 C43.1553047,76.617317 43.1164786,76.5782166 43.0582393,76.5391161 C43.0194131,76.5195659 42.9805869,76.5000157 42.9417607,76.4804655 C42.7088036,76.3436139 42.4176072,76.1872122 42.0875847,76.0112602 C42.0875847,76.0112602 42.0875847,76.0112602 42.0875847,76.0112602 C42.0099323,75.9721597 41.951693,75.9330593 41.8546275,75.8939588 C41.8352144,75.8744086 41.7963883,75.8548584 41.7769752,75.8548584 C41.7575621,75.8548584 41.7575621,75.8353082 41.738149,75.8353082 C41.6799097,75.7962077 41.6022573,75.7571073 41.524605,75.7180069 C41.4663657,75.6984566 41.4081264,75.6593562 41.3693002,75.639806 C41.2334086,75.5616051 41.0975169,75.5029544 40.9422122,75.4247535 C40.8839729,75.3856531 40.8257336,75.3661029 40.7674944,75.3270024 C40.6510158,75.2683518 40.5345372,75.2097011 40.3986456,75.1510504 C40.3598194,75.1315002 40.3015801,75.11195 40.262754,75.0728496 C40.0297968,74.9555482 39.7968397,74.8382469 39.5444695,74.7209456 C39.4862302,74.7013954 39.4474041,74.6818451 39.3891648,74.6427447 C38.9814898,74.4472425 38.5544018,74.2517403 38.1273138,74.0562381 C38.0496614,74.0171376 37.972009,73.9780372 37.8749436,73.9389367 C37.7972912,73.8998363 37.7390519,73.8802861 37.6808126,73.8411856 C37.3507901,73.7043341 37.0207675,73.5674825 36.710158,73.4501812 C36.6325056,73.4110808 36.5548533,73.3915305 36.4772009,73.3719803 C36.3995485,73.3524301 36.3218962,73.3133296 36.2442438,73.2937794 C36.069526,73.2351288 35.9142212,73.1764781 35.7589165,73.1178274 C35.7006772,73.0982772 35.661851,73.078727 35.6036117,73.0591768 C35.5647856,73.0396265 35.5259594,73.0396265 35.4871332,73.0200763 C35.3706546,72.9809759 35.234763,72.9418754 35.1182844,72.9223252 C35.0794582,72.902775 35.0406321,72.902775 35.0018059,72.8832248 C34.9629797,72.8832248 34.9241535,72.8636746 34.9047404,72.8636746 C34.8659142,72.8636746 34.827088,72.8441243 34.8076749,72.8441243 C34.7688488,72.8441243 34.7300226,72.8245741 34.6911964,72.8245741 C34.6329571,72.8050239 34.5553047,72.8050239 34.4970655,72.7854737 C34.4582393,72.7854737 34.4194131,72.7659234 34.3805869,72.7659234 C34.3805869,72.7659234 34.3611738,72.7659234 34.3611738,72.7659234 C34.2446953,72.7463732 34.1476298,72.7463732 34.0311512,72.726823 C33.9146727,72.726823 33.7981941,72.726823 33.6817156,72.726823 C33.6623025,72.726823 33.6428894,72.726823 33.6040632,72.726823 C33.5846501,72.726823 33.5458239,72.726823 33.5264108,72.7463732 C33.5069977,72.7463732 33.4875847,72.7463732 33.4681716,72.7659234 C33.4487585,72.7659234 33.4293454,72.7659234 33.4099323,72.7854737 C33.3905192,72.7854737 33.3711061,72.8050239 33.351693,72.8050239 C33.3322799,72.8050239 33.3322799,72.8050239 33.3128668,72.8245741 C33.2934537,72.8245741 33.2934537,72.8441243 33.2740406,72.8441243 C33.2546275,72.8441243 33.2352144,72.8636746 33.2158014,72.8832248 C33.1963883,72.8832248 33.1963883,72.902775 33.1769752,72.902775 C33.1575621,72.902775 33.1575621,72.9223252 33.138149,72.9223252 C33.1187359,72.9223252 33.1187359,72.9418754 33.1187359,72.9418754 C33.0993228,72.9614257 33.0799097,72.9809759 33.0604966,73.0005261 C32.8469526,73.2742292 32.9440181,73.7238843 32.9634312,73.8020852 C32.9634312,73.8020852 32.9634312,73.8020852 32.9634312,73.8216354 C32.9634312,73.8411856 32.9828442,73.8802861 32.9828442,73.8998363 C32.9828442,73.9193865 33.0022573,73.9389367 33.0022573,73.9584869 C33.0022573,73.9584869 33.0022573,73.9780372 33.0216704,73.9975874 C33.0216704,74.0171376 33.0410835,74.0366878 33.0410835,74.0562381 C33.0410835,74.0757883 33.0604966,74.0953385 33.0799097,74.1148887 C33.0993228,74.1344389 33.1187359,74.1539892 33.138149,74.1930896 C33.138149,74.2126398 33.1575621,74.2126398 33.1575621,74.23219 C33.1575621,74.2517403 33.1769752,74.2517403 33.1769752,74.2712905 C33.1963883,74.2908407 33.2158014,74.3103909 33.2352144,74.3494914 C33.2546275,74.3690416 33.2740406,74.3885918 33.2934537,74.408142 C33.2934537,74.408142 33.2934537,74.408142 33.2934537,74.408142 C33.3128668,74.4276923 33.3322799,74.4472425 33.351693,74.4667927 C33.351693,74.4667927 33.3711061,74.4863429 33.3711061,74.4863429 C33.3905192,74.5058931 33.4293454,74.5254434 33.4487585,74.5449936 C33.4875847,74.5645438 33.5264108,74.6036442 33.565237,74.6231945 C33.6234763,74.6622949 33.6623025,74.7013954 33.7205418,74.7209456 C33.778781,74.760046 33.8176072,74.7795962 33.8758465,74.8186967 C33.8758465,74.8186967 33.8758465,74.8186967 33.8952596,74.8186967 C33.9534989,74.8577971 33.9923251,74.8773473 34.0505643,74.8968976 C34.1088036,74.9164478 34.1476298,74.9555482 34.2058691,74.9750984 C34.2252822,74.9946487 34.2641084,74.9946487 34.3029345,75.0141989 C34.3417607,75.0337491 34.4,75.0532993 34.4388262,75.0728496 C34.5164786,75.11195 34.5747178,75.1315002 34.6329571,75.1510504 C34.6523702,75.1510504 34.6717833,75.1706007 34.6911964,75.1706007 C34.7106095,75.1706007 34.7494357,75.1901509 34.7688488,75.1901509 C34.7882619,75.1901509 34.7882619,75.2097011 34.8076749,75.2097011 C34.8076749,75.2097011 34.827088,75.2097011 34.827088,75.2097011 C34.827088,75.2097011 34.8465011,75.2097011 34.8465011,75.2097011 C34.8465011,75.2097011 34.8465011,75.2097011 34.8465011,75.2097011 C34.8465011,75.2097011 34.8465011,75.2097011 34.8465011,75.2097011 C35.0600451,75.287902 35.2930023,75.3661029 35.5453725,75.4834042 C35.6424379,75.5225046 35.7589165,75.5811553 35.8559819,75.6202558 C36.6325056,75.9721597 37.6225734,76.5195659 38.8844244,77.3406752 C38.593228,77.2429241 38.3214447,77.145173 38.0496614,77.0474219 C37.8749436,76.9887712 37.6808126,76.9301206 37.5060948,76.8910201 C37.4478555,76.8714699 37.4090293,76.8714699 37.3507901,76.8519197 C37.137246,76.793269 36.923702,76.7346184 36.710158,76.6759677 C36.6130926,76.6564175 36.5354402,76.6368673 36.4383747,76.617317 C36.2248307,76.5586664 36.0112867,76.5195659 35.8171558,76.4609153 C35.7589165,76.441365 35.6812641,76.441365 35.6230248,76.4218148 C35.5841986,76.4218148 35.5453725,76.4022646 35.5065463,76.4022646 C35.3706546,76.3827144 35.234763,76.3436139 35.0794582,76.3045135 C34.8659142,76.2654131 34.6523702,76.2067624 34.4,76.1676619 C34.0505643,76.1090113 33.6817156,76.0503606 33.3128668,75.99171 C33.2158014,75.9721597 33.1187359,75.9721597 33.0022573,75.9526095 C32.8663657,75.9330593 32.730474,75.9135091 32.5751693,75.9135091 C32.4975169,75.9135091 32.4004515,75.8939588 32.3227991,75.8939588 C32.2451467,75.8939588 32.1869074,75.8939588 32.1092551,75.8939588 C32.0316027,75.8939588 31.9539503,75.8939588 31.876298,75.8939588 C31.8568849,75.8939588 31.8180587,75.8939588 31.7986456,75.8939588 C31.7598194,75.8939588 31.7404063,75.8939588 31.7015801,75.8939588 C31.682167,75.8939588 31.6433409,75.8939588 31.6045147,75.8939588 C31.5462754,75.8939588 31.468623,75.8939588 31.4103837,75.9135091 C31.3521445,75.9135091 31.3133183,75.9135091 31.255079,75.9330593 C31.2162528,75.9330593 31.1774266,75.9330593 31.1580135,75.9526095 C31.0997743,75.9526095 31.0221219,75.9721597 30.9638826,75.99171 C30.9250564,75.99171 30.8862302,76.0112602 30.8474041,76.0112602 C30.8085779,76.0112602 30.7697517,76.0308104 30.7309255,76.0503606 C30.6920993,76.0503606 30.6726862,76.0699108 30.6532731,76.0894611 C30.63386,76.0894611 30.63386,76.1090113 30.614447,76.1090113 C30.5950339,76.1090113 30.5756208,76.1285615 30.5562077,76.1285615 C30.5367946,76.1285615 30.5367946,76.1481117 30.5173815,76.1481117 C30.4785553,76.1676619 30.4397291,76.1872122 30.4009029,76.2263126 L30.3814898,76.2458628 C30.3620767,76.2458628 30.3620767,76.2654131 30.3426637,76.2654131 C30.3232506,76.2654131 30.3232506,76.2849633 30.3038375,76.3045135 C30.3038375,76.3045135 30.3038375,76.3045135 30.3038375,76.3045135 C30.2844244,76.3045135 30.2844244,76.3240637 30.2650113,76.3436139 C30.2650113,76.3436139 30.2455982,76.3436139 30.2455982,76.3631642 C30.2261851,76.3827144 30.206772,76.4022646 30.1873589,76.441365 C30.1679458,76.4609153 30.1485327,76.5000157 30.1485327,76.5195659 C29.9544018,76.9105704 30.1873589,77.3993259 30.2261851,77.4579765 C30.2455982,77.4775268 30.2455982,77.497077 30.2650113,77.5166272 C30.2844244,77.5361774 30.2844244,77.5557277 30.3038375,77.5752779 C30.3232506,77.5948281 30.3426637,77.6339285 30.3620767,77.6534788 C30.3814898,77.6925792 30.4009029,77.7121294 30.4397291,77.7512299 C30.4397291,77.7512299 30.4397291,77.7512299 30.4397291,77.7512299 C30.4591422,77.7707801 30.4591422,77.7707801 30.4785553,77.7903303 C30.5173815,77.8294308 30.5562077,77.8685312 30.5756208,77.8880814 C30.5950339,77.9076316 30.614447,77.9271819 30.63386,77.9467321 C30.6726862,77.9858325 30.7115124,78.0053827 30.7503386,78.024933 C30.7891648,78.0444832 30.827991,78.0835836 30.8668172,78.1031338 C30.8668172,78.1031338 30.8668172,78.1031338 30.8862302,78.1031338 C30.9056433,78.1031338 30.9056433,78.1226841 30.9250564,78.1226841 C30.9250564,78.1226841 30.9250564,78.1226841 30.9444695,78.1226841 C30.9832957,78.1422343 31.0221219,78.1617845 31.0609481,78.1813347 C31.0997743,78.200885 31.1386005,78.2204352 31.1774266,78.2399854 C31.1968397,78.2399854 31.2162528,78.2595356 31.2356659,78.2595356 C31.255079,78.2790858 31.2939052,78.2790858 31.3133183,78.2986361 C31.3327314,78.3181863 31.3715576,78.3181863 31.3909707,78.3377365 C31.468623,78.3572867 31.5656885,78.3963872 31.6433409,78.4159374 C31.682167,78.4159374 31.7209932,78.4354876 31.7404063,78.4354876 C31.7986456,78.4550378 31.8374718,78.4550378 31.876298,78.4745881 C31.9345372,78.4941383 31.9733634,78.4941383 32.0316027,78.5136885 C32.0704289,78.5136885 32.1092551,78.5332387 32.1480813,78.5332387 C32.1480813,78.5332387 32.1674944,78.5332387 32.1674944,78.5332387 C32.2257336,78.5332387 32.2645598,78.5527889 32.3227991,78.5527889 C32.3616253,78.5527889 32.3810384,78.5527889 32.4198646,78.5723392 C32.5557562,78.5918894 32.6916479,78.5918894 32.7887133,78.6114396 C32.8275395,78.6114396 32.8663657,78.6114396 32.8857788,78.6114396 C32.924605,78.6114396 32.9828442,78.6114396 33.0022573,78.6114396 C33.3905192,78.6309898 33.8370203,78.7091907 34.3611738,78.8069418 C34.4194131,78.826492 34.4970655,78.826492 34.5553047,78.8460423 C34.613544,78.8655925 34.6911964,78.8851427 34.7494357,78.8851427 C34.8076749,78.9046929 34.8659142,78.9046929 34.9241535,78.9242431 C35.0794582,78.9633436 35.234763,79.002444 35.3900677,79.0415445 C35.4288939,79.0415445 35.448307,79.0610947 35.4871332,79.0610947 C35.5065463,79.0610947 35.5453725,79.0806449 35.5647856,79.0806449 C35.7977427,79.1392956 36.0306998,79.2174965 36.28307,79.3152476 C36.3218962,79.3347978 36.3607223,79.354348 36.4189616,79.354348 C36.5160271,79.3934484 36.6130926,79.4325489 36.710158,79.4520991 C36.7489842,79.4716493 36.7878104,79.4716493 36.8266366,79.4911996 C37.0401806,79.5694004 37.2343115,79.6476013 37.4672686,79.7453524 L37.4672686,79.7453524 C37.4672686,79.7453524 37.4672686,79.7453524 37.4672686,79.7453524 C37.6419865,79.8040031 37.7972912,79.882204 37.972009,79.9604049 C38.0302483,79.9799551 38.0884876,79.9995053 38.1273138,80.0386058 C38.1273138,80.0386058 38.1273138,80.0386058 38.1467269,80.0386058 C38.2632054,80.0972564 38.379684,80.1363569 38.4961625,80.1950075 C38.6514673,80.2536582 38.806772,80.3318591 38.9620767,80.41006 C39.020316,80.4491604 39.0979684,80.4687106 39.1562077,80.5078111 C39.3309255,80.5860119 39.5056433,80.6642128 39.6803612,80.7619639 C39.7774266,80.8010644 39.855079,80.8401648 39.9521445,80.8988155 C40.0492099,80.9379159 40.1268623,80.9965666 40.2239278,81.035667 C40.262754,81.0552173 40.282167,81.0747675 40.3209932,81.0943177 C40.5733634,81.2311692 40.8451467,81.3680208 41.11693,81.5048723 C41.0198646,81.4657719 40.9227991,81.4462217 40.8063205,81.4266715 C40.689842,81.387571 40.5733634,81.3680208 40.4568849,81.3289204 C40.3792325,81.3093701 40.3015801,81.2898199 40.2239278,81.2702697 C40.1462754,81.2507195 40.068623,81.2311692 39.9909707,81.211619 C39.9133183,81.1920688 39.8162528,81.1725186 39.7386005,81.1334181 C39.6221219,81.0943177 39.5250564,81.0747675 39.4085779,81.035667 C39.3503386,81.0161168 39.2920993,80.9965666 39.23386,80.9770164 C38.9814898,80.8988155 38.7291196,80.8401648 38.4961625,80.7815142 C38.379684,80.7424137 38.2437923,80.7228635 38.1273138,80.6837631 C38.0690745,80.6642128 38.0108352,80.6446626 37.9525959,80.6446626 C37.1760722,80.4491604 36.4772009,80.2732084 35.8365688,80.1363569 C35.7006772,80.0972564 35.5841986,80.0777062 35.448307,80.058156 C35.0406321,79.9799551 34.6717833,79.9017542 34.3417607,79.8431035 C34.2252822,79.8235533 34.1088036,79.8040031 34.0117381,79.7844529 C33.972912,79.7844529 33.9340858,79.7649027 33.9146727,79.7649027 C33.8370203,79.7453524 33.7399549,79.7453524 33.6623025,79.7258022 C33.5264108,79.706252 33.3905192,79.6867018 33.2740406,79.6671515 C33.1769752,79.6476013 33.0799097,79.6476013 32.9828442,79.6280511 C32.924605,79.6280511 32.8857788,79.6085009 32.8469526,79.6085009 C32.7498871,79.5889507 32.6722348,79.5889507 32.5751693,79.5889507 C32.5363431,79.5889507 32.4975169,79.5889507 32.4392777,79.5694004 C32.4004515,79.5694004 32.3616253,79.5694004 32.3227991,79.5498502 C32.1480813,79.5303 31.9927765,79.5303 31.8374718,79.5303 C31.8374718,79.5303 31.8180587,79.5303 31.8180587,79.5303 C31.7792325,79.5303 31.7598194,79.5303 31.7209932,79.5303 C31.662754,79.5303 31.5851016,79.5303 31.5268623,79.5303 C31.5074492,79.5303 31.468623,79.5303 31.4492099,79.5303 C31.4103837,79.5303 31.3715576,79.5303 31.3327314,79.5303 C31.255079,79.5303 31.1774266,79.5303 31.1191874,79.5498502 C31.0803612,79.5498502 31.0609481,79.5498502 31.0221219,79.5694004 C31.0027088,79.5694004 30.9832957,79.5694004 30.9444695,79.5694004 C30.9056433,79.5694004 30.8862302,79.5889507 30.8474041,79.5889507 C30.827991,79.5889507 30.8085779,79.5889507 30.7891648,79.6085009 C30.7503386,79.6085009 30.7309255,79.6280511 30.6920993,79.6280511 C30.6920993,79.6280511 30.6726862,79.6280511 30.6726862,79.6280511 C30.6532731,79.6280511 30.6532731,79.6280511 30.63386,79.6476013 C30.614447,79.6476013 30.5950339,79.6671515 30.5756208,79.6671515 C30.5562077,79.6671515 30.5367946,79.6867018 30.5173815,79.6867018 C30.4979684,79.6867018 30.4785553,79.706252 30.4591422,79.706252 C30.4397291,79.706252 30.420316,79.7258022 30.4009029,79.7453524 C30.3814898,79.7649027 30.3620767,79.7649027 30.3426637,79.7844529 C30.3426637,79.7844529 30.3232506,79.8040031 30.3232506,79.8040031 C30.3232506,79.8040031 30.3038375,79.8235533 30.3038375,79.8235533 C30.3038375,79.8235533 30.2844244,79.8431035 30.2844244,79.8431035 C30.2844244,79.8431035 30.2650113,79.8626538 30.2650113,79.8626538 C30.2650113,79.8626538 30.2455982,79.882204 30.2455982,79.882204 C30.2261851,79.9213044 30.206772,79.9408546 30.1873589,79.9799551 C30.1485327,80.058156 29.9544018,80.5273613 30.1291196,80.9770164 C30.1485327,80.9965666 30.1485327,81.035667 30.1679458,81.0552173 C30.1679458,81.0552173 30.1679458,81.0747675 30.1679458,81.0747675 C30.1873589,81.0943177 30.1873589,81.1138679 30.206772,81.1334181 C30.206772,81.1334181 30.206772,81.1334181 30.206772,81.1334181 C30.206772,81.1529684 30.2261851,81.1529684 30.2261851,81.1725186 C30.2650113,81.211619 30.2844244,81.2507195 30.3232506,81.2898199 C30.3232506,81.2898199 30.3426637,81.3093701 30.3620767,81.3093701 C30.3814898,81.3289204 30.4009029,81.3484706 30.4397291,81.3680208 C30.4591422,81.387571 30.4785553,81.387571 30.4979684,81.4071212 C30.4979684,81.4071212 30.4979684,81.4071212 30.4979684,81.4071212 C30.5173815,81.4266715 30.5367946,81.4266715 30.5367946,81.4462217 C30.5950339,81.4853221 30.63386,81.5048723 30.6920993,81.5439728 C30.7309255,81.563523 30.7697517,81.5830732 30.8085779,81.6026234 C30.8474041,81.6221737 30.9056433,81.6417239 30.9444695,81.6612741 C30.9832957,81.6808243 31.041535,81.7003746 31.0803612,81.7003746 C31.1191874,81.7199248 31.1580135,81.7199248 31.1968397,81.739475 C31.3715576,81.7785754 31.5462754,81.8176759 31.7015801,81.8567763 C31.7015801,81.8567763 31.7209932,81.8567763 31.7404063,81.8567763 C31.7404063,81.8567763 31.7598194,81.8567763 31.7598194,81.8567763 C31.7598194,81.8567763 31.7598194,81.8567763 31.7792325,81.8567763 C31.7792325,81.8567763 31.7986456,81.8567763 31.7986456,81.8567763 C31.7986456,81.8567763 31.7986456,81.8567763 31.7986456,81.8567763 C31.8180587,81.8567763 31.8374718,81.8567763 31.876298,81.8763265 C31.9151242,81.8763265 31.9539503,81.8958768 31.9927765,81.8958768 C32.0316027,81.8958768 32.089842,81.915427 32.1286682,81.915427 C32.1674944,81.915427 32.2257336,81.9349772 32.2839729,81.9545274 C32.2839729,81.9545274 32.2839729,81.9545274 32.2839729,81.9545274 C32.2839729,81.9545274 32.303386,81.9545274 32.303386,81.9545274 C32.3227991,81.9545274 32.3616253,81.9740777 32.3810384,81.9740777 C32.4198646,81.9740777 32.4392777,81.9936279 32.4781038,81.9936279 C32.4975169,81.9936279 32.5363431,82.0131781 32.5557562,82.0131781 C32.6139955,82.0327283 32.6722348,82.0327283 32.7498871,82.0522785 C32.7498871,82.0522785 32.7498871,82.0522785 32.7498871,82.0522785 C32.8469526,82.0718288 32.9634312,82.091379 33.0799097,82.1304794 C33.0799097,82.1304794 33.0993228,82.1304794 33.0993228,82.1304794 C33.1769752,82.1500296 33.2546275,82.1695799 33.3322799,82.1695799 C33.3322799,82.1695799 33.351693,82.1695799 33.351693,82.1695799 C33.4293454,82.1891301 33.5069977,82.2086803 33.5846501,82.2086803 C33.7981941,82.2477808 34.0311512,82.3064314 34.2835214,82.3650821 C34.5941309,82.4237327 34.9241535,82.5019336 35.2930023,82.5801345 C35.3318284,82.5801345 35.3706546,82.5996847 35.4094808,82.5996847 C35.5065463,82.619235 35.5841986,82.6387852 35.6812641,82.6583354 C35.7783296,82.6778856 35.875395,82.6974358 35.9724605,82.7169861 C36.2636569,82.7756367 36.5742664,82.8538376 36.9042889,82.9320385 C37.2343115,83.0102394 37.5643341,83.0884403 37.8943567,83.1666411 C37.9137698,83.1666411 37.9331828,83.1666411 37.9525959,83.1861914 C38.0108352,83.2057416 38.0496614,83.2057416 38.1079007,83.2252918 C38.16614,83.244842 38.2049661,83.244842 38.2632054,83.2643923 C38.3990971,83.3034927 38.5155756,83.3230429 38.6514673,83.3621434 C38.7291196,83.3816936 38.7873589,83.4012438 38.8455982,83.420794 C39.0591422,83.4794447 39.23386,83.5185451 39.3891648,83.5771958 C39.427991,83.5771958 39.4474041,83.596746 39.4862302,83.596746 C39.3115124,83.596746 39.1173815,83.596746 38.9426637,83.596746 C38.8261851,83.596746 38.7097065,83.596746 38.6126411,83.596746 C38.3990971,83.596746 38.185553,83.6162962 37.972009,83.6162962 C37.8943567,83.6162962 37.8361174,83.6162962 37.758465,83.6358465 C37.5837472,83.6358465 37.4284424,83.6553967 37.2731377,83.6749469 C37.1954853,83.6749469 37.117833,83.6944971 37.0207675,83.6944971 C36.8460497,83.7140473 36.6713318,83.7335976 36.496614,83.7531478 C36.2636569,83.772698 36.0501129,83.7922482 35.8559819,83.8313487 C35.7977427,83.8313487 35.7200903,83.8508989 35.661851,83.8508989 C35.3900677,83.8899993 35.1376975,83.9290998 34.9241535,83.9682002 C34.9241535,83.9682002 34.9047404,83.9682002 34.9047404,83.9682002 C34.8853273,83.9682002 34.8853273,83.9682002 34.8659142,83.9682002 C34.8465011,83.9682002 34.827088,83.9682002 34.8076749,83.9877504 C34.7882619,83.9877504 34.7688488,83.9877504 34.7300226,84.0073007 C34.7106095,84.0073007 34.6717833,84.0268509 34.6329571,84.0268509 C34.5941309,84.0268509 34.5358916,84.0464011 34.4970655,84.0659513 C34.4388262,84.0855015 34.3805869,84.0855015 34.3223476,84.1050518 C34.1282167,84.1441522 33.8952596,84.2028029 33.6428894,84.2810038 C33.565237,84.300554 33.4681716,84.3201042 33.3905192,84.3592046 C33.3905192,84.3592046 33.3905192,84.3592046 33.3905192,84.3592046 C33.351693,84.3787549 33.3128668,84.3787549 33.2740406,84.3983051 C33.1963883,84.4178553 33.0993228,84.4569557 33.0216704,84.476506 C32.9440181,84.4960562 32.8469526,84.5351566 32.7693002,84.5547069 C32.730474,84.5742571 32.6916479,84.5938073 32.6528217,84.5938073 C32.5945824,84.6133575 32.5363431,84.6329077 32.4781038,84.652458 C32.4198646,84.6720082 32.3616253,84.6915584 32.3227991,84.7111086 C32.2645598,84.7306588 32.2063205,84.7502091 32.1674944,84.7893095 C32.1286682,84.8088597 32.089842,84.82841 32.0704289,84.82841 C32.0316027,84.8479602 31.9927765,84.8675104 31.9539503,84.8870606 C31.8180587,84.9457113 31.7015801,85.0239122 31.6045147,85.1021131 C31.5656885,85.1216633 31.5268623,85.1607637 31.4880361,85.1803139 C31.4492099,85.1998642 31.4103837,85.2389646 31.3715576,85.278065 C31.3521445,85.2976153 31.3327314,85.3171655 31.3133183,85.3367157 C31.2939052,85.3562659 31.2744921,85.3758161 31.255079,85.3953664 C31.2356659,85.4149166 31.2356659,85.4344668 31.2162528,85.4344668 C31.1968397,85.454017 31.1774266,85.4735673 31.1774266,85.4931175 C31.1580135,85.5126677 31.1580135,85.5322179 31.1386005,85.5517681 C31.1191874,85.5713184 31.1191874,85.5908686 31.0997743,85.6104188 C31.0803612,85.6495192 31.0609481,85.6886197 31.041535,85.7277201 C31.0221219,85.7863708 30.9638826,85.9427726 30.9832957,86.0991743 L30.7503386,86.157825 L28.2072235,86.8811832 L28.0713318,86.9202836 L27.1006772,87.1939867 L26.7900677,87.2917378 L24.5963883,87.9173449 L23.489842,88.2301484 L20.96614,88.9535066 L19.8595937,89.2663102 L19.8595937,89.2663102 C19.2189616,89.4422622 18.5589165,89.070808 18.3841986,88.4061004 L18.0735892,87.2721876 L17.9765237,86.9007334 L17.3358916,84.5547069 L17.0641084,83.5380954 L16.9670429,83.1666411 L16.2293454,80.4296102 L16.0546275,79.7844529 L15.9575621,79.4129987 L15.0451467,76.0503606 L14.9480813,75.6789064 L14.0356659,72.2967181 L13.9580135,72.023015 C14.6374718,70.9477529 15.3945824,69.81384 16.2293454,68.6799272 L16.3264108,68.5430757 C17.2194131,67.3114117 18.2094808,66.0601976 19.2772009,64.8089834 C19.4713318,64.593931 19.6654628,64.3593283 19.8595937,64.1442759 C20.772009,63.1081142 21.7620767,62.0719524 22.7909707,61.0748911 C23.0239278,60.8598387 23.2374718,60.6447863 23.4704289,60.4297338 C24.6158014,59.3740219 25.8194131,58.3378602 27.1006772,57.3603491 C27.1200903,57.3603491 27.1200903,57.3407989 27.1395034,57.3407989 C28.2848758,56.4805892 29.4690745,55.6594799 30.7309255,54.877471 C31.4492099,54.4278159 32.2063205,53.9977111 32.9634312,53.6067066 C33.138149,53.5089555 33.2934537,53.4307546 33.4681716,53.3525538 C34.9047404,52.6096454 36.4189616,51.9449378 38.0108352,51.3584312 C38.0690745,49.4620597 38.1079007,47.5656883 38.16614,45.6497666 C37.4478555,45.2587622 36.3995485,44.5745044 35.448307,43.3819409 C33.778781,41.3096175 33.4681716,39.0417918 33.4099323,38.1033812 C35.7977427,36.5198133 37.0401806,34.8384942 37.7390519,33.6263805 C38.8455982,31.6518082 39.3309255,29.4817336 40.5927765,28.9538777 C40.9810384,29.5599345 41.4275395,30.2050918 41.9711061,30.8697993 C43.9512415,33.2940268 46.144921,34.7407431 47.6979684,35.5814027 C47.8532731,35.4641013 48.241535,35.2099485 48.7851016,35.2099485 C48.8045147,35.2099485 49.289842,35.2099485 49.7363431,35.4641013 C50.551693,35.9333066 50.978781,37.1258701 50.8234763,38.1620319 C50.6293454,39.5305473 49.4257336,40.6253597 48.2609481,40.6644602 C47.9503386,40.6840104 47.6979684,40.6058095 47.5038375,40.5471588 C47.3873589,41.9352246 47.2902935,43.3819409 47.2320542,44.8677577 C47.1544018,46.3535746 47.1349887,47.8002909 47.1155756,49.2079069 C51.4835214,48.6800509 55.8902935,48.8560029 60.2,49.5793611 L60.3358916,50.0681166 L60.9376975,52.316392 L61.1900677,53.2352524 L61.2677201,53.548056 L62.1995485,56.9693447 L62.296614,57.3407989 L62.3936795,57.7318033 L63.1896163,60.7034369 L63.2866817,61.0748911 L63.4419865,61.6222973 L64.1990971,64.4375292 L64.2961625,64.769883 L64.5485327,65.7278438 L65.2085779,68.1716215 L65.3056433,68.5039752 L66.2180587,71.9057137 L66.3151242,72.2771679 L66.8975169,74.4472425 C67.1110609,74.9164478 66.9945824,75.3661029 66.703386,75.6789064 Z" id="Path" fill="#52A0FF"></path>
                                <path d="M19.5295711,13.8024562 C19.510158,13.8024562 19.510158,13.8024562 19.5295711,13.8024562 C19.4519187,13.8024562 19.4130926,13.7438055 19.4130926,13.6656046 L20.7525959,0.371454204 C20.7525959,0.332353761 20.7914221,0.293253319 20.8302483,0.273703097 C20.8690745,0.254152876 20.9273138,0.273703097 20.9467269,0.31280354 L29.9349887,10.6353204 C29.9738149,10.6744208 29.9738149,10.7526217 29.9349887,10.7917221 C29.8961625,10.8308226 29.8185102,10.8308226 29.779684,10.7917221 L20.9467269,0.664707522 L19.6266366,13.7047051 C19.6266366,13.7633558 19.5878104,13.8024562 19.5295711,13.8024562 Z" id="Path" fill="#000000"></path>
                                <ellipse id="Oval" fill="#000000" cx="20.96614" cy="0.684257743" rx="1" ry="1"></ellipse>
                            </g>
                            <g id="head_2_" transform="translate(13.006772, 19.550221)" fill="#000000">
                                <path d="M50.3769752,30.0095896 C46.0866817,29.2862314 41.6799097,29.1102794 37.2925508,29.6381354 C37.3119639,28.2500697 37.3507901,26.8033533 37.4090293,25.2979863 C37.4866817,23.8121695 37.5643341,22.3654531 37.6808126,20.9773874 C37.8749436,21.0555883 38.1273138,21.1142389 38.4379233,21.0946887 C39.6027088,21.0555883 40.8063205,19.9607759 41.0004515,18.5922604 C41.1557562,17.5560987 40.7092551,16.3635352 39.9133183,15.8943299 C39.4668172,15.640177 39.0009029,15.640177 38.9620767,15.640177 C38.4185102,15.640177 38.0302483,15.9138801 37.8749436,16.0116312 C36.3218962,15.1709717 34.1282167,13.7438055 32.1480813,11.3000279 C31.6239278,10.6548706 31.1580135,10.0097133 30.7697517,9.38410619 C29.4884876,9.91196217 29.0225734,12.0820367 27.9160271,14.0566091 C27.2171558,15.288273 25.9747178,16.969592 23.5869074,18.5336097 C23.6645598,19.4524701 23.9557562,21.7202958 25.6252822,23.8121695 C26.5765237,24.9851827 27.6248307,25.6889907 28.3431151,26.0799951 C28.2848758,27.9763666 28.2460497,29.8727381 28.1878104,31.7886597 C26.5959368,32.3751664 25.0817156,33.0398739 23.6451467,33.7827823 C23.4704289,33.8609832 23.3151242,33.9587343 23.1404063,34.0369352 C22.3832957,34.4474898 21.6261851,34.8775947 20.9079007,35.3076996 C19.6460497,36.0701582 18.461851,36.9108177 17.3164786,37.7710274 C17.2970655,37.7710274 17.2970655,37.7905777 17.2776524,37.7905777 C15.9963883,38.7680887 14.7927765,39.7847002 13.6474041,40.8599624 C13.414447,41.0750148 13.1814898,41.2900673 12.9679458,41.5051197 C11.9196388,42.502181 10.9489842,43.5383427 10.0365688,44.5745044 C9.84243792,44.7895569 9.648307,45.0241595 9.45417607,45.2392119 C8.38645598,46.4904261 7.39638826,47.7416403 6.503386,48.9733042 L6.40632054,48.9733042 L6.40632054,49.1101558 C5.59097065,50.2440686 4.83386005,51.3779814 4.13498871,52.4532436 L1.88306998,44.0857489 C2.05778781,43.9293471 2.23250564,43.7729454 2.40722348,43.6165436 C2.46546275,43.5578929 2.52370203,43.5187925 2.56252822,43.4601418 C2.91196388,43.1082378 3.20316027,42.7367836 3.45553047,42.3848796 C3.51376975,42.3066788 3.55259594,42.2480281 3.61083521,42.1698272 C3.66907449,42.0916263 3.70790068,42.0329757 3.74672686,41.9547748 C3.78555305,41.8765739 3.84379233,41.8179232 3.88261851,41.7397223 C4.01851016,41.5246699 4.15440181,41.3096175 4.27088036,41.1141153 C4.34853273,40.9968139 4.40677201,40.8795126 4.46501129,40.7622113 C4.62031603,40.5080584 4.73679458,40.2539055 4.87268623,40.0193029 C4.91151242,39.941102 4.9503386,39.8629011 4.98916479,39.7847002 C5.2221219,39.3154949 5.41625282,38.8267394 5.57155756,38.3770843 C5.59097065,38.3184336 5.61038375,38.259783 5.62979684,38.2011323 C5.64920993,38.1424816 5.66862302,38.1033812 5.68803612,38.0447305 C5.70744921,37.9665296 5.7268623,37.907879 5.76568849,37.8296781 C5.76568849,37.8101279 5.78510158,37.7710274 5.78510158,37.7514772 C5.78510158,37.731927 5.78510158,37.731927 5.80451467,37.7123768 C5.80451467,37.6928265 5.82392777,37.6732763 5.82392777,37.6732763 C5.84334086,37.6146257 5.86275395,37.5364248 5.88216704,37.4777741 C5.94040632,37.3018221 5.97923251,37.1258701 6.01805869,36.9499181 C6.03747178,36.8912675 6.05688488,36.8326168 6.05688488,36.7739661 C6.05688488,36.7544159 6.07629797,36.7153155 6.07629797,36.6957653 C6.09571106,36.6371146 6.09571106,36.5980142 6.11512415,36.5393635 C6.11512415,36.5198133 6.13453725,36.5002631 6.13453725,36.4611626 C6.15395034,36.4025119 6.15395034,36.3438613 6.17336343,36.2852106 C6.19277652,36.2070097 6.21218962,36.1288088 6.23160271,36.0310577 C6.2510158,35.9333066 6.27042889,35.8160053 6.28984199,35.7182542 C6.73634312,35.3859004 7.16343115,35.0730969 7.551693,34.7798436 C7.80406321,34.6038916 8.03702032,34.4083894 8.25056433,34.2519876 C8.63882619,33.9587343 9.00767494,33.665481 9.35711061,33.3917779 C9.47358916,33.2940268 9.59006772,33.2158259 9.68713318,33.137625 C9.78419865,33.0594241 9.88126411,32.9812232 9.95891648,32.9225726 C10.5413093,32.4729175 11.0072235,32.0819131 11.3566591,31.7691095 C11.7837472,31.3976553 12.5990971,30.6742971 12.4632054,29.9118385 C12.4243792,29.6967861 12.3273138,29.4621834 12.1914221,29.3448821 C12.0749436,29.247131 11.9196388,29.2080305 11.7255079,29.2080305 C11.6866817,29.2080305 11.6284424,29.2080305 11.5896163,29.2080305 C11.5896163,29.2080305 11.5896163,29.2080305 11.5702032,29.2080305 C11.5119639,29.2080305 11.4731377,29.2275808 11.4148984,29.2275808 C11.3954853,29.2275808 11.3566591,29.247131 11.337246,29.247131 C11.317833,29.247131 11.2790068,29.2666812 11.2401806,29.2666812 C11.1431151,29.2862314 11.0654628,29.3253319 10.9489842,29.3448821 C10.696614,29.4426332 10.4054176,29.5599345 10.0948081,29.7163363 C10.0171558,29.7554367 9.93950339,29.7945372 9.86185102,29.8336376 C9.86185102,29.8336376 9.86185102,29.8336376 9.86185102,29.8336376 C9.78419865,29.8727381 9.70654628,29.9118385 9.62889391,29.9704892 C9.55124153,30.0095896 9.47358916,30.0682403 9.3765237,30.1073407 C9.29887133,30.1464411 9.20180587,30.2050918 9.1241535,30.2441923 C9.06591422,30.2832927 8.98826185,30.3223931 8.93002257,30.3614936 C8.56117381,30.576546 8.19232506,30.8306989 7.80406321,31.0848518 C7.70699774,31.1435024 7.62934537,31.2021531 7.53227991,31.2608038 C7.49345372,31.280354 7.45462754,31.2999042 7.43521445,31.3390046 C7.37697517,31.3781051 7.31873589,31.4172055 7.27990971,31.456306 C7.20225734,31.4954064 7.14401806,31.5540571 7.06636569,31.6127077 C7.00812641,31.6518082 6.93047404,31.7104588 6.87223476,31.7495593 C6.63927765,31.9059611 6.42573363,32.0623628 6.21218962,32.2187646 C6.13453725,32.2774153 6.03747178,32.3556161 5.95981941,32.4142668 C5.88216704,32.4729175 5.78510158,32.5315681 5.70744921,32.609769 C5.16388262,33.0203237 4.65914221,33.4113281 4.21264108,33.7632321 L4.1738149,33.7241316 C4.19322799,33.7045814 4.27088036,33.6459308 4.38735892,33.5481796 C4.4261851,33.5286294 4.44559819,33.489529 4.48442438,33.4504285 C4.50383747,33.4308783 4.54266366,33.4113281 4.56207675,33.3722277 C4.89209932,33.0985246 5.39683973,32.6488695 5.97923251,32.1405637 C6.03747178,32.0819131 6.09571106,32.0428126 6.15395034,31.9841619 C6.91106095,31.3194544 7.78465011,30.5374456 8.61941309,29.7749869 C8.65823928,29.7358865 8.69706546,29.6967861 8.75530474,29.6576856 C8.79413093,29.6185852 8.83295711,29.5794847 8.8717833,29.5403843 C8.93002257,29.5012838 8.96884876,29.4426332 9.02708804,29.4035327 C9.08532731,29.3448821 9.14356659,29.3057816 9.20180587,29.247131 C9.3765237,29.071179 9.55124153,28.9147772 9.72595937,28.7583754 C9.80361174,28.6801746 9.88126411,28.6215239 9.95891648,28.543323 C10.0171558,28.4846723 10.075395,28.4455719 10.1142212,28.3869212 C10.1530474,28.3478208 10.1918736,28.3087204 10.2306998,28.2696199 C10.2889391,28.2109692 10.3471783,28.1523186 10.4054176,28.0936679 C10.4636569,28.0350173 10.5218962,27.9763666 10.5607223,27.9372661 C10.6577878,27.839515 10.7742664,27.7026635 10.910158,27.5658119 C10.9295711,27.5462617 10.9489842,27.5071613 10.9878104,27.4876111 C11.0072235,27.4680608 11.0072235,27.4485106 11.0266366,27.4289604 C11.0460497,27.38986 11.0848758,27.3507595 11.1042889,27.3116591 C11.1042889,27.3116591 11.123702,27.2921088 11.123702,27.2921088 C11.1431151,27.2725586 11.1625282,27.2530084 11.1819413,27.2334582 C11.2013544,27.1943577 11.2401806,27.1552573 11.2595937,27.1161569 C11.2790068,27.0966066 11.2984199,27.0575062 11.317833,27.037956 C11.317833,27.0184058 11.337246,27.0184058 11.337246,26.9988555 C11.3566591,26.9793053 11.3760722,26.9402049 11.3954853,26.9206546 C11.3954853,26.9206546 11.4148984,26.9011044 11.4148984,26.9011044 C11.4343115,26.862004 11.4537246,26.8424538 11.4731377,26.8033533 C11.4925508,26.7838031 11.4925508,26.7642529 11.4925508,26.7447027 C11.5119639,26.7251524 11.5119639,26.7056022 11.5119639,26.6665018 C11.5119639,26.6469515 11.531377,26.6274013 11.531377,26.6078511 C11.531377,26.5883009 11.5507901,26.5687507 11.5507901,26.5687507 C11.5702032,26.4905498 11.5896163,26.4123489 11.6090293,26.334148 C11.6090293,26.3145978 11.6090293,26.2950476 11.6090293,26.2754973 C11.6090293,26.2559471 11.6090293,26.2363969 11.6090293,26.2168467 C11.6090293,26.1972965 11.6090293,26.1777462 11.6090293,26.158196 C11.6090293,26.0995454 11.6090293,26.0408947 11.5896163,25.982244 C11.5896163,25.982244 11.5896163,25.9626938 11.5896163,25.9626938 C11.5896163,25.9431436 11.5896163,25.9235934 11.5702032,25.9040431 C11.4925508,25.5912396 11.2984199,25.3761872 11.2401806,25.3370867 C11.2207675,25.3175365 11.2013544,25.2979863 11.1625282,25.2979863 C11.1431151,25.2979863 11.1431151,25.2784361 11.123702,25.2784361 C11.0654628,25.2588858 11.0266366,25.2588858 10.9489842,25.2588858 C10.9295711,25.2588858 10.8907449,25.2588858 10.8713318,25.2588858 C10.8519187,25.2588858 10.8325056,25.2588858 10.8130926,25.2588858 C10.7936795,25.2588858 10.7742664,25.2588858 10.7354402,25.2784361 C10.7160271,25.2784361 10.696614,25.2784361 10.6772009,25.2979863 C10.6383747,25.2979863 10.5995485,25.3175365 10.5607223,25.3175365 L10.5607223,25.3175365 C10.5218962,25.3370867 10.48307,25.3370867 10.4442438,25.3566369 C10.4248307,25.3566369 10.4054176,25.3761872 10.3860045,25.3761872 C10.3471783,25.3957374 10.2889391,25.4152876 10.2501129,25.4348378 C9.80361174,25.63034 9.18239278,25.982244 8.3282167,26.5687507 C8.21173815,26.6469515 8.09525959,26.7447027 7.95936795,26.8229035 C7.92054176,26.862004 7.86230248,26.9011044 7.8234763,26.9206546 C7.76523702,26.9597551 7.72641084,26.9988555 7.66817156,27.037956 C7.51286682,27.1552573 7.35756208,27.2725586 7.20225734,27.38986 C7.14401806,27.4289604 7.08577878,27.4680608 7.0469526,27.5071613 C6.98871332,27.5462617 6.93047404,27.5853622 6.87223476,27.6440128 C6.81399549,27.6831133 6.75575621,27.7417639 6.67810384,27.7808644 C6.61986456,27.839515 6.54221219,27.8786155 6.46455982,27.9372661 C6.40632054,27.9763666 6.34808126,28.015467 6.30925508,28.0741177 C6.28984199,28.0936679 6.27042889,28.1132181 6.2510158,28.1132181 C6.15395034,28.191419 6.05688488,28.2696199 5.95981941,28.3478208 C5.82392777,28.4455719 5.70744921,28.5628732 5.57155756,28.6606243 C5.4744921,28.7388252 5.39683973,28.8170261 5.29977427,28.895227 C4.96975169,29.1689301 4.60090293,29.4621834 4.23205418,29.7945372 C4.1738149,29.8336376 4.11557562,29.8922883 4.05733634,29.9313887 C3.43611738,30.4592447 2.75665914,31.0457513 2.03837472,31.6713584 C5.31918736,28.5042226 7.8234763,25.982244 9.04650113,24.6723792 C9.43476298,24.2618246 10.2112867,23.421165 9.97832957,22.7173571 C9.97832957,22.7173571 9.86185102,22.3263527 9.3765237,22.09175 C8.0758465,21.4074923 3.02844244,26.4905498 0.0194130926,29.6576856 C0.0388261851,29.6381354 0.0388261851,29.6185852 0.0582392777,29.599035 C0.0776523702,29.5794847 0.0970654628,29.5403843 0.116478555,29.5208341 C0.15530474,29.4621834 0.213544018,29.4035327 0.271783296,29.3253319 C0.310609481,29.2666812 0.349435666,29.2275808 0.388261851,29.1689301 C0.446501129,29.071179 0.504740406,28.9929781 0.582392777,28.9147772 C2.48487585,26.3145978 3.14492099,25.4739383 4.01851016,24.1054228 C4.60090293,23.1865624 4.58148984,23.1279117 4.71738149,22.8737588 C4.81444695,22.6978069 4.93092551,22.5414051 5.00857788,22.3850033 C5.2027088,22.0721998 5.45507901,21.739846 5.57155756,21.2315403 C5.66862302,20.9187367 5.7268623,20.586383 5.64920993,20.3322301 L5.64920993,20.3322301 C6.48397291,16.9891423 8.0758465,13.0008971 11.337246,11.7887834 C12.5020316,11.3586785 12.7349887,11.9060847 13.8221219,11.3000279 C16.4623025,9.81421106 16.3846501,5.25900951 21.4126411,1.77907013 C27.6442438,-2.54152876 31.876298,3.06938473 31.876298,3.06938473 C31.876298,3.06938473 33.0604966,2.67838031 34.5553047,2.67838031 C36.2442438,2.67838031 38.3020316,3.18668606 39.4085779,5.37631084 C40.8063205,8.15244226 42.7282167,8.36749469 44.5336343,8.62164757 L50.3769752,30.0095896 Z" id="hair_2_"></path>
                                <path d="M28.110158,25.9235934 C28.1295711,25.9235934 28.1489842,25.9431436 28.1683973,25.9431436 C29.0613995,26.334148 29.8767494,26.2168467 30.3426637,26.158196 C31.9345372,25.9431436 33.5846501,24.8092308 33.778781,24.6723792 C33.4875847,25.180685 32.9828442,25.9235934 32.1286682,26.5492004 C30.4785553,27.7613142 28.7119639,27.7026635 28.1489842,27.6635631 C28.1489842,27.0770564 28.1295711,26.4905498 28.110158,25.9235934 Z" id="Path"></path>
                                <path d="M37.2148984,16.9500418 C37.1954853,16.9500418 37.1760722,16.9500418 37.1566591,16.9304916 C37.0984199,16.9109414 37.0790068,16.8327405 37.117833,16.7740898 C37.2925508,16.4026356 37.5643341,16.1093823 37.8749436,15.8943299 C38.0302483,15.7965788 38.185553,15.6988277 38.3602709,15.640177 C38.4185102,15.6206268 38.4767494,15.640177 38.4961625,15.7183779 C38.5155756,15.7770285 38.4961625,15.8356792 38.4379233,15.8747796 C38.2826185,15.9334303 38.1467269,16.0116312 38.0108352,16.0898321 C37.7196388,16.2853343 37.4866817,16.5590374 37.331377,16.8913911 C37.2925508,16.9304916 37.2537246,16.9500418 37.2148984,16.9500418 Z" id="Path"></path>
                            </g>
                            <g id="hand_l_2_" transform="translate(7.571106, 39.100442)" fill="#000000">
                                <path d="M5.06681716,5.96281748 L4.98916479,6.08011881 C4.98916479,6.08011881 4.96975169,6.09966903 4.96975169,6.09966903 C4.65914221,6.47112323 4.44559819,6.78392677 4.30970655,7.01852942 C4.21264108,7.17493119 4.15440181,7.31178274 3.88261851,7.78098805 C3.76613995,7.97649027 3.68848758,8.13289204 3.61083521,8.23064314 C3.47494357,8.50434624 3.31963883,8.77804934 3.18374718,9.05175243 L2.98961625,8.30884403 L2.29074492,5.7086646 C2.29074492,5.7086646 2.73724605,3.08893496 3.86320542,3.1280354 C4.96975169,3.16713584 5.06681716,5.96281748 5.06681716,5.96281748 Z" id="Path"></path>
                                <path d="M0.252370203,17.4583476 C0.252370203,17.4583476 0.232957111,17.4583476 0.232957111,17.4583476 C0.174717833,17.4387973 0.135891648,17.3801467 0.15530474,17.321496 L2.17426637,5.7086646 C2.19367946,5.65001394 2.25191874,5.6109135 2.31015801,5.6109135 C2.36839729,5.63046372 2.40722348,5.68911438 2.40722348,5.74776504 L0.621218962,16.0507316 L3.10609481,9.03220221 C3.1255079,8.97355155 3.18374718,8.93445111 3.24198646,8.95400133 C3.30022573,8.97355155 3.33905192,9.03220221 3.30022573,9.1104031 L0.388261851,17.3801467 C0.349435666,17.4192471 0.310609481,17.4583476 0.252370203,17.4583476 Z" id="Path"></path>
                                <path d="M5.55214447,10.2443159 C5.53273138,10.2443159 5.51331828,10.2443159 5.49390519,10.2247657 C5.43566591,10.1856653 5.43566591,10.1074644 5.4744921,10.0683639 C6.93047404,8.07424137 7.97878104,6.56887434 8.58058691,5.66956416 C9.3765237,4.51610111 9.99774266,3.53859004 10.4442438,2.79568164 C10.7160271,2.32647633 11.3566591,1.23166394 10.9878104,0.684257743 C10.9878104,0.684257743 10.8519187,0.488755531 10.5607223,0.391004425 C10.1724605,0.273703097 8.94943567,0.860209734 5.06681716,6.15831969 C5.02799097,6.21697035 4.9503386,6.21697035 4.91151242,6.17786991 C4.85327314,6.13876947 4.85327314,6.06056858 4.89209932,6.02146814 C7.95936795,1.81817058 9.82302483,-0.0977511062 10.6189616,0.15640177 C10.9878104,0.273703097 11.1625282,0.527855973 11.1625282,0.547406195 C11.6090293,1.23166394 10.910158,2.40467721 10.6189616,2.91298296 C10.1724605,3.67544159 9.55124153,4.63340243 8.75530474,5.80641571 C8.13408578,6.70572588 7.10519187,8.21109292 5.64920993,10.2052155 C5.62979684,10.2247657 5.59097065,10.2443159 5.55214447,10.2443159 Z" id="Path"></path>
                                <path d="M7.24108352,24.7896805 C7.20225734,24.7896805 7.18284424,24.7701303 7.16343115,24.7505801 C7.12460497,24.6919294 7.12460497,24.6332788 7.18284424,24.5941783 L7.31873589,24.476877 C8.63882619,23.3625144 9.39593679,22.0526496 9.88126411,21.1924398 C10.7548533,19.6675226 11.3566591,17.9862035 11.6672686,16.2071334 C11.6672686,16.168033 11.6866817,16.1484827 11.7060948,16.1289325 C12.8514673,15.2687228 13.8997743,14.4867139 14.7927765,13.8024562 C15.6275395,13.1572989 16.3264108,12.5903425 16.7923251,12.1797878 C17.1417607,11.8669843 17.9765237,11.1436261 17.8600451,10.4202679 C17.821219,10.2247657 17.7241535,10.0292635 17.627088,9.93151239 C17.3164786,9.65780929 15.9187359,9.52095774 9.78419865,14.3303122 C9.74537246,14.3694126 9.68713318,14.3694126 9.648307,14.3303122 L9.60948081,14.2912117 C9.57065463,14.2521113 9.57065463,14.1739104 9.60948081,14.13481 C9.648307,14.0957095 9.68713318,14.0957095 9.72595937,14.1152597 C12.8902935,11.6323816 16.8117381,8.89535066 17.7823928,9.77511062 C17.9376975,9.91196217 18.0541761,10.166115 18.0930023,10.4007177 C18.2288939,11.2609274 17.3164786,12.0429363 16.9476298,12.37529 C16.4623025,12.7858447 15.7634312,13.3528011 14.9286682,14.0175086 C14.055079,14.7017664 13.0261851,15.4837752 11.8808126,16.3244347 C11.5702032,18.1230551 10.9683973,19.8043741 10.075395,21.3488416 C9.57065463,22.2286015 8.81354402,23.5384664 7.45462754,24.6919294 L7.31873589,24.8092308 C7.27990971,24.7896805 7.26049661,24.7896805 7.24108352,24.7896805 Z" id="Path"></path>
                                <path d="M9.66772009,14.3107619 C9.62889391,14.3107619 9.60948081,14.2912117 9.59006772,14.2716615 C9.55124153,14.2130108 9.55124153,14.1543602 9.60948081,14.1152597 C10.075395,13.7242553 14.0939052,10.2638662 15.9963883,8.32839425 C16.3458239,7.97649027 17.1611738,7.15538097 16.986456,6.39292234 C16.9088036,6.08011881 16.6952596,5.88461659 16.6952596,5.88461659 C16.3458239,5.59136327 14.7151242,6.00191792 7.64875847,12.2188883 C7.60993228,12.2579887 7.53227991,12.2579887 7.49345372,12.1993381 C7.45462754,12.1602376 7.45462754,12.0820367 7.51286682,12.0429363 C14.9286682,5.53271261 16.3846501,5.31766018 16.8505643,5.7086646 C16.8699774,5.7086646 17.1223476,5.94326726 17.2194131,6.33427168 C17.4329571,7.21403164 16.5399549,8.09379159 16.1711061,8.48479602 C14.3074492,10.3811675 10.5218962,13.6460544 9.78419865,14.2716615 C9.72595937,14.3107619 9.70654628,14.3107619 9.66772009,14.3107619 Z" id="Path"></path>
                                <path d="M7.551693,12.2579887 C7.53227991,12.2579887 7.49345372,12.2384385 7.47404063,12.2188883 C7.43521445,12.1797878 7.43521445,12.1015869 7.47404063,12.0624865 C7.47404063,12.0624865 7.49345372,12.0429363 7.49345372,12.0429363 C11.0072235,8.64119779 13.414447,6.21697035 14.482167,5.0635073 C14.8121896,4.71160332 15.6081264,3.87094381 15.3945824,3.2257865 C15.3945824,3.20623628 15.2781038,2.89343274 14.8510158,2.65883009 C14.3268623,2.38512699 12.4437923,3.01073407 5.62979684,10.2052155 C5.59097065,10.2443159 5.51331828,10.2443159 5.4744921,10.2052155 C5.43566591,10.166115 5.43566591,10.0879142 5.4744921,10.0488137 C10.7354402,4.47700066 13.9386005,1.9354719 14.9674944,2.46332788 C15.4722348,2.73703097 15.6081264,3.14758562 15.6275395,3.16713584 C15.8799097,3.94914469 15.0257336,4.84845487 14.6568849,5.23945929 C13.5891648,6.39292234 11.1819413,8.81714978 7.64875847,12.2384385 C7.60993228,12.2384385 7.59051919,12.2579887 7.551693,12.2579887 Z" id="Path"></path>
                                <polygon id="Path" points="3.18374718 9.05175243 0.252370203 17.3410462 1.26185102 11.5346305 3.06726862 8.62164757"></polygon>
                                <path d="M3.18374718,9.16905376 C3.16433409,9.16905376 3.14492099,9.16905376 3.1255079,9.14950354 C3.06726862,9.1104031 3.04785553,9.05175243 3.08668172,8.99310177 C3.26139955,8.64119779 3.45553047,8.28929381 3.6496614,7.93738982 C4.01851016,7.2726823 4.44559819,6.627525 4.89209932,6.02146814 C4.93092551,5.96281748 4.98916479,5.96281748 5.04740406,6.00191792 C5.10564334,6.04101836 5.10564334,6.11921925 5.06681716,6.15831969 C4.63972912,6.76437655 4.21264108,7.40953385 3.84379233,8.05469115 C3.6496614,8.38704491 3.45553047,8.73894889 3.28081264,9.09085288 C3.26139955,9.14950354 3.22257336,9.16905376 3.18374718,9.16905376 Z" id="Path"></path>
                            </g>
                            <g id="hand_r_2_" transform="translate(33.002257, 72.531321)" fill="#000000">
                                <path d="M16.151693,19.3742692 C16.1322799,19.3742692 16.1322799,19.3742692 16.1128668,19.3742692 C15.6663657,19.2374177 15.2198646,19.0810159 14.7927765,18.8855137 C14.5986456,18.7877626 14.3851016,18.6900115 14.1715576,18.5922604 C13.8027088,18.3967582 13.43386,18.1621555 13.0650113,17.9080027 C11.2207675,16.5981378 10.1336343,14.936369 9.57065463,13.7438055 C8.73589165,13.5678535 7.88171558,13.4896527 7.0469526,13.5092029 C6.48397291,13.5287531 5.90158014,13.5874038 5.35801354,13.7047051 C5.28036117,13.7242553 3.10609481,14.3694126 1.88306998,14.2130108 C1.5530474,14.1739104 1.32009029,14.0566091 1.20361174,13.8415566 C1.14537246,13.7438055 1.12595937,13.6460544 1.10654628,13.5287531 C1.10654628,13.3528011 1.14537246,13.1768491 1.16478555,13.1181985 C1.53363431,11.9842856 4.79503386,11.3782288 5.16388262,11.3195781 C6.65869074,11.0654252 8.19232506,10.9481239 9.74537246,10.9676741 C9.80361174,10.9676741 9.86185102,11.0263248 9.86185102,11.0849754 C9.86185102,11.1436261 9.80361174,11.2022768 9.74537246,11.2022768 L9.74537246,11.2022768 C8.21173815,11.1827265 6.67810384,11.3000279 5.2027088,11.5541808 C3.99909707,11.7692332 1.63069977,12.37529 1.37832957,13.1963993 C1.35891648,13.25505 1.32009029,13.3919015 1.32009029,13.5287531 C1.32009029,13.606954 1.33950339,13.6851549 1.37832957,13.7242553 C1.45598194,13.8611069 1.63069977,13.9393077 1.90248307,13.9784082 C3.06726862,14.13481 5.28036117,13.4701024 5.29977427,13.4701024 C5.88216704,13.3528011 6.46455982,13.2941504 7.0469526,13.2746002 C7.93995485,13.25505 8.81354402,13.3332509 9.68713318,13.5287531 C9.72595937,13.5287531 9.74537246,13.5678535 9.76478555,13.5874038 C10.3277652,14.760417 11.3760722,16.4221858 13.220316,17.7125004 C13.5697517,17.9666533 13.9386005,18.1817058 14.3074492,18.377208 C14.5015801,18.4749591 14.7151242,18.5727102 14.9092551,18.6704613 C15.31693,18.8659635 15.7634312,19.0223653 16.1905192,19.1396666 C16.2487585,19.1592168 16.2875847,19.2178675 16.2681716,19.2765181 C16.2487585,19.3351688 16.2099323,19.3742692 16.151693,19.3742692 Z" id="Path"></path>
                                <path d="M18.8306998,9.69690973 C18.8112867,9.69690973 18.7724605,9.67735951 18.7530474,9.65780929 L18.5200903,9.42320664 C18.3259594,9.2081542 18.1124153,9.01265199 17.9182844,8.79759956 C17.3747178,8.25019336 16.8893905,7.76143783 16.4428894,7.33133296 C16.0934537,6.97942898 15.7440181,6.64707522 15.3945824,6.29517124 C14.6957111,5.6109135 13.9580135,4.90710553 13.220316,4.22284779 C12.8514673,4.02734558 12.4826185,3.81229314 12.1137698,3.61679093 C12.1137698,3.61679093 12.1137698,3.61679093 12.1137698,3.61679093 C12.1137698,3.61679093 12.1137698,3.61679093 12.1137698,3.61679093 L12.1137698,3.61679093 L11.8031603,3.46038916 C11.2984199,3.18668606 9.74537246,2.36557677 8.19232506,1.66176881 C6.65869074,0.977511062 5.43566591,0.547406195 4.60090293,0.410554646 C3.9214447,0.293253319 3.49435666,0.351903982 3.31963883,0.586506637 C3.14492099,0.821109292 3.22257336,1.21211372 3.24198646,1.2903146 C3.24198646,1.2903146 3.24198646,1.30986482 3.24198646,1.30986482 C3.3778781,1.8377208 4.19322799,2.26782566 4.65914221,2.46332788 C4.89209932,2.56107898 5.04740406,2.61972965 5.06681716,2.61972965 C5.61038375,2.81523186 6.13453725,3.04983451 6.65869074,3.30398739 C7.31873589,3.63634115 7.84288939,3.94914469 8.3476298,4.26194823 C8.61941309,4.41835 8.89119639,4.59430199 9.14356659,4.77025398 C9.20180587,4.80935442 9.20180587,4.86800509 9.18239278,4.92665575 C9.14356659,4.98530642 9.08532731,5.00485664 9.02708804,4.96575619 C8.75530474,4.7898042 8.50293454,4.63340243 8.23115124,4.45745044 C7.72641084,4.1446469 7.22167043,3.83184336 6.56162528,3.51903982 C6.05688488,3.26488695 5.53273138,3.04983451 5.00857788,2.8543323 C5.00857788,2.8543323 4.83386005,2.79568164 4.60090293,2.69793053 C3.97968397,2.42422743 3.20316027,1.97457235 3.04785553,1.38806571 C3.04785553,1.38806571 3.04785553,1.36851549 3.04785553,1.36851549 C3.00902935,1.23166394 2.93137698,0.78200885 3.16433409,0.449655088 C3.3972912,0.136851549 3.88261851,0.0586506637 4.65914221,0.175951991 C5.53273138,0.31280354 6.75575621,0.742908407 8.30880361,1.44671637 C9.88126411,2.15052434 11.4343115,2.97163363 11.9390519,3.24533673 L12.2496614,3.4017385 C12.2496614,3.4017385 12.2496614,3.4017385 12.2496614,3.4017385 C12.2496614,3.4017385 12.2496614,3.4017385 12.2496614,3.4017385 L12.2496614,3.4017385 C12.6379233,3.59724071 13.006772,3.81229314 13.3756208,4.02734558 C13.3756208,4.02734558 13.3950339,4.0468958 13.3950339,4.0468958 C14.1327314,4.75070376 14.8704289,5.45451173 15.5693002,6.13876947 C15.9187359,6.47112323 16.2681716,6.82302721 16.6176072,7.17493119 C17.0641084,7.60503606 17.5300226,8.09379159 18.0930023,8.64119779 C18.3065463,8.85625022 18.5006772,9.05175243 18.6948081,9.26680487 L18.9277652,9.50140752 C18.9665914,9.54050796 18.9665914,9.61870885 18.9277652,9.65780929 C18.8889391,9.67735951 18.8501129,9.69690973 18.8306998,9.69690973 Z" id="Path"></path>
                                <path d="M9.76478555,11.2022768 C9.74537246,11.2022768 9.74537246,11.2022768 9.72595937,11.2022768 C9.20180587,11.045875 8.71647856,10.9285737 8.21173815,10.8112723 L8.15349887,10.7917221 C6.94988713,10.4984688 5.7268623,10.2247657 4.56207675,9.97061283 C2.98961625,9.61870885 1.98013544,9.42320664 1.98013544,9.42320664 L1.96072235,9.42320664 C1.65011287,9.36455597 1.26185102,9.28635509 0.91241535,9.1104031 C0.601805869,8.95400133 0.388261851,8.73894889 0.291196388,8.48479602 C0.0970654628,7.99604049 0.330022573,7.46818451 0.349435666,7.40953385 C0.388261851,7.31178274 0.465914221,7.23358186 0.543566591,7.17493119 C0.640632054,7.09673031 0.776523702,7.03807965 0.931828442,6.9989792 C1.5530474,6.82302721 2.65959368,6.88167788 4.27088036,7.15538097 L4.30970655,7.15538097 C4.40677201,7.17493119 4.50383747,7.19448142 4.62031603,7.21403164 C5.62979684,7.38998363 6.83340858,7.68323695 8.23115124,8.03514093 C9.16297968,8.26974358 10.2306998,8.5629969 11.3954853,8.89535066 C11.4537246,8.91490088 11.4925508,8.97355155 11.4731377,9.03220221 C11.4537246,9.09085288 11.3954853,9.12995332 11.337246,9.1104031 C10.1918736,8.77804934 9.1241535,8.48479602 8.19232506,8.25019336 C6.81399549,7.89828938 5.59097065,7.62458628 4.60090293,7.42908407 C4.50383747,7.40953385 4.40677201,7.38998363 4.30970655,7.37043341 L4.27088036,7.37043341 C2.69841986,7.09673031 1.61128668,7.03807965 1.02889391,7.21403164 C0.893002257,7.25313208 0.795936795,7.29223252 0.718284424,7.35088319 C0.660045147,7.38998363 0.621218962,7.44863429 0.582392777,7.50728496 C0.562979684,7.56593562 0.349435666,7.99604049 0.524153499,8.40659513 C0.601805869,8.62164757 0.776523702,8.77804934 1.048307,8.91490088 C1.35891648,9.07130265 1.72776524,9.14950354 2.03837472,9.2081542 L2.05778781,9.2081542 C2.0772009,9.2081542 3.08668172,9.42320664 4.65914221,9.7555604 C5.84334086,10.0097133 7.0469526,10.2834164 8.25056433,10.5766697 L8.30880361,10.5962199 C8.81354402,10.7135212 9.31828442,10.8503728 9.84243792,11.0067746 C9.88126411,11.0263248 9.92009029,11.0654252 9.92009029,11.1240759 C9.88126411,11.1436261 9.82302483,11.2022768 9.76478555,11.2022768 Z" id="Path"></path>
                                <path d="M11.337246,9.1104031 C11.317833,9.1104031 11.2984199,9.1104031 11.2790068,9.09085288 C10.1530474,8.48479602 9.10474041,7.97649027 8.13408578,7.56593562 C8.13408578,7.56593562 8.13408578,7.56593562 8.11467269,7.56593562 C7.93995485,7.48773473 7.78465011,7.42908407 7.62934537,7.37043341 C7.62934537,7.37043341 7.62934537,7.37043341 7.62934537,7.37043341 C6.503386,6.92077832 5.4744921,6.58842456 4.54266366,6.39292234 C4.05733634,6.29517124 3.61083521,6.23652058 3.20316027,6.19742013 L3.1255079,6.19742013 C2.62076749,6.15831969 1.59187359,6.08011881 0.873589165,5.6109135 C0.621218962,5.4349615 0.427088036,5.23945929 0.310609481,4.98530642 C0.252370203,4.84845487 0.0388261851,4.35969934 0.232957111,3.94914469 C0.349435666,3.71454204 0.562979684,3.55814027 0.893002257,3.44083894 C0.931828442,3.42128872 0.970654628,3.42128872 1.00948081,3.4017385 C1.5530474,3.26488695 2.38781038,3.26488695 3.47494357,3.4017385 C3.80496614,3.44083894 4.1738149,3.4994896 4.58148984,3.57769049 C5.04740406,3.65589137 5.45507901,3.75364248 5.76568849,3.81229314 L5.80451467,3.81229314 C6.60045147,3.98824513 7.41580135,4.20329757 8.21173815,4.45745044 C8.52234763,4.55520155 8.79413093,4.65295265 9.06591422,4.75070376 C10.2112867,5.16125841 11.337246,5.65001394 12.4437923,6.21697035 C12.5020316,6.23652058 12.5214447,6.31472146 12.5020316,6.37337212 C12.4826185,6.43202279 12.4049661,6.45157301 12.3467269,6.43202279 C11.2595937,5.86506637 10.1336343,5.37631084 9.00767494,4.98530642 C8.75530474,4.88755531 8.46410835,4.7898042 8.17291196,4.71160332 C7.37697517,4.45745044 6.58103837,4.24239801 5.78510158,4.06644602 L5.7462754,4.06644602 C5.43566591,4.00779535 5.02799097,3.91004425 4.56207675,3.83184336 C4.15440181,3.75364248 3.80496614,3.69499181 3.47494357,3.65589137 C2.40722348,3.51903982 1.61128668,3.51903982 1.08713318,3.65589137 C1.048307,3.65589137 1.00948081,3.67544159 0.99006772,3.69499181 C0.718284424,3.7731927 0.543566591,3.91004425 0.465914221,4.08599624 C0.310609481,4.39879978 0.504740406,4.82890465 0.543566591,4.92665575 C0.640632054,5.14170819 0.795936795,5.31766018 1.02889391,5.45451173 C1.68893905,5.90416681 2.71783296,5.9823677 3.16433409,6.00191792 L3.24198646,6.00191792 C3.66907449,6.04101836 4.11557562,6.09966903 4.60090293,6.19742013 C5.53273138,6.39292234 6.58103837,6.72527611 7.70699774,7.17493119 C7.70699774,7.17493119 7.70699774,7.17493119 7.72641084,7.17493119 C7.90112867,7.23358186 8.05643341,7.31178274 8.23115124,7.38998363 C8.23115124,7.38998363 8.25056433,7.38998363 8.25056433,7.38998363 C9.22121896,7.80053827 10.269526,8.30884403 11.3760722,8.89535066 C11.3760722,8.89535066 11.3954853,8.89535066 11.3954853,8.89535066 C11.4537246,8.91490088 11.4731377,8.99310177 11.4537246,9.05175243 L11.4537246,9.05175243 C11.4343115,9.07130265 11.4148984,9.1104031 11.3954853,9.1104031 C11.3760722,9.1104031 11.3566591,9.1104031 11.337246,9.1104031 Z" id="Path"></path>
                                <path d="M19.9566591,8.15244226 L19.8984199,8.17199248 L19.1024831,8.40659513 L17.9959368,8.71939867 L16.8893905,7.62458628 C16.8893905,7.62458628 15.6081264,2.97163363 16.9670429,2.5806292 C18.0153499,2.28737588 19.3160271,6.09966903 19.9566591,8.15244226 Z" id="Path"></path>
                                <path d="M21.1990971,11.9842856 C21.1602709,11.9842856 21.1020316,11.9647354 21.1020316,11.9060847 L20.2284424,9.44275686 C20.2090293,9.38410619 20.1702032,9.26680487 20.1119639,9.05175243 C20.0537246,8.8367 19.9566591,8.54344668 19.8595937,8.1915427 C19.8401806,8.13289204 19.8790068,8.07424137 19.937246,8.05469115 C19.9954853,8.03514093 20.0537246,8.07424137 20.0731377,8.13289204 C20.1702032,8.48479602 20.2672686,8.77804934 20.3255079,8.99310177 C20.3837472,9.18860398 20.4225734,9.32545553 20.4419865,9.36455597 L21.3155756,11.8278838 C21.3349887,11.8865345 21.3155756,11.9451852 21.2573363,11.9842856 C21.2379233,11.9842856 21.2185102,11.9842856 21.1990971,11.9842856 Z" id="Path"></path>
                                <path d="M21.0826185,11.5150803 L14.8510158,18.7682124 C15.3363431,18.9832648 15.7634312,19.1396666 16.151693,19.2374177 C17.8406321,16.7740898 19.510158,14.3107619 21.1990971,11.8474341 C21.1990971,11.8083336 21.1990971,11.749683 21.179684,11.6910323 C21.1602709,11.6128314 21.1214447,11.5541808 21.0826185,11.5150803 Z" id="Path"></path>
                            </g>
                            <g id="body_2_" transform="translate(0.000000, 40.273456)" fill="#000000">
                                <path d="M7.49345372,64.5548305 C7.41580135,64.5548305 7.37697517,64.5548305 7.35756208,64.5548305 C7.35756208,64.5548305 7.35756208,64.5548305 7.35756208,64.5548305 C6.5227991,64.5548305 5.76568849,64.417979 5.14446953,64.1247257 C2.93137698,63.4600181 1.39774266,60.2928823 0.582392777,54.6819688 C0.407674944,53.5285058 0.310609481,52.4336934 0.232957111,51.7103352 C0.213544018,51.4561823 0.194130926,51.2215796 0.174717833,51.0065272 C-0.330022573,45.7279675 0.543566591,38.9244905 2.77607223,30.7915985 C4.03792325,26.1386458 5.76568849,21.0751385 7.74582393,16.1289325 C7.76523702,16.0898321 7.78465011,16.0702819 7.8234763,16.0507316 C7.86230248,16.0507316 7.90112867,16.0507316 7.92054176,16.0898321 L14.889842,23.4407153 C14.9092551,23.4602655 14.9286682,23.4993659 14.9286682,23.5189161 L14.5598194,46.3535746 C14.5598194,46.4122252 14.5015801,46.4708759 14.4433409,46.4708759 C14.4433409,46.4708759 14.4433409,46.4708759 14.4433409,46.4708759 C14.3851016,46.4708759 14.3268623,46.4122252 14.3268623,46.3535746 L14.6957111,23.5580166 L7.86230248,16.3635352 C5.90158014,21.2510905 4.21264108,26.2559471 2.97020316,30.8306989 C0.757110609,38.9244905 -0.116478555,45.688867 0.388261851,50.9478765 C0.407674944,51.162929 0.427088036,51.3975316 0.446501129,51.6516845 C0.524153499,52.3554925 0.621218962,53.4503049 0.795936795,54.6037679 C1.59187359,60.1169303 3.06726862,63.2254155 5.2027088,63.8705728 C5.2027088,63.8705728 5.2221219,63.8705728 5.2221219,63.8705728 C5.82392777,64.1442759 6.54221219,64.2811274 7.35756208,64.2811274 C7.37697517,64.2811274 8.94943567,64.3397781 10.7354402,63.6359701 C11.4148984,63.362267 12.385553,62.8148608 13.5309255,62.032852 C13.7832957,61.8569 14.055079,61.680948 14.3268623,61.4658956 C16.8117381,59.6868254 19.8207675,57.1452967 22.7909707,54.2909644 C22.8297968,54.2518639 22.9074492,54.2518639 22.9462754,54.2909644 C22.9851016,54.3300648 22.9851016,54.4082657 22.9462754,54.4473661 C19.9760722,57.3016984 16.9670429,59.8627774 14.462754,61.6418476 C14.1715576,61.8569 13.8997743,62.032852 13.6474041,62.208804 C12.5020316,62.9908128 11.5119639,63.538219 10.8130926,63.8314723 C9.27945824,64.4961799 7.92054176,64.5548305 7.49345372,64.5548305 Z" id="Path"></path>
                                <path d="M64.4708804,42.150277 C64.4126411,42.150277 64.3544018,42.0916263 64.3544018,42.0329757 C64.3349887,38.0251803 64.3349887,34.0369352 64.3155756,30.0291398 L64.3155756,28.9734279 C64.3155756,28.9147772 64.3738149,28.8561265 64.4320542,28.8561265 C64.4320542,28.8561265 64.4320542,28.8561265 64.4320542,28.8561265 C64.4902935,28.8561265 64.5485327,28.9147772 64.5485327,28.9734279 L64.5485327,30.0291398 C64.5679458,34.0369352 64.5679458,38.0251803 64.5873589,42.0329757 C64.5873589,42.0916263 64.5291196,42.150277 64.4708804,42.150277 C64.4708804,42.150277 64.4708804,42.150277 64.4708804,42.150277 Z" id="Path"></path>
                                <path d="M10.6383747,93.0199527 C10.5995485,93.0199527 10.5801354,93.0004024 10.5413093,92.9808522 C10.5218962,92.9417518 10.5218962,92.9026513 10.5218962,92.8831011 L22.6939052,54.4669164 C23.3151242,52.492344 23.9557562,50.4982215 24.5769752,48.5236491 L26.5959368,42.1307268 C26.8677201,41.2509668 27.1589165,40.3907571 27.4306998,39.5109971 C27.8189616,38.259783 28.2266366,37.0085688 28.6148984,35.7769049 L29.56614,32.7661708 C29.585553,32.7075201 29.6437923,32.6684197 29.7020316,32.6879699 C29.7602709,32.7075201 29.7990971,32.7661708 29.779684,32.8248215 L28.8284424,35.8355555 C28.4401806,37.0867697 28.0325056,38.3379838 27.6442438,39.5696478 C27.3724605,40.4494077 27.1006772,41.3096175 26.8094808,42.1893774 L24.7905192,48.5822998 C24.1693002,50.5568721 23.5286682,52.5509947 22.9074492,54.525567 L10.7936795,92.78535 L64.5097065,89.9505679 C64.5097065,84.652458 64.4902935,79.2761471 64.4708804,73.9975874 C64.4514673,67.4873637 64.4126411,62.5216075 64.3738149,57.8882051 C64.3738149,57.8295544 64.4320542,57.7709038 64.4902935,57.7709038 C64.4902935,57.7709038 64.4902935,57.7709038 64.4902935,57.7709038 C64.5485327,57.7709038 64.606772,57.8295544 64.606772,57.8882051 C64.6455982,62.5216075 64.6650113,67.5069139 64.7038375,73.9975874 C64.7232506,79.3347978 64.7426637,84.7306588 64.7426637,90.0678692 C64.7426637,90.1265199 64.7038375,90.1851706 64.6455982,90.1851706 L10.6383747,93.0199527 C10.6383747,93.0199527 10.6383747,93.0199527 10.6383747,93.0199527 Z" id="Path"></path>
                                <path d="M72.0031603,40.6058095 C71.9643341,40.6058095 71.9255079,40.5862593 71.9060948,40.5471588 C69.3823928,36.7153155 66.8586907,32.8639219 64.3349887,29.0320785 C64.2961625,28.9734279 64.3155756,28.9147772 64.3738149,28.8756768 C64.4320542,28.8365763 64.4902935,28.8561265 64.5291196,28.9147772 C67.0528217,32.7466206 69.5765237,36.5980142 72.1002257,40.4298575 C72.1390519,40.4885082 72.1196388,40.5471588 72.0613995,40.5862593 C72.0613995,40.6058095 72.0419865,40.6058095 72.0031603,40.6058095 Z" id="Path"></path>
                                <path d="M41.0781038,28.6606243 C41.0781038,28.6606243 41.0586907,28.6606243 41.0781038,28.6606243 C41.0198646,28.6606243 40.9810384,28.6215239 40.9616253,28.5824235 L36.5936795,13.0986482 C36.5742664,13.0399976 36.6130926,12.9813469 36.6713318,12.9617967 C36.7295711,12.9422465 36.7878104,12.9813469 36.8072235,13.0399976 L41.11693,28.2891701 L45.9896163,21.387942 C48.9986456,17.1064436 52.0076749,12.8249451 55.0167043,8.5629969 C55.0555305,8.50434624 55.1137698,8.50434624 55.172009,8.54344668 C55.2302483,8.58254712 55.2302483,8.66074801 55.1914221,8.69984845 C52.1823928,12.9813469 49.1733634,17.2628454 46.1643341,21.5247936 L41.1751693,28.6215239 C41.1557562,28.6606243 41.11693,28.6606243 41.0781038,28.6606243 Z" id="Path"></path>
                                <path d="M14.5986456,36.3634115 C14.5792325,36.3634115 14.5598194,36.3634115 14.5404063,36.3438613 C14.482167,36.3047608 14.462754,36.2461102 14.5015801,36.1874595 C14.7345372,35.7378044 15.0063205,35.2685991 15.2781038,34.7798436 C15.8604966,33.7436819 16.4817156,32.7075201 17.1029345,31.7104588 C21.5679458,24.652829 29.372009,15.3469237 41.1363431,11.0067746 L41.2139955,5.41541128 C41.2139955,5.35676062 41.2722348,5.29810996 41.330474,5.29810996 C41.3887133,5.29810996 41.4469526,5.35676062 41.4469526,5.41541128 L41.3693002,11.0849754 C41.3693002,11.1240759 41.330474,11.1827265 41.2916479,11.1827265 C29.5467269,15.4837752 21.7620767,24.7896805 17.2970655,31.8277602 C16.6758465,32.8248215 16.0546275,33.841433 15.4722348,34.8971449 C15.2004515,35.3663502 14.9480813,35.8551058 14.6957111,36.3047608 C14.676298,36.3243111 14.6374718,36.3634115 14.5986456,36.3634115 Z" id="Path"></path>
                                <path d="M63.8302483,58.0055064 C56.841535,58.0055064 51.1146727,55.229375 47.9697517,53.2743529 C47.9503386,53.2548027 47.9309255,53.2352524 47.9115124,53.196152 C47.9115124,53.1570515 47.9115124,53.1375013 47.9309255,53.0984009 C48.6103837,52.1208898 49.289842,51.1238285 49.9498871,50.1267673 L51.0564334,48.5040989 C52.0659142,47.0182821 53.075395,45.5324653 54.1042889,44.0466485 C54.123702,44.0270982 54.1431151,44.007548 54.1819413,44.007548 L54.9972912,43.8511462 C55.2108352,43.8120458 55.4243792,43.7729454 55.6379233,43.7142947 C62.5295711,42.3066788 69.4018059,40.9186131 76.2934537,39.5109971 C76.351693,39.4914469 76.4099323,39.5305473 76.4293454,39.6087482 C76.4487585,39.6673989 76.4099323,39.7260496 76.3322799,39.7455998 C69.4406321,41.1532157 62.5683973,42.5412814 55.6767494,43.9488973 C55.4632054,43.9879978 55.2496614,44.0270982 55.0361174,44.0857489 L54.2790068,44.2421507 C53.269526,45.7084173 52.2600451,47.1942341 51.2699774,48.6605007 L50.1634312,50.283169 C49.503386,51.2411299 48.862754,52.1990907 48.2027088,53.1375013 C52.2018059,55.581279 60.2388262,59.295821 69.634763,57.1061962 C71.4401806,56.6760914 76.2352144,55.5617288 80.1760722,52.4727938 C80.6225734,52.1208898 81.0496614,51.7689858 81.4379233,51.3779814 C82.9521445,49.931265 84.0781038,48.249946 84.7963883,46.4122252 C86.2329571,42.7563338 85.6505643,39.4523465 85.1458239,36.5393635 C85.1264108,36.4220622 85.1069977,36.2852106 85.0681716,36.1679093 L85.0487585,36.050608 C85.0293454,35.9137564 84.9905192,35.7573546 84.9711061,35.6205031 C81.7873589,19.9216754 71.3431151,11.6714821 63.344921,9.40365642 C59.2293454,8.23064314 54.8419865,8.11334181 50.3187359,9.03220221 C50.2799097,9.03220221 50.2604966,9.03220221 50.2216704,9.01265199 C50.2022573,8.99310177 50.1828442,8.95400133 50.1828442,8.91490088 C50.2022573,7.48773473 50.2410835,6.02146814 50.2993228,4.57475177 C50.3575621,3.1280354 50.4546275,1.68131903 50.5711061,0.254152876 C50.5711061,0.195502212 50.6293454,0.136851549 50.6875847,0.15640177 C50.7458239,0.15640177 50.8040632,0.215052434 50.7846501,0.273703097 C50.6681716,1.70086925 50.5711061,3.14758562 50.5128668,4.59430199 C50.4546275,6.00191792 50.4158014,7.40953385 50.3963883,8.77804934 C54.9196388,7.87873916 59.2875847,8.01559071 63.3837472,9.16905376 C69.227088,10.8308226 74.4297968,14.6431157 78.448307,20.1758283 C82.8162528,26.1972965 84.5440181,32.4142668 85.1846501,35.5814027 C85.2234763,35.7182542 85.2428894,35.874656 85.2623025,36.0115075 L85.2817156,36.1288088 C85.3011287,36.2656604 85.3205418,36.3829617 85.3593679,36.5002631 C85.8446953,39.2959447 86.4465011,42.7758841 84.9905192,46.4904261 C84.2528217,48.3672473 83.1074492,50.0681166 81.5738149,51.5343832 C81.185553,51.9058374 80.7390519,52.2772916 80.2925508,52.6291956 C76.3128668,55.757231 71.4984199,56.8715936 69.6735892,57.3016984 C67.6546275,57.790454 65.7133183,58.0055064 63.8302483,58.0055064 Z" id="Path"></path>
                                <g id="pattern_2_" transform="translate(17.083521, 8.406595)">
                                    <g id="Group">
                                        <path d="M19.6848758,5.04395708 L19.1024831,5.04395708 C19.0442438,5.04395708 18.9860045,4.98530642 18.9860045,4.92665575 C18.9860045,4.86800509 19.0442438,4.80935442 19.1024831,4.80935442 L19.6848758,4.80935442 C19.7431151,4.80935442 19.8013544,4.86800509 19.8013544,4.92665575 C19.8013544,4.98530642 19.7431151,5.04395708 19.6848758,5.04395708 Z" id="Path"></path>
                                        <path d="M42.3011287,5.04395708 L34.7106095,5.04395708 C34.6523702,5.04395708 34.5941309,4.98530642 34.5941309,4.92665575 C34.5941309,4.86800509 34.6523702,4.80935442 34.7106095,4.80935442 L45.931377,4.80935442 L47.3679458,4.75070376 C47.3679458,4.75070376 47.3679458,4.75070376 47.3679458,4.75070376 C47.4261851,4.75070376 47.4844244,4.7898042 47.4844244,4.86800509 C47.4844244,4.92665575 47.4455982,4.98530642 47.3679458,4.98530642 L45.931377,5.04395708 L42.3011287,5.04395708 Z" id="Path"></path>
                                        <path d="M48.3968397,8.77804934 L32.0704289,8.77804934 C32.0121896,8.77804934 31.9539503,8.71939867 31.9539503,8.66074801 C31.9539503,8.60209734 32.0121896,8.54344668 32.0704289,8.54344668 L48.3968397,8.54344668 C48.455079,8.54344668 48.5133183,8.60209734 48.5133183,8.66074801 C48.5133183,8.73894889 48.455079,8.77804934 48.3968397,8.77804934 Z" id="Path"></path>
                                        <path d="M1.76659142,8.77804934 L1.76659142,8.77804934 C1.70835214,8.77804934 1.65011287,8.71939867 1.65011287,8.66074801 C1.65011287,8.60209734 1.70835214,8.54344668 1.76659142,8.54344668 C1.8248307,8.54344668 1.88306998,8.60209734 1.88306998,8.66074801 C1.88306998,8.73894889 1.8248307,8.77804934 1.76659142,8.77804934 Z" id="Path"></path>
                                        <path d="M20.7525959,8.77804934 L13.2979684,8.77804934 C13.2397291,8.77804934 13.1814898,8.71939867 13.1814898,8.66074801 C13.1814898,8.60209734 13.2397291,8.54344668 13.2979684,8.54344668 L20.7525959,8.54344668 C20.8108352,8.54344668 20.8690745,8.60209734 20.8690745,8.66074801 C20.8690745,8.73894889 20.8108352,8.77804934 20.7525959,8.77804934 Z" id="Path"></path>
                                        <path d="M49.4063205,12.5316918 L29.4496614,12.5316918 C29.3914221,12.5316918 29.3331828,12.4730412 29.3331828,12.4143905 C29.3331828,12.3557398 29.3914221,12.2970892 29.4496614,12.2970892 L49.4063205,12.2970892 C49.4645598,12.2970892 49.5227991,12.3557398 49.5227991,12.4143905 C49.5227991,12.4730412 49.4645598,12.5316918 49.4063205,12.5316918 Z" id="Path"></path>
                                        <path d="M21.8009029,12.5316918 L8.93002257,12.5316918 C8.8717833,12.5316918 8.81354402,12.4730412 8.81354402,12.4143905 C8.81354402,12.3557398 8.8717833,12.2970892 8.93002257,12.2970892 L21.8009029,12.2970892 C21.8591422,12.2970892 21.9173815,12.3557398 21.9173815,12.4143905 C21.9173815,12.4730412 21.8591422,12.5316918 21.8009029,12.5316918 Z" id="Path"></path>
                                        <path d="M45.931377,16.2657841 L26.8094808,16.2657841 C26.7512415,16.2657841 26.6930023,16.2071334 26.6930023,16.1484827 C26.6930023,16.0898321 26.7512415,16.0311814 26.8094808,16.0311814 L49.5422122,16.0311814 C49.8334086,16.0311814 50.1051919,16.0116312 50.3963883,16.0116312 C50.4546275,16.0116312 50.5128668,16.0507316 50.5128668,16.1289325 C50.5128668,16.1875832 50.4740406,16.2462338 50.3963883,16.2462338 C50.1051919,16.2462338 49.8334086,16.2657841 49.5422122,16.2657841 L49.1927765,16.2657841 L45.931377,16.2657841 Z" id="Path"></path>
                                        <path d="M22.868623,16.2657841 L5.41625282,16.2657841 C5.35801354,16.2657841 5.29977427,16.2071334 5.29977427,16.1484827 C5.29977427,16.0898321 5.35801354,16.0311814 5.41625282,16.0311814 L22.868623,16.0311814 C22.9268623,16.0311814 22.9851016,16.0898321 22.9851016,16.1484827 C22.9851016,16.2071334 22.9268623,16.2657841 22.868623,16.2657841 Z" id="Path"></path>
                                        <path d="M45.931377,19.9998763 L24.1887133,19.9998763 C24.130474,19.9998763 24.0722348,19.9412257 24.0722348,19.882575 C24.0722348,19.8239243 24.130474,19.7652737 24.1887133,19.7652737 L49.5810384,19.7652737 C50.1828442,19.7457235 50.8040632,19.7457235 51.4058691,19.7261732 C51.4641084,19.7261732 51.5223476,19.7848239 51.5223476,19.8434746 C51.5223476,19.9021252 51.4835214,19.9607759 51.4058691,19.9607759 C50.8040632,19.9607759 50.1828442,19.9803261 49.5810384,19.9998763 L49.5422122,19.9998763 L45.931377,19.9998763 Z" id="Path"></path>
                                        <path d="M23.91693,19.9998763 L2.46546275,19.9998763 C2.40722348,19.9998763 2.3489842,19.9412257 2.3489842,19.882575 C2.3489842,19.8239243 2.40722348,19.7652737 2.46546275,19.7652737 L23.91693,19.7652737 C23.9751693,19.7652737 24.0334086,19.8239243 24.0334086,19.882575 C24.0334086,19.9607759 23.9945824,19.9998763 23.91693,19.9998763 Z" id="Path"></path>
                                        <path d="M49.5616253,23.7339686 L49.3674944,23.7339686 C49.3092551,23.7339686 49.2510158,23.6753179 49.2510158,23.6166673 C49.2510158,23.5580166 49.3092551,23.4993659 49.3674944,23.4993659 L52.434763,23.4993659 L52.434763,23.4993659 C52.4930023,23.4993659 52.5512415,23.5580166 52.5512415,23.6166673 C52.5512415,23.6753179 52.4930023,23.7339686 52.434763,23.7339686 L49.5616253,23.7339686 Z" id="Path"></path>
                                        <path d="M47.3679458,23.7339686 L0.194130926,23.7339686 C0.135891648,23.7339686 0.0776523702,23.6753179 0.0776523702,23.6166673 C0.0776523702,23.5580166 0.135891648,23.4993659 0.194130926,23.4993659 L47.3679458,23.4993659 C47.4261851,23.4993659 47.4844244,23.5580166 47.4844244,23.6166673 C47.4844244,23.6753179 47.4261851,23.7339686 47.3679458,23.7339686 Z" id="Path"></path>
                                        <path d="M16.986456,27.4876111 L1.18419865,27.4876111 C1.12595937,27.4876111 1.06772009,27.4289604 1.06772009,27.3703097 C1.06772009,27.3116591 1.12595937,27.2530084 1.18419865,27.2530084 L16.986456,27.2530084 C17.0446953,27.2530084 17.1029345,27.3116591 17.1029345,27.3703097 C17.1029345,27.4289604 17.0446953,27.4876111 16.986456,27.4876111 Z" id="Path"></path>
                                        <path d="M22.7327314,27.5071613 C22.7327314,27.5071613 22.7327314,27.5071613 22.7327314,27.5071613 C22.3056433,27.5071613 21.8785553,27.4876111 21.4514673,27.4876111 C21.1408578,27.4876111 20.8108352,27.4876111 20.5002257,27.4876111 L19.4130926,27.4876111 C19.3548533,27.4876111 19.296614,27.4289604 19.296614,27.3703097 C19.296614,27.3116591 19.3548533,27.2530084 19.4130926,27.2530084 L20.5002257,27.2530084 C20.8108352,27.2530084 21.1408578,27.2530084 21.4514673,27.2530084 C21.8785553,27.2530084 22.3056433,27.2530084 22.7327314,27.2725586 C22.7909707,27.2725586 22.8492099,27.3312093 22.8492099,27.38986 C22.8492099,27.4485106 22.7909707,27.5071613 22.7327314,27.5071613 Z" id="Path"></path>
                                        <path d="M42.3011287,27.4876111 L28.0713318,27.4876111 C28.0130926,27.4876111 27.9548533,27.4289604 27.9548533,27.3703097 C27.9548533,27.3116591 28.0130926,27.2530084 28.0713318,27.2530084 L45.931377,27.2530084 L47.3873589,27.2334582 C47.3873589,27.2334582 47.3873589,27.2334582 47.3873589,27.2334582 C47.4455982,27.2334582 47.5038375,27.2921088 47.5038375,27.3507595 C47.5038375,27.4094102 47.4650113,27.4680608 47.3873589,27.4680608 L45.931377,27.4876111 L42.3011287,27.4876111 Z" id="Path"></path>
                                        <path d="M23.6063205,31.2217033 L23.6063205,31.2217033 C22.5774266,31.2217033 21.5485327,31.2217033 20.5002257,31.2217033 L20.1702032,31.2217033 C20.1119639,31.2217033 20.0537246,31.1630527 20.0537246,31.104402 C20.0537246,31.0457513 20.1119639,30.9871007 20.1702032,30.9871007 L20.5002257,30.9871007 C21.5291196,30.9871007 22.5580135,30.9871007 23.5869074,30.9871007 C23.6451467,30.9871007 23.703386,31.0457513 23.703386,31.104402 C23.7227991,31.1826029 23.6645598,31.2217033 23.6063205,31.2217033 Z" id="Path"></path>
                                        <path d="M16.5399549,31.2217033 L2.21309255,31.2217033 C2.15485327,31.2217033 2.096614,31.1630527 2.096614,31.104402 C2.096614,31.0457513 2.15485327,30.9871007 2.21309255,30.9871007 L16.5399549,30.9871007 C16.5981941,30.9871007 16.6564334,31.0457513 16.6564334,31.104402 C16.6370203,31.1630527 16.5981941,31.2217033 16.5399549,31.2217033 Z" id="Path"></path>
                                        <path d="M39.0009029,31.2217033 L32.4392777,31.2217033 C32.3810384,31.2217033 32.3227991,31.1630527 32.3227991,31.104402 C32.3227991,31.0457513 32.3810384,30.9871007 32.4392777,30.9871007 L39.0009029,30.9871007 C39.0591422,30.9871007 39.1173815,31.0457513 39.1173815,31.104402 C39.1173815,31.1630527 39.0591422,31.2217033 39.0009029,31.2217033 Z" id="Path"></path>
                                        <path d="M16.8893905,34.9557956 L3.22257336,34.9557956 C3.16433409,34.9557956 3.10609481,34.8971449 3.10609481,34.8384942 C3.10609481,34.7798436 3.16433409,34.7211929 3.22257336,34.7211929 L20.5196388,34.7211929 L24.9846501,34.6625423 C25.0428894,34.6625423 25.1011287,34.7211929 25.1011287,34.7798436 C25.1011287,34.8384942 25.0623025,34.8971449 24.9846501,34.8971449 L20.5196388,34.9557956 L16.8893905,34.9557956 Z" id="Path"></path>
                                        <path d="M12.9485327,38.7094381 L4.23205418,38.7094381 C4.1738149,38.7094381 4.11557562,38.6507874 4.11557562,38.5921367 C4.11557562,38.5334861 4.1738149,38.4748354 4.23205418,38.4748354 L12.9485327,38.4748354 C13.006772,38.4748354 13.0650113,38.5334861 13.0650113,38.5921367 C13.0650113,38.6507874 13.006772,38.7094381 12.9485327,38.7094381 Z" id="Path"></path>
                                        <path d="M2.36839729,31.8668606 C2.31015801,31.8668606 2.25191874,31.80821 2.25191874,31.7495593 L2.25191874,20.0194265 C2.25191874,19.9607759 2.31015801,19.9021252 2.36839729,19.9021252 C2.42663657,19.9021252 2.48487585,19.9607759 2.48487585,20.0194265 L2.48487585,31.7495593 C2.48487585,31.80821 2.42663657,31.8668606 2.36839729,31.8668606 Z" id="Path"></path>
                                        <path d="M5.9986456,40.7035606 C5.94040632,40.7035606 5.88216704,40.64491 5.88216704,40.5862593 L5.88216704,15.4837752 C5.88216704,15.4251246 5.94040632,15.3664739 5.9986456,15.3664739 C6.05688488,15.3664739 6.11512415,15.4251246 6.11512415,15.4837752 L6.11512415,40.5862593 C6.11512415,40.64491 6.05688488,40.7035606 5.9986456,40.7035606 Z" id="Path"></path>
                                        <path d="M9.62889391,39.6478487 C9.57065463,39.6478487 9.51241535,39.589198 9.51241535,39.5305473 L9.51241535,11.749683 C9.51241535,11.6910323 9.57065463,11.6323816 9.62889391,11.6323816 C9.68713318,11.6323816 9.74537246,11.6910323 9.74537246,11.749683 L9.74537246,39.5305473 C9.74537246,39.6087482 9.68713318,39.6478487 9.62889391,39.6478487 Z" id="Path"></path>
                                        <path d="M13.2591422,38.6116869 C13.2009029,38.6116869 13.1426637,38.5530363 13.1426637,38.4943856 L13.1426637,8.69984845 C13.1426637,8.64119779 13.2009029,8.58254712 13.2591422,8.58254712 C13.3173815,8.58254712 13.3756208,8.64119779 13.3756208,8.69984845 L13.3756208,38.4943856 C13.3756208,38.5530363 13.3173815,38.6116869 13.2591422,38.6116869 Z" id="Path"></path>
                                        <path d="M16.9088036,37.555975 C16.8505643,37.555975 16.7923251,37.4973243 16.7923251,37.4386737 L16.7534989,34.8384942 L16.7534989,32.8443717 C16.7534989,32.785721 16.8117381,32.7270704 16.8699774,32.7270704 C16.9282167,32.7270704 16.986456,32.785721 16.986456,32.8443717 L16.986456,34.8384942 L17.0252822,37.4386737 C17.0252822,37.5168746 16.986456,37.555975 16.9088036,37.555975 C16.9282167,37.555975 16.9282167,37.555975 16.9088036,37.555975 Z" id="Path"></path>
                                        <path d="M16.8893905,27.5071613 C16.8311512,27.5071613 16.772912,27.4485106 16.772912,27.38986 L16.772912,6.19742013 C16.772912,6.13876947 16.8311512,6.08011881 16.8893905,6.08011881 C16.9476298,6.08011881 17.0058691,6.13876947 17.0058691,6.19742013 L17.0058691,27.38986 C16.986456,27.4680608 16.9476298,27.5071613 16.8893905,27.5071613 Z" id="Path"></path>
                                        <path d="M16.8893905,31.0653015 C16.8311512,31.0653015 16.772912,31.0066509 16.772912,30.9480002 L16.772912,29.3644323 C16.772912,29.3057816 16.8311512,29.247131 16.8893905,29.247131 C16.9476298,29.247131 17.0058691,29.3057816 17.0058691,29.3644323 L17.0058691,30.9480002 C16.986456,31.0066509 16.9476298,31.0653015 16.8893905,31.0653015 Z" id="Path"></path>
                                        <path d="M20.5002257,31.280354 C20.4419865,31.280354 20.3837472,31.2217033 20.3837472,31.1630527 L20.3837472,30.7915985 C20.3837472,30.7329478 20.4419865,30.6742971 20.5002257,30.6742971 C20.558465,30.6742971 20.6167043,30.7329478 20.6167043,30.7915985 L20.6167043,31.1630527 C20.6167043,31.2217033 20.5778781,31.280354 20.5002257,31.280354 Z" id="Path"></path>
                                        <path d="M20.5002257,34.5647911 C20.4419865,34.5647911 20.3837472,34.5061405 20.3837472,34.4474898 L20.3837472,33.7045814 C20.3837472,33.6459308 20.4419865,33.5872801 20.5002257,33.5872801 C20.558465,33.5872801 20.6167043,33.6459308 20.6167043,33.7045814 L20.6167043,34.4474898 C20.6167043,34.5061405 20.5778781,34.5647911 20.5002257,34.5647911 Z" id="Path"></path>
                                        <path d="M20.5002257,24.2618246 C20.4419865,24.2618246 20.3837472,24.2031739 20.3837472,24.1445232 L20.3837472,7.8200885 C20.3837472,7.76143783 20.4419865,7.70278717 20.5002257,7.70278717 C20.558465,7.70278717 20.6167043,7.76143783 20.6167043,7.8200885 L20.6167043,24.1445232 C20.6167043,24.2031739 20.5778781,24.2618246 20.5002257,24.2618246 Z" id="Path"></path>
                                        <path d="M20.5002257,31.2217033 C20.4419865,31.2217033 20.3837472,31.1630527 20.3837472,31.104402 L20.3837472,30.1268909 C20.3837472,30.0682403 20.4419865,30.0095896 20.5002257,30.0095896 C20.558465,30.0095896 20.6167043,30.0682403 20.6167043,30.1268909 L20.6167043,31.104402 C20.6167043,31.1630527 20.5778781,31.2217033 20.5002257,31.2217033 Z" id="Path"></path>
                                        <path d="M20.5002257,27.6635631 C20.4419865,27.6635631 20.3837472,27.6049124 20.3837472,27.5462617 L20.3837472,26.4318991 C20.3837472,26.3732485 20.4419865,26.3145978 20.5002257,26.3145978 C20.558465,26.3145978 20.6167043,26.3732485 20.6167043,26.4318991 L20.6167043,27.5462617 C20.6167043,27.6049124 20.5778781,27.6635631 20.5002257,27.6635631 Z" id="Path"></path>
                                        <path d="M20.5002257,35.522752 C20.4419865,35.522752 20.3837472,35.4641013 20.3837472,35.4054507 L20.3837472,34.3106383 C20.3837472,34.2519876 20.4419865,34.1933369 20.5002257,34.1933369 C20.558465,34.1933369 20.6167043,34.2519876 20.6167043,34.3106383 L20.6167043,35.4054507 C20.6167043,35.4641013 20.5778781,35.522752 20.5002257,35.522752 Z" id="Path"></path>
                                        <path d="M24.130474,25.5325889 C24.0722348,25.5325889 24.0139955,25.4739383 24.0139955,25.4152876 L24.0139955,19.9607759 C24.0139955,19.9021252 24.0722348,19.8434746 24.130474,19.8434746 C24.1887133,19.8434746 24.2469526,19.9021252 24.2469526,19.9607759 L24.2469526,25.4152876 C24.2469526,25.4739383 24.1887133,25.5325889 24.130474,25.5325889 Z" id="Path"></path>
                                        <path d="M24.130474,28.543323 C24.0722348,28.543323 24.0139955,28.4846723 24.0139955,28.4260217 L24.0139955,28.2696199 C24.0139955,28.2109692 24.0722348,28.1523186 24.130474,28.1523186 C24.1887133,28.1523186 24.2469526,28.2109692 24.2469526,28.2696199 L24.2469526,28.4260217 C24.2469526,28.5042226 24.1887133,28.543323 24.130474,28.543323 Z" id="Path"></path>
                                        <path d="M24.0916479,35.0730969 C24.0334086,35.0730969 23.9751693,35.0144462 23.9751693,34.9557956 L23.9751693,34.7993938 C23.9751693,34.7016427 23.9751693,34.6038916 23.9751693,34.5061405 C23.9751693,34.4474898 24.0334086,34.3888392 24.0916479,34.3888392 C24.0916479,34.3888392 24.0916479,34.3888392 24.0916479,34.3888392 C24.1498871,34.3888392 24.2081264,34.4474898 24.2081264,34.5061405 C24.2081264,34.6038916 24.2081264,34.7016427 24.2081264,34.7993938 L24.2081264,34.9557956 C24.2081264,35.0144462 24.1693002,35.0730969 24.0916479,35.0730969 Z" id="Path"></path>
                                        <path d="M24.1110609,32.1014633 C24.0528217,32.1014633 23.9945824,32.0428126 23.9945824,31.9841619 C23.9945824,31.7691095 23.9945824,31.5540571 23.9945824,31.3194544 C23.9945824,31.2608038 24.0528217,31.2021531 24.1110609,31.2021531 C24.1110609,31.2021531 24.1110609,31.2021531 24.1110609,31.2021531 C24.1693002,31.2021531 24.2275395,31.2608038 24.2275395,31.3194544 C24.2275395,31.5345069 24.2275395,31.7691095 24.2275395,31.9841619 C24.2275395,32.0428126 24.1693002,32.1014633 24.1110609,32.1014633 Z" id="Path"></path>
                                        <path d="M27.7607223,27.3116591 C27.7024831,27.3116591 27.6442438,27.2530084 27.6442438,27.1943577 L27.6442438,14.7995175 C27.6442438,14.7408668 27.7024831,14.6822162 27.7607223,14.6822162 C27.8189616,14.6822162 27.8772009,14.7408668 27.8772009,14.7995175 L27.8772009,27.1943577 C27.8772009,27.2725586 27.8189616,27.3116591 27.7607223,27.3116591 Z" id="Path"></path>
                                        <path d="M31.3909707,30.1855416 C31.3327314,30.1855416 31.2744921,30.1268909 31.2744921,30.0682403 L31.2744921,9.63825907 C31.2744921,9.57960841 31.3327314,9.52095774 31.3909707,9.52095774 C31.4492099,9.52095774 31.5074492,9.57960841 31.5074492,9.63825907 L31.5074492,30.0682403 C31.5074492,30.1464411 31.4492099,30.1855416 31.3909707,30.1855416 Z" id="Path"></path>
                                        <path d="M35.021219,31.9059611 C34.9629797,31.9059611 34.9047404,31.8473104 34.9047404,31.7886597 L34.9047404,4.49655088 C34.9047404,4.43790022 34.9629797,4.37924956 35.021219,4.37924956 C35.0794582,4.37924956 35.1376975,4.43790022 35.1376975,4.49655088 L35.1376975,31.7886597 C35.1182844,31.8473104 35.0794582,31.9059611 35.021219,31.9059611 Z" id="Path"></path>
                                        <path d="M38.6708804,31.3194544 C38.6126411,31.3194544 38.5544018,31.2608038 38.5544018,31.2021531 L38.5544018,0.215052434 C38.5544018,0.15640177 38.6126411,0.0977511062 38.6708804,0.0977511062 C38.7291196,0.0977511062 38.7873589,0.15640177 38.7873589,0.215052434 L38.7873589,31.2021531 C38.7873589,31.2608038 38.7291196,31.3194544 38.6708804,31.3194544 Z" id="Path"></path>
                                        <path d="M42.3011287,30.2832927 C42.2428894,30.2832927 42.1846501,30.224642 42.1846501,30.1659914 L42.1846501,0.371454204 C42.1846501,0.31280354 42.2428894,0.254152876 42.3011287,0.254152876 C42.3593679,0.254152876 42.4176072,0.31280354 42.4176072,0.371454204 L42.4176072,30.1464411 C42.4176072,30.224642 42.3593679,30.2832927 42.3011287,30.2832927 Z" id="Path"></path>
                                        <path d="M45.931377,29.2275808 C45.8731377,29.2275808 45.8148984,29.1689301 45.8148984,29.1102794 L45.8148984,0.821109292 C45.8148984,0.762458628 45.8731377,0.703807965 45.931377,0.703807965 C45.9896163,0.703807965 46.0478555,0.762458628 46.0478555,0.821109292 L46.0478555,29.1298296 C46.0284424,29.1884803 45.9896163,29.2275808 45.931377,29.2275808 Z" id="Path"></path>
                                        <path d="M49.5422122,24.0272219 C49.4839729,24.0272219 49.4257336,23.9685712 49.4257336,23.9099206 L49.4257336,12.9617967 C49.4257336,12.903146 49.4839729,12.8444954 49.5422122,12.8444954 C49.6004515,12.8444954 49.6586907,12.903146 49.6586907,12.9617967 L49.6586907,23.9099206 C49.6586907,23.9685712 49.6198646,24.0272219 49.5422122,24.0272219 Z" id="Path"></path>
                                    </g>
                                    <path d="M37.1954853,1.50536704 C37.1760722,1.50536704 37.1566591,1.50536704 37.137246,1.48581681 C37.0790068,1.44671637 37.0790068,1.38806571 37.0984199,1.32941504 C37.137246,1.25121416 37.137246,1.25121416 38.6708804,1.25121416 C39.6221219,1.25121416 40.9422122,1.25121416 42.3011287,1.25121416 C43.3688488,1.25121416 44.4559819,1.25121416 45.4266366,1.27076438 L45.9702032,1.27076438 C46.1255079,1.27076438 46.2808126,1.27076438 46.4361174,1.27076438 C46.4943567,1.27076438 46.5525959,1.32941504 46.5525959,1.38806571 C46.5525959,1.44671637 46.4943567,1.50536704 46.4361174,1.50536704 C46.2808126,1.50536704 46.1255079,1.50536704 45.9702032,1.50536704 L45.4266366,1.50536704 C44.4559819,1.50536704 43.3688488,1.50536704 42.3011287,1.48581681 C40.9422122,1.48581681 39.6221219,1.48581681 38.6708804,1.48581681 C37.5255079,1.48581681 37.2731377,1.50536704 37.2343115,1.50536704 C37.2148984,1.50536704 37.2148984,1.50536704 37.1954853,1.50536704 Z" id="Path"></path>
                                </g>
                                <ellipse id="Oval" cx="37.3119639" cy="48.6214002" rx="1" ry="1"></ellipse>
                                <ellipse id="Oval" cx="35.8948081" cy="60.4883845" rx="1" ry="1"></ellipse>
                                <ellipse id="Oval" cx="34.3223476" cy="72.6486221" rx="1" ry="1"></ellipse>
                                <ellipse id="Oval" cx="32.5557562" cy="85.0434624" rx="1" ry="1"></ellipse>
                                <path d="M14.7345372,28.4846723 C14.7151242,28.4846723 14.7151242,28.4846723 14.7345372,28.4846723 L4.01851016,26.9402049 C3.96027088,26.9402049 3.9214447,26.8815542 3.9214447,26.8033533 C3.9214447,26.7447027 3.97968397,26.7056022 4.03792325,26.7056022 L14.7345372,28.2500697 C14.7927765,28.2500697 14.8316027,28.3087204 14.8316027,28.3869212 C14.8316027,28.4455719 14.7733634,28.4846723 14.7345372,28.4846723 Z" id="Path"></path>
                                <path d="M59.2681716,57.5949518 C59.2099323,57.5949518 59.151693,57.5363011 59.151693,57.4776504 L58.8022573,43.1668885 C58.8022573,43.1082378 58.8410835,43.0495872 58.9187359,43.0495872 C58.9769752,43.0495872 59.0352144,43.0886876 59.0352144,43.1668885 L59.3846501,57.4776504 C59.3846501,57.5363011 59.3264108,57.5949518 59.2681716,57.5949518 C59.2681716,57.5949518 59.2681716,57.5949518 59.2681716,57.5949518 Z" id="Path"></path>
                                <path d="M13.5697517,62.1697035 C12.4049661,62.9712626 11.4343115,63.4991186 10.7548533,63.7728217 C8.93002257,64.4961799 7.33814898,64.417979 7.33814898,64.417979 C6.15395034,64.417979 5.45507901,64.1247257 5.16388262,63.9878741 C2.38781038,63.1667648 1.22302483,58.4942619 0.679458239,54.6428684 C4.9503386,55.1902746 10.0948081,57.0279954 13.5697517,62.1697035 Z" id="Path"></path>
                                <path d="M84.8934537,46.4708759 C84.0975169,48.4845487 82.8939052,50.1267673 81.4961625,51.4757325 C81.0884876,51.8667369 80.6613995,52.2381911 80.2343115,52.5705449 C78.4288939,48.8169024 78.3124153,44.535404 80.0401806,40.9577135 C81.379684,38.1620319 83.5151242,36.5198133 85.0875847,35.6009529 C85.1264108,35.7378044 85.1458239,35.8942062 85.165237,36.0310577 C85.2040632,36.2070097 85.2234763,36.3634115 85.2623025,36.5198133 C85.786456,39.5696478 86.3106095,42.854085 84.8934537,46.4708759 Z" id="Path"></path>
                            </g>
                        </g>
                    </g>
                </g>
                <rect id="Black-border-rectangle" stroke="#000000" stroke-width="5" x="2.5" y="22.5" width="141" height="101"></rect>
            </g>
        </g>
    </g>
</svg>