<?xml version="1.0" encoding="UTF-8"?>
<svg width="146px" height="146px" viewBox="0 0 146 146" version="1.1" xmlns="http://www.w3.org/2000/svg" xmlns:xlink="http://www.w3.org/1999/xlink">
    <title>Image Container</title>
    <g id="No-Ads" stroke="none" stroke-width="1" fill="none" fill-rule="evenodd">
        <g id="Home_2b" transform="translate(-913.000000, -1910.000000)">
            <g id="Image-Container" transform="translate(913.000000, 1910.000000)">
                <rect id="Black-fill" fill="#333333" x="2" y="23" width="142" height="101"></rect>
                <g id="Picture" transform="translate(28.000000, 25.000000)">
                    <rect id="Woman-background" fill="#E4F0FF" x="0" y="0" width="90" height="96"></rect>
                    <g id="Woman-image" transform="translate(17.000000, 4.000000)" fill-rule="nonzero">
                        <g id="general_3_">
                            <g id="picture_2_" transform="translate(2.058691, 0.000000)">
                                <path d="M32.2699774,4.35636856 C32.1541761,3.91815397 31.7167043,3.67326935 31.2920993,3.78926733 L19.8020316,7.07587674 L12.9440181,9.02206506 L0.681941309,12.5277818 C0.257336343,12.6437797 0.0128668172,13.094883 0.128668172,13.5330976 L4.47765237,29.5537074 C4.47765237,29.5537074 4.77358916,27.8266264 5.51986456,27.8524037 C6.26613995,27.878181 6.33047404,29.72126 6.33047404,29.72126 L6.27900677,29.798592 C7.65575621,27.916847 9.39277652,25.7644401 9.99751693,25.9706587 C10.2162528,26.035102 10.3191874,26.189766 10.3191874,26.189766 C10.344921,26.228432 10.3577878,26.267098 10.3706546,26.305764 L10.3706546,26.305764 C10.9239278,24.1018024 11.9790068,21.4725148 14.1406321,20.6734177 C14.9126411,20.389867 15.0670429,20.7507496 15.7875847,20.351201 C17.5374718,19.3716626 17.4860045,16.3686038 20.8185102,14.0744215 C24.9487585,11.2260267 27.7537246,14.9250733 27.7537246,14.9250733 C27.7537246,14.9250733 28.5386005,14.6673001 29.5293454,14.6673001 C30.6487585,14.6673001 32.0126411,15.0024053 32.7460497,16.4459357 C33.6724605,18.2761261 34.9462754,18.4179014 36.1428894,18.585454 L32.2699774,4.35636856 Z M12.0690745,35.5082703 C11.9146727,35.6242683 11.7602709,35.7402663 11.6058691,35.8562643 C11.7602709,35.7402663 11.9146727,35.6113797 12.0690745,35.5082703 Z M10.83386,45.2907666 L10.8981941,45.200546 L10.83386,45.200546 L10.83386,45.2907666 Z M10.4221219,37.8668959 C10.4221219,37.8540073 10.4349887,37.8282299 10.4349887,37.8153413 C10.4349887,37.8024526 10.4349887,37.8024526 10.4478555,37.7895639 C10.4478555,37.8024526 10.4478555,37.8024526 10.4349887,37.8153413 C10.4349887,37.8282299 10.4221219,37.8411186 10.4221219,37.8668959 Z M10.3063205,26.8857539 C10.2162528,27.1693045 10.0489842,27.4528551 9.93318284,27.6461851 C10.0747178,27.4528551 10.2291196,27.2208592 10.3063205,26.8857539 Z M7.01241535,31.950999 C8.27336343,30.2368066 8.71083521,29.682594 9.28984199,28.7803875 C9.6758465,28.1746203 9.66297968,28.1359543 9.7530474,27.9684017 C9.45711061,28.4452823 9.09683973,28.9994948 8.72370203,29.5408187 C8.08036117,30.4688026 7.4241535,31.3838977 7.01241535,31.950999 Z M10.83386,45.200546 L10.83386,45.2907666 L10.8981941,45.200546 L10.83386,45.200546 Z" id="Shape" fill="#52A0FF"></path>
                                <path d="M44.2103837,49.8920198 C44.120316,49.9951291 43.9916479,50.0724611 43.8629797,50.1111271 L43.6442438,50.1755704 L42.8465011,50.3946777 L42.1130926,50.6008963 L42.0744921,50.613785 L40.672009,51.0133336 L40.4404063,51.0777769 L39.7069977,51.2839955 L38.0343115,51.7608761 L37.3009029,51.9670947 L35.962754,52.3537547 L35.6282167,52.4439753 L35.113544,52.5857506 L34.8948081,52.650194 L33.2092551,53.1270745 L33.0419865,53.1786292 C32.6173815,51.8253194 31.7553047,49.2991412 31.0733634,49.5053599 C30.1598194,49.7631331 31.0218962,52.8306353 31.0218962,52.8306353 L31.7424379,53.5524005 C31.4336343,53.2559612 31.1248307,52.9466332 30.8160271,52.650194 C30.7130926,52.5470846 30.610158,52.4439753 30.5072235,52.340866 C29.8896163,51.7350988 29.2591422,51.1293316 28.641535,50.5235643 C28.6029345,50.5106757 28.5772009,50.4848983 28.5386005,50.459121 C28.5128668,50.4462324 28.4871332,50.4333437 28.4613995,50.420455 C28.3069977,50.3302344 28.1139955,50.2271251 27.8952596,50.1111271 C27.8952596,50.1111271 27.8952596,50.1111271 27.8952596,50.1111271 C27.8437923,50.0853497 27.8051919,50.0595724 27.7408578,50.0337951 C27.727991,50.0209064 27.7022573,50.0080178 27.6893905,50.0080178 C27.6765237,50.0080178 27.6765237,49.9951291 27.6636569,49.9951291 C27.6250564,49.9693518 27.5735892,49.9435744 27.5221219,49.9177971 C27.4835214,49.9049084 27.444921,49.8791311 27.4191874,49.8662425 C27.3291196,49.8146878 27.2390519,49.7760218 27.1361174,49.7244671 C27.0975169,49.6986898 27.0589165,49.6858012 27.020316,49.6600238 C26.9431151,49.6213578 26.8659142,49.5826918 26.7758465,49.5440258 C26.7501129,49.5311372 26.7115124,49.5182485 26.6857788,49.4924712 C26.531377,49.4151392 26.3769752,49.3378072 26.2097065,49.2604752 C26.1711061,49.2475866 26.1453725,49.2346979 26.106772,49.2089206 C25.8365688,49.0800339 25.5534989,48.9511473 25.2704289,48.8222606 C25.2189616,48.7964833 25.1674944,48.770706 25.1031603,48.7449287 C25.051693,48.7191513 25.0130926,48.7062627 24.9744921,48.6804853 C24.7557562,48.5902647 24.5370203,48.500044 24.3311512,48.422712 C24.279684,48.3969347 24.2282167,48.3840461 24.1767494,48.3711574 C24.1252822,48.3582687 24.0738149,48.3324914 24.0223476,48.3196027 C23.9065463,48.2809367 23.8036117,48.2422707 23.7006772,48.2036048 C23.6620767,48.1907161 23.6363431,48.1778274 23.5977427,48.1649388 C23.572009,48.1520501 23.5462754,48.1520501 23.5205418,48.1391614 C23.4433409,48.1133841 23.3532731,48.0876068 23.2760722,48.0747181 C23.2503386,48.0618294 23.224605,48.0618294 23.1988713,48.0489408 C23.1731377,48.0489408 23.1474041,48.0360521 23.1345372,48.0360521 C23.1088036,48.0360521 23.08307,48.0231635 23.0702032,48.0231635 C23.0444695,48.0231635 23.0187359,48.0102748 22.9930023,48.0102748 C22.9544018,47.9973861 22.9029345,47.9973861 22.8643341,47.9844975 C22.8386005,47.9844975 22.8128668,47.9716088 22.7871332,47.9716088 C22.7871332,47.9716088 22.7742664,47.9716088 22.7742664,47.9716088 C22.6970655,47.9587201 22.6327314,47.9587201 22.5555305,47.9458315 C22.4783296,47.9458315 22.4011287,47.9458315 22.3239278,47.9458315 C22.3110609,47.9458315 22.2981941,47.9458315 22.2724605,47.9458315 C22.2595937,47.9458315 22.23386,47.9458315 22.2209932,47.9587201 C22.2081264,47.9587201 22.1952596,47.9587201 22.1823928,47.9716088 C22.169526,47.9716088 22.1566591,47.9716088 22.1437923,47.9844975 C22.1309255,47.9844975 22.1180587,47.9973861 22.1051919,47.9973861 C22.0923251,47.9973861 22.0923251,47.9973861 22.0794582,48.0102748 C22.0665914,48.0102748 22.0665914,48.0231635 22.0537246,48.0231635 C22.0408578,48.0231635 22.027991,48.0360521 22.0151242,48.0489408 C22.0022573,48.0489408 22.0022573,48.0618294 21.9893905,48.0618294 C21.9765237,48.0618294 21.9765237,48.0747181 21.9636569,48.0747181 C21.9507901,48.0747181 21.9507901,48.0876068 21.9507901,48.0876068 C21.9379233,48.1004954 21.9250564,48.1133841 21.9121896,48.1262728 C21.7706546,48.3067141 21.8349887,48.6031533 21.8478555,48.654708 C21.8478555,48.654708 21.8478555,48.654708 21.8478555,48.6675967 C21.8478555,48.6804853 21.8607223,48.7062627 21.8607223,48.7191513 C21.8607223,48.73204 21.8735892,48.7449287 21.8735892,48.7578173 C21.8735892,48.7578173 21.8735892,48.770706 21.886456,48.7835946 C21.886456,48.7964833 21.8993228,48.809372 21.8993228,48.8222606 C21.8993228,48.8351493 21.9121896,48.848038 21.9250564,48.8609266 C21.9379233,48.8738153 21.9507901,48.886704 21.9636569,48.9124813 C21.9636569,48.92537 21.9765237,48.92537 21.9765237,48.9382586 C21.9765237,48.9511473 21.9893905,48.9511473 21.9893905,48.9640359 C22.0022573,48.9769246 22.0151242,48.9898133 22.027991,49.0155906 C22.0408578,49.0284793 22.0537246,49.0413679 22.0665914,49.0542566 C22.0665914,49.0542566 22.0665914,49.0542566 22.0665914,49.0542566 C22.0794582,49.0671453 22.0923251,49.0800339 22.1051919,49.0929226 C22.1051919,49.0929226 22.1180587,49.1058113 22.1180587,49.1058113 C22.1309255,49.1186999 22.1566591,49.1315886 22.169526,49.1444773 C22.1952596,49.1573659 22.2209932,49.1831432 22.2467269,49.1960319 C22.2853273,49.2218092 22.3110609,49.2475866 22.3496614,49.2604752 C22.3882619,49.2862526 22.4139955,49.2991412 22.4525959,49.3249186 C22.4525959,49.3249186 22.4525959,49.3249186 22.4654628,49.3249186 C22.5040632,49.3506959 22.5297968,49.3635845 22.5683973,49.3764732 C22.6069977,49.3893619 22.6327314,49.4151392 22.6713318,49.4280279 C22.6841986,49.4409165 22.7099323,49.4409165 22.7356659,49.4538052 C22.7613995,49.4666939 22.8,49.4795825 22.8257336,49.4924712 C22.8772009,49.5182485 22.9158014,49.5311372 22.9544018,49.5440258 C22.9672686,49.5440258 22.9801354,49.5569145 22.9930023,49.5569145 C23.0058691,49.5569145 23.0316027,49.5698032 23.0444695,49.5698032 C23.0573363,49.5698032 23.0573363,49.5826918 23.0702032,49.5826918 C23.0702032,49.5826918 23.08307,49.5826918 23.08307,49.5826918 C23.08307,49.5826918 23.0959368,49.5826918 23.0959368,49.5826918 C23.0959368,49.5826918 23.0959368,49.5826918 23.0959368,49.5826918 C23.0959368,49.5826918 23.0959368,49.5826918 23.0959368,49.5826918 C23.2374718,49.6342465 23.3918736,49.6858012 23.5591422,49.7631331 C23.6234763,49.7889105 23.7006772,49.8275765 23.7650113,49.8533538 C24.279684,50.0853497 24.9358916,50.4462324 25.7722348,50.9875563 C25.5792325,50.9231129 25.3990971,50.8586696 25.2189616,50.7942263 C25.1031603,50.7555603 24.9744921,50.7168943 24.8586907,50.691117 C24.8200903,50.6782283 24.7943567,50.6782283 24.7557562,50.6653396 C24.6142212,50.6266737 24.4726862,50.5880077 24.3311512,50.5493417 C24.2668172,50.536453 24.2153499,50.5235643 24.1510158,50.5106757 C24.0094808,50.4720097 23.8679458,50.4462324 23.7392777,50.4075664 C23.7006772,50.3946777 23.6492099,50.3946777 23.6106095,50.381789 C23.5848758,50.381789 23.5591422,50.3689004 23.5334086,50.3689004 C23.4433409,50.3560117 23.3532731,50.3302344 23.2503386,50.304457 C23.1088036,50.2786797 22.9672686,50.2400137 22.8,50.2142364 C22.5683973,50.1755704 22.3239278,50.1369044 22.0794582,50.0982384 C22.0151242,50.0853497 21.9507901,50.0853497 21.8735892,50.0724611 C21.7835214,50.0595724 21.6934537,50.0466838 21.5905192,50.0466838 C21.5390519,50.0466838 21.4747178,50.0337951 21.4232506,50.0337951 C21.3717833,50.0337951 21.3331828,50.0337951 21.2817156,50.0337951 C21.2302483,50.0337951 21.178781,50.0337951 21.1273138,50.0337951 C21.114447,50.0337951 21.0887133,50.0337951 21.0758465,50.0337951 C21.0501129,50.0337951 21.037246,50.0337951 21.0115124,50.0337951 C20.9986456,50.0337951 20.972912,50.0337951 20.9471783,50.0337951 C20.9085779,50.0337951 20.8571106,50.0337951 20.8185102,50.0466838 C20.7799097,50.0466838 20.7541761,50.0466838 20.7155756,50.0595724 C20.689842,50.0595724 20.6641084,50.0595724 20.6512415,50.0724611 C20.6126411,50.0724611 20.5611738,50.0853497 20.5225734,50.0982384 C20.4968397,50.0982384 20.4711061,50.1111271 20.4453725,50.1111271 C20.4196388,50.1111271 20.3939052,50.1240157 20.3681716,50.1369044 C20.3424379,50.1369044 20.3295711,50.1497931 20.3167043,50.1626817 C20.3038375,50.1626817 20.3038375,50.1755704 20.2909707,50.1755704 C20.2781038,50.1755704 20.265237,50.1884591 20.2523702,50.1884591 C20.2395034,50.1884591 20.2395034,50.2013477 20.2266366,50.2013477 C20.2009029,50.2142364 20.1751693,50.2271251 20.1494357,50.2529024 L20.1365688,50.2657911 C20.123702,50.2657911 20.123702,50.2786797 20.1108352,50.2786797 C20.0979684,50.2786797 20.0979684,50.2915684 20.0851016,50.304457 C20.0851016,50.304457 20.0851016,50.304457 20.0851016,50.304457 C20.0722348,50.304457 20.0722348,50.3173457 20.0593679,50.3302344 C20.0593679,50.3302344 20.0465011,50.3302344 20.0465011,50.343123 C20.0336343,50.3560117 20.0207675,50.3689004 20.0079007,50.3946777 C19.9950339,50.4075664 19.982167,50.4333437 19.982167,50.4462324 C19.8534989,50.7040056 20.0079007,51.0262222 20.0336343,51.0648882 C20.0465011,51.0777769 20.0465011,51.0906656 20.0593679,51.1035542 C20.0722348,51.1164429 20.0722348,51.1293316 20.0851016,51.1422202 C20.0979684,51.1551089 20.1108352,51.1808862 20.123702,51.1937749 C20.1365688,51.2195522 20.1494357,51.2324409 20.1751693,51.2582182 C20.1751693,51.2582182 20.1751693,51.2582182 20.1751693,51.2582182 C20.1880361,51.2711069 20.1880361,51.2711069 20.2009029,51.2839955 C20.2266366,51.3097729 20.2523702,51.3355502 20.265237,51.3484389 C20.2781038,51.3613275 20.2909707,51.3742162 20.3038375,51.3871049 C20.3295711,51.4128822 20.3553047,51.4257708 20.3810384,51.4386595 C20.406772,51.4515482 20.4325056,51.4773255 20.4582393,51.4902142 C20.4582393,51.4902142 20.4582393,51.4902142 20.4711061,51.4902142 C20.4839729,51.4902142 20.4839729,51.5031028 20.4968397,51.5031028 C20.4968397,51.5031028 20.4968397,51.5031028 20.5097065,51.5031028 C20.5354402,51.5159915 20.5611738,51.5288802 20.5869074,51.5417688 C20.6126411,51.5546575 20.6383747,51.5675462 20.6641084,51.5804348 C20.6769752,51.5804348 20.689842,51.5933235 20.7027088,51.5933235 C20.7155756,51.6062121 20.7413093,51.6062121 20.7541761,51.6191008 C20.7670429,51.6319895 20.7927765,51.6319895 20.8056433,51.6448781 C20.8571106,51.6577668 20.9214447,51.6835441 20.972912,51.6964328 C20.9986456,51.6964328 21.0243792,51.7093215 21.037246,51.7093215 C21.0758465,51.7222101 21.1015801,51.7222101 21.1273138,51.7350988 C21.1659142,51.7479875 21.1916479,51.7479875 21.2302483,51.7608761 C21.2559819,51.7608761 21.2817156,51.7737648 21.3074492,51.7737648 C21.3074492,51.7737648 21.320316,51.7737648 21.320316,51.7737648 C21.3589165,51.7737648 21.3846501,51.7866534 21.4232506,51.7866534 C21.4489842,51.7866534 21.461851,51.7866534 21.4875847,51.7995421 C21.5776524,51.8124308 21.6677201,51.8124308 21.7320542,51.8253194 C21.7577878,51.8253194 21.7835214,51.8253194 21.7963883,51.8253194 C21.8221219,51.8253194 21.8607223,51.8253194 21.8735892,51.8253194 C22.1309255,51.8382081 22.4268623,51.8897628 22.7742664,51.9542061 C22.8128668,51.9670947 22.8643341,51.9670947 22.9029345,51.9799834 C22.941535,51.9928721 22.9930023,52.0057607 23.0316027,52.0057607 C23.0702032,52.0186494 23.1088036,52.0186494 23.1474041,52.0315381 C23.2503386,52.0573154 23.3532731,52.0830927 23.4562077,52.1088701 C23.4819413,52.1088701 23.4948081,52.1217587 23.5205418,52.1217587 C23.5334086,52.1217587 23.5591422,52.1346474 23.572009,52.1346474 C23.7264108,52.1733134 23.8808126,52.224868 24.0480813,52.2893114 C24.0738149,52.3022 24.0995485,52.3150887 24.138149,52.3150887 C24.2024831,52.340866 24.2668172,52.3666433 24.3311512,52.379532 C24.3568849,52.3924207 24.3826185,52.3924207 24.4083521,52.4053093 C24.5498871,52.456864 24.6785553,52.5084187 24.8329571,52.572862 L24.8329571,52.572862 C24.8329571,52.572862 24.8329571,52.572862 24.8329571,52.572862 C24.9487585,52.611528 25.051693,52.6630826 25.1674944,52.7146373 C25.2060948,52.7275259 25.2446953,52.7404146 25.2704289,52.7661919 C25.2704289,52.7661919 25.2704289,52.7661919 25.2832957,52.7661919 C25.3604966,52.8048579 25.4376975,52.8306353 25.5148984,52.8693013 C25.617833,52.9079672 25.7207675,52.9595219 25.823702,53.0110766 C25.8623025,53.0368539 25.9137698,53.0497426 25.9523702,53.0755199 C26.0681716,53.1270745 26.1839729,53.1786292 26.2997743,53.2430725 C26.3641084,53.2688498 26.4155756,53.2946272 26.4799097,53.3332932 C26.5442438,53.3590705 26.5957111,53.3977365 26.6600451,53.4235138 C26.6857788,53.4364025 26.6986456,53.4492912 26.7243792,53.4621798 C26.8916479,53.5524005 27.0717833,53.6426211 27.2519187,53.7328418 C27.1875847,53.7070644 27.1232506,53.6941758 27.0460497,53.6812871 C26.9688488,53.6555098 26.8916479,53.6426211 26.814447,53.6168438 C26.7629797,53.6039551 26.7115124,53.5910665 26.6600451,53.5781778 C26.6085779,53.5652891 26.5571106,53.5524005 26.5056433,53.5395118 C26.4541761,53.5266231 26.389842,53.5137345 26.3383747,53.4879571 C26.2611738,53.4621798 26.1968397,53.4492912 26.1196388,53.4235138 C26.0810384,53.4106252 26.0424379,53.3977365 26.0038375,53.3848478 C25.8365688,53.3332932 25.6693002,53.2946272 25.5148984,53.2559612 C25.4376975,53.2301839 25.3476298,53.2172952 25.2704289,53.1915179 C25.2318284,53.1786292 25.193228,53.1657405 25.1546275,53.1657405 C24.6399549,53.0368539 24.1767494,52.9208559 23.7521445,52.8306353 C23.6620767,52.8048579 23.5848758,52.7919693 23.4948081,52.7790806 C23.224605,52.7275259 22.9801354,52.6759713 22.7613995,52.6373053 C22.6841986,52.6244166 22.6069977,52.611528 22.5426637,52.5986393 C22.51693,52.5986393 22.4911964,52.5857506 22.4783296,52.5857506 C22.4268623,52.572862 22.3625282,52.572862 22.3110609,52.5599733 C22.2209932,52.5470846 22.1309255,52.534196 22.0537246,52.5213073 C21.9893905,52.5084187 21.9250564,52.5084187 21.8607223,52.49553 C21.8221219,52.49553 21.7963883,52.4826413 21.7706546,52.4826413 C21.7063205,52.4697527 21.6548533,52.4697527 21.5905192,52.4697527 C21.5647856,52.4697527 21.5390519,52.4697527 21.5004515,52.456864 C21.4747178,52.456864 21.4489842,52.456864 21.4232506,52.4439753 C21.3074492,52.4310867 21.2045147,52.4310867 21.1015801,52.4310867 C21.1015801,52.4310867 21.0887133,52.4310867 21.0887133,52.4310867 C21.0629797,52.4310867 21.0501129,52.4310867 21.0243792,52.4310867 C20.9857788,52.4310867 20.9343115,52.4310867 20.8957111,52.4310867 C20.8828442,52.4310867 20.8571106,52.4310867 20.8442438,52.4310867 C20.8185102,52.4310867 20.7927765,52.4310867 20.7670429,52.4310867 C20.7155756,52.4310867 20.6641084,52.4310867 20.6255079,52.4439753 C20.5997743,52.4439753 20.5869074,52.4439753 20.5611738,52.456864 C20.548307,52.456864 20.5354402,52.456864 20.5097065,52.456864 C20.4839729,52.456864 20.4711061,52.4697527 20.4453725,52.4697527 C20.4325056,52.4697527 20.4196388,52.4697527 20.406772,52.4826413 C20.3810384,52.4826413 20.3681716,52.49553 20.3424379,52.49553 C20.3424379,52.49553 20.3295711,52.49553 20.3295711,52.49553 C20.3167043,52.49553 20.3167043,52.49553 20.3038375,52.5084187 C20.2909707,52.5084187 20.2781038,52.5213073 20.265237,52.5213073 C20.2523702,52.5213073 20.2395034,52.534196 20.2266366,52.534196 C20.2137698,52.534196 20.2009029,52.5470846 20.1880361,52.5470846 C20.1751693,52.5470846 20.1623025,52.5599733 20.1494357,52.572862 C20.1365688,52.5857506 20.123702,52.5857506 20.1108352,52.5986393 C20.1108352,52.5986393 20.0979684,52.611528 20.0979684,52.611528 C20.0979684,52.611528 20.0851016,52.6244166 20.0851016,52.6244166 C20.0851016,52.6244166 20.0722348,52.6373053 20.0722348,52.6373053 C20.0722348,52.6373053 20.0593679,52.650194 20.0593679,52.650194 C20.0593679,52.650194 20.0465011,52.6630826 20.0465011,52.6630826 C20.0336343,52.68886 20.0207675,52.7017486 20.0079007,52.7275259 C19.982167,52.7790806 19.8534989,53.0884085 19.9693002,53.3848478 C19.982167,53.3977365 19.982167,53.4235138 19.9950339,53.4364025 C19.9950339,53.4364025 19.9950339,53.4492912 19.9950339,53.4492912 C20.0079007,53.4621798 20.0079007,53.4750685 20.0207675,53.4879571 C20.0207675,53.4879571 20.0207675,53.4879571 20.0207675,53.4879571 C20.0207675,53.5008458 20.0336343,53.5008458 20.0336343,53.5137345 C20.0593679,53.5395118 20.0722348,53.5652891 20.0979684,53.5910665 C20.0979684,53.5910665 20.1108352,53.6039551 20.123702,53.6039551 C20.1365688,53.6168438 20.1494357,53.6297325 20.1751693,53.6426211 C20.1880361,53.6555098 20.2009029,53.6555098 20.2137698,53.6683984 C20.2137698,53.6683984 20.2137698,53.6683984 20.2137698,53.6683984 C20.2266366,53.6812871 20.2395034,53.6812871 20.2395034,53.6941758 C20.2781038,53.7199531 20.3038375,53.7328418 20.3424379,53.7586191 C20.3681716,53.7715078 20.3939052,53.7843964 20.4196388,53.7972851 C20.4453725,53.8101738 20.4839729,53.8230624 20.5097065,53.8359511 C20.5354402,53.8488397 20.5740406,53.8617284 20.5997743,53.8617284 C20.6255079,53.8746171 20.6512415,53.8746171 20.6769752,53.8875057 C20.7927765,53.9132831 20.9085779,53.9390604 21.0115124,53.9648377 C21.0115124,53.9648377 21.0243792,53.9648377 21.037246,53.9648377 C21.037246,53.9648377 21.0501129,53.9648377 21.0501129,53.9648377 C21.0501129,53.9648377 21.0501129,53.9648377 21.0629797,53.9648377 C21.0629797,53.9648377 21.0758465,53.9648377 21.0758465,53.9648377 C21.0758465,53.9648377 21.0758465,53.9648377 21.0758465,53.9648377 C21.0887133,53.9648377 21.1015801,53.9648377 21.1273138,53.9777264 C21.1530474,53.9777264 21.178781,53.9906151 21.2045147,53.9906151 C21.2302483,53.9906151 21.2688488,54.0035037 21.2945824,54.0035037 C21.320316,54.0035037 21.3589165,54.0163924 21.3975169,54.029281 C21.3975169,54.029281 21.3975169,54.029281 21.3975169,54.029281 C21.3975169,54.029281 21.4103837,54.029281 21.4103837,54.029281 C21.4232506,54.029281 21.4489842,54.0421697 21.461851,54.0421697 C21.4875847,54.0421697 21.5004515,54.0550584 21.5261851,54.0550584 C21.5390519,54.0550584 21.5647856,54.067947 21.5776524,54.067947 C21.6162528,54.0808357 21.6548533,54.0808357 21.7063205,54.0937244 C21.7063205,54.0937244 21.7063205,54.0937244 21.7063205,54.0937244 C21.7706546,54.106613 21.8478555,54.1195017 21.9250564,54.145279 C21.9250564,54.145279 21.9379233,54.145279 21.9379233,54.145279 C21.9893905,54.1581677 22.0408578,54.1710564 22.0923251,54.1710564 C22.0923251,54.1710564 22.1051919,54.1710564 22.1051919,54.1710564 C22.1566591,54.183945 22.2081264,54.1968337 22.2595937,54.1968337 C22.4011287,54.222611 22.5555305,54.261277 22.7227991,54.299943 C22.9286682,54.338609 23.1474041,54.3901636 23.3918736,54.4417183 C23.4176072,54.4417183 23.4433409,54.454607 23.4690745,54.454607 C23.5334086,54.4674956 23.5848758,54.4803843 23.6492099,54.493273 C23.713544,54.5061616 23.7778781,54.5190503 23.8422122,54.531939 C24.0352144,54.570605 24.2410835,54.6221596 24.4598194,54.6737143 C24.6785553,54.7252689 24.8972912,54.7768236 25.1160271,54.8283782 C25.1288939,54.8283782 25.1417607,54.8283782 25.1546275,54.8412669 C25.193228,54.8541556 25.2189616,54.8541556 25.2575621,54.8670442 C25.2961625,54.8799329 25.3218962,54.8799329 25.3604966,54.8928216 C25.4505643,54.9185989 25.5277652,54.9314876 25.617833,54.9572649 C25.6693002,54.9701535 25.7079007,54.9830422 25.7465011,54.9959309 C25.8880361,55.0345969 26.0038375,55.0603742 26.106772,55.0990402 C26.1325056,55.0990402 26.1453725,55.1119289 26.1711061,55.1119289 C26.0553047,55.1119289 25.9266366,55.1119289 25.8108352,55.1119289 C25.7336343,55.1119289 25.6564334,55.1119289 25.5920993,55.1119289 C25.4505643,55.1119289 25.3090293,55.1248175 25.1674944,55.1248175 C25.1160271,55.1248175 25.0774266,55.1248175 25.0259594,55.1377062 C24.910158,55.1377062 24.8072235,55.1505948 24.7042889,55.1634835 C24.6528217,55.1634835 24.6013544,55.1763722 24.5370203,55.1763722 C24.421219,55.1892608 24.3054176,55.2021495 24.1896163,55.2150382 C24.0352144,55.2279268 23.8936795,55.2408155 23.7650113,55.2665928 C23.7264108,55.2665928 23.6749436,55.2794815 23.6363431,55.2794815 C23.4562077,55.3052588 23.2889391,55.3310361 23.1474041,55.3568135 C23.1474041,55.3568135 23.1345372,55.3568135 23.1345372,55.3568135 C23.1216704,55.3568135 23.1216704,55.3568135 23.1088036,55.3568135 C23.0959368,55.3568135 23.08307,55.3568135 23.0702032,55.3697021 C23.0573363,55.3697021 23.0444695,55.3697021 23.0187359,55.3825908 C23.0058691,55.3825908 22.9801354,55.3954795 22.9544018,55.3954795 C22.9286682,55.3954795 22.8900677,55.4083681 22.8643341,55.4212568 C22.8257336,55.4341455 22.7871332,55.4341455 22.7485327,55.4470341 C22.6198646,55.4728115 22.4654628,55.5114775 22.2981941,55.5630321 C22.2467269,55.5759208 22.1823928,55.5888094 22.1309255,55.6145868 C22.1309255,55.6145868 22.1309255,55.6145868 22.1309255,55.6145868 C22.1051919,55.6274754 22.0794582,55.6274754 22.0537246,55.6403641 C22.0022573,55.6532528 21.9379233,55.6790301 21.886456,55.6919188 C21.8349887,55.7048074 21.7706546,55.7305847 21.7191874,55.7434734 C21.6934537,55.7563621 21.6677201,55.7692507 21.6419865,55.7692507 C21.603386,55.7821394 21.5647856,55.7950281 21.5261851,55.8079167 C21.4875847,55.8208054 21.4489842,55.8336941 21.4232506,55.8465827 C21.3846501,55.8594714 21.3460497,55.8723601 21.320316,55.8981374 C21.2945824,55.911026 21.2688488,55.9239147 21.2559819,55.9239147 C21.2302483,55.9368034 21.2045147,55.949692 21.178781,55.9625807 C21.0887133,56.0012467 21.0115124,56.0528014 20.9471783,56.104356 C20.9214447,56.1172447 20.8957111,56.143022 20.8699774,56.1559107 C20.8442438,56.1687993 20.8185102,56.1945767 20.7927765,56.220354 C20.7799097,56.2332427 20.7670429,56.2461313 20.7541761,56.25902 C20.7413093,56.2719086 20.7284424,56.2847973 20.7155756,56.297686 C20.7027088,56.3105746 20.7027088,56.3234633 20.689842,56.3234633 C20.6769752,56.336352 20.6641084,56.3492406 20.6641084,56.3621293 C20.6512415,56.375018 20.6512415,56.3879066 20.6383747,56.4007953 C20.6255079,56.413684 20.6255079,56.4265726 20.6126411,56.4394613 C20.5997743,56.4652386 20.5869074,56.4910159 20.5740406,56.5167933 C20.5611738,56.5554593 20.5225734,56.6585686 20.5354402,56.7616779 L20.3810384,56.8003439 L18.6954853,57.2772245 L18.6054176,57.3030018 L17.9620767,57.4834431 L17.7562077,57.5478864 L16.3022573,57.9603237 L15.5688488,58.1665423 L13.8961625,58.6434229 L13.162754,58.8496415 L13.162754,58.8496415 C12.738149,58.9656395 12.3006772,58.7207549 12.1848758,58.2825403 L11.9790068,57.5349978 L11.9146727,57.2901131 L11.4900677,55.7434734 L11.3099323,55.0732629 L11.2455982,54.8283782 L10.7566591,53.0239652 L10.6408578,52.5986393 L10.5765237,52.3537547 L9.9717833,50.1369044 L9.90744921,49.8920198 L9.3027088,47.6622808 L9.25124153,47.4818395 C9.70158014,46.772963 10.203386,46.0254205 10.7566591,45.2778779 L10.8209932,45.1876573 C11.4128668,44.3756714 12.0690745,43.5507969 12.7767494,42.7259224 C12.9054176,42.5841471 13.0340858,42.4294831 13.162754,42.2877078 C13.7674944,41.6046086 14.423702,40.9215094 15.1056433,40.2641875 C15.2600451,40.1224122 15.4015801,39.9806369 15.5559819,39.8388616 C16.3151242,39.1428737 17.1128668,38.4597745 17.9620767,37.8153413 C17.9749436,37.8153413 17.9749436,37.8024526 17.9878104,37.8024526 C18.7469526,37.2353514 19.5318284,36.6940275 20.3681716,36.1784809 C20.8442438,35.8820416 21.3460497,35.598491 21.8478555,35.3407177 C21.9636569,35.2762744 22.0665914,35.2247197 22.1823928,35.1731651 C23.1345372,34.6833958 24.138149,34.2451812 25.193228,33.8585213 C25.2318284,32.6083209 25.2575621,31.3581204 25.2961625,30.0950313 C24.8200903,29.837258 24.1252822,29.3861548 23.4948081,28.5999462 C22.3882619,27.2337478 22.1823928,25.7386628 22.1437923,25.1200069 C23.7264108,24.076025 24.5498871,22.9675999 25.0130926,22.1685027 C25.7465011,20.8667476 26.0681716,19.4361059 26.9045147,19.0881119 C27.161851,19.4876605 27.4577878,19.9129865 27.8180587,20.351201 C29.130474,21.9493954 30.5844244,22.9031566 31.6137698,23.4573692 C31.7167043,23.3800372 31.9740406,23.2124845 32.3343115,23.2124845 C32.3471783,23.2124845 32.6688488,23.2124845 32.9647856,23.3800372 C33.5051919,23.6893651 33.7882619,24.4755736 33.6853273,25.1586729 C33.5566591,26.0608794 32.7589165,26.7826446 31.9869074,26.8084219 C31.7810384,26.8213106 31.6137698,26.7697559 31.4851016,26.7310899 C31.4079007,27.6461851 31.3435666,28.5999462 31.3049661,29.5794847 C31.2534989,30.5590232 31.2406321,31.5127844 31.2277652,32.4407682 C34.1227991,32.0927743 37.0435666,32.2087723 39.9,32.6856528 L39.9900677,33.0078695 L40.3889391,34.4900659 L40.5562077,35.0958331 L40.6076749,35.3020517 L41.2252822,37.557568 L41.2896163,37.8024526 L41.3539503,38.0602259 L41.8814898,40.0193029 L41.9458239,40.2641875 L42.0487585,40.6250701 L42.5505643,42.4810378 L42.6148984,42.7001451 L42.782167,43.3316896 L43.2196388,44.9427727 L43.2839729,45.16188 L43.8887133,47.4045076 L43.9530474,47.6493922 L44.3390519,49.0800339 C44.4805869,49.3893619 44.403386,49.6858012 44.2103837,49.8920198 Z" id="Path" fill="#52A0FF"></path>
                                <path d="M12.9440181,9.09939705 C12.9311512,9.09939705 12.9311512,9.09939705 12.9440181,9.09939705 C12.8925508,9.09939705 12.8668172,9.06073105 12.8668172,9.0091764 L13.7546275,0.244884623 C13.7546275,0.219107294 13.7803612,0.193329966 13.8060948,0.180441301 C13.8318284,0.167552637 13.8704289,0.180441301 13.8832957,0.20621863 L19.8406321,7.01143342 C19.8663657,7.03721075 19.8663657,7.0887654 19.8406321,7.11454273 C19.8148984,7.14032006 19.7634312,7.14032006 19.7376975,7.11454273 L13.8832957,0.438214589 L13.0083521,9.03495372 C13.0083521,9.07361972 12.9826185,9.09939705 12.9440181,9.09939705 Z" id="Path" fill="#000000"></path>
                                <ellipse id="Oval" fill="#000000" cx="13.8961625" cy="0.451103253" rx="1" ry="1"></ellipse>
                            </g>
                            <g id="head_2_" transform="translate(8.620767, 12.888664)" fill="#000000">
                                <path d="M33.3893905,19.7840998 C30.5458239,19.3072192 27.6250564,19.1912212 24.7171558,19.5392152 C24.7300226,18.62412 24.7557562,17.6703589 24.7943567,16.6779317 C24.8458239,15.6983932 24.8972912,14.744632 24.9744921,13.8295369 C25.1031603,13.8810915 25.2704289,13.9197575 25.476298,13.9068689 C26.248307,13.8810915 27.0460497,13.1593263 27.1747178,12.2571198 C27.2776524,11.5740206 26.9817156,10.7878121 26.4541761,10.4784841 C26.1582393,10.3109315 25.8494357,10.3109315 25.823702,10.3109315 C25.4634312,10.3109315 25.2060948,10.4913728 25.1031603,10.5558161 C24.0738149,10.0016036 22.6198646,9.06073105 21.3074492,7.44964801 C20.9600451,7.02432208 20.6512415,6.59899616 20.3939052,6.1865589 C19.5446953,6.53455284 19.2358916,7.96519458 18.5024831,9.26694968 C18.0392777,10.0789355 17.2158014,11.1873607 15.6331828,12.2184538 C15.6846501,12.8242211 15.8776524,14.3193061 16.9841986,15.6983932 C17.6146727,16.4717131 18.3094808,16.935705 18.785553,17.1934783 C18.7469526,18.4436787 18.721219,19.6938792 18.6826185,20.9569683 C17.6275395,21.3436282 16.6239278,21.7818428 15.6717833,22.271612 C15.5559819,22.3231667 15.4530474,22.38761 15.337246,22.4391647 C14.8354402,22.7098266 14.3336343,22.9933772 13.8575621,23.2769279 C13.021219,23.7795858 12.2363431,24.3337983 11.4772009,24.9008996 C11.4643341,24.9008996 11.4643341,24.9137882 11.4514673,24.9137882 C10.6022573,25.5582214 9.80451467,26.228432 9.04537246,26.9373085 C8.89097065,27.0790838 8.73656885,27.2208592 8.59503386,27.3626345 C7.90022573,28.0199563 7.25688488,28.7030556 6.65214447,29.3861548 C6.5234763,29.5279301 6.39480813,29.682594 6.26613995,29.8243694 C5.55846501,30.6492439 4.90225734,31.4741184 4.31038375,32.2861043 L4.24604966,32.2861043 L4.24604966,32.3763249 C3.70564334,33.1238674 3.20383747,33.87141 2.74063205,34.5802865 L1.24808126,29.0639382 C1.36388262,28.9608288 1.47968397,28.8577195 1.59548533,28.7546102 C1.63408578,28.7159442 1.67268623,28.6901669 1.69841986,28.6515009 C1.93002257,28.4195049 2.12302483,28.1746203 2.29029345,27.9426244 C2.32889391,27.8910697 2.35462754,27.8524037 2.39322799,27.8008491 C2.43182844,27.7492944 2.45756208,27.7106284 2.48329571,27.6590737 C2.50902935,27.6075191 2.5476298,27.5688531 2.57336343,27.5172984 C2.66343115,27.3755231 2.75349887,27.2337478 2.83069977,27.1048612 C2.88216704,27.0275292 2.92076749,26.9501972 2.95936795,26.8728652 C3.06230248,26.7053126 3.13950339,26.5377599 3.22957111,26.383096 C3.25530474,26.3315413 3.28103837,26.2799867 3.30677201,26.228432 C3.46117381,25.9191041 3.58984199,25.5968874 3.69277652,25.3004482 C3.70564334,25.2617822 3.71851016,25.2231162 3.73137698,25.1844502 C3.74424379,25.1457842 3.75711061,25.1200069 3.76997743,25.0813409 C3.78284424,25.0297862 3.79571106,24.9911202 3.8214447,24.9395656 C3.8214447,24.9266769 3.83431151,24.9008996 3.83431151,24.8880109 C3.83431151,24.8751222 3.83431151,24.8751222 3.84717833,24.8622336 C3.84717833,24.8493449 3.86004515,24.8364562 3.86004515,24.8364562 C3.87291196,24.7977903 3.88577878,24.7462356 3.8986456,24.7075696 C3.93724605,24.5915716 3.96297968,24.4755736 3.98871332,24.3595757 C4.00158014,24.3209097 4.01444695,24.2822437 4.01444695,24.2435777 C4.01444695,24.230689 4.02731377,24.2049117 4.02731377,24.192023 C4.04018059,24.153357 4.04018059,24.1275797 4.0530474,24.0889137 C4.0530474,24.076025 4.06591422,24.0631364 4.06591422,24.0373591 C4.07878104,23.9986931 4.07878104,23.9600271 4.09164786,23.9213611 C4.10451467,23.8698064 4.11738149,23.8182518 4.13024831,23.7538084 C4.14311512,23.6893651 4.15598194,23.6120331 4.16884876,23.5475898 C4.46478555,23.3284825 4.74785553,23.1222639 5.00519187,22.9289339 C5.1724605,22.8129359 5.3268623,22.6840493 5.46839729,22.58094 C5.72573363,22.38761 5.97020316,22.19428 6.20180587,22.0138387 C6.27900677,21.9493954 6.35620767,21.8978408 6.42054176,21.8462861 C6.48487585,21.7947315 6.54920993,21.7431768 6.6006772,21.7045108 C6.98668172,21.4080715 7.29548533,21.1502982 7.52708804,20.9440796 C7.81015801,20.699195 8.35056433,20.2223144 8.26049661,19.7196565 C8.23476298,19.5778812 8.17042889,19.4232172 8.08036117,19.3458852 C8.00316027,19.2814419 7.90022573,19.2556646 7.77155756,19.2556646 C7.74582393,19.2556646 7.70722348,19.2556646 7.68148984,19.2556646 C7.68148984,19.2556646 7.68148984,19.2556646 7.66862302,19.2556646 C7.63002257,19.2556646 7.60428894,19.2685532 7.56568849,19.2685532 C7.55282167,19.2685532 7.52708804,19.2814419 7.51422122,19.2814419 C7.5013544,19.2814419 7.47562077,19.2943306 7.44988713,19.2943306 C7.38555305,19.3072192 7.33408578,19.3329966 7.25688488,19.3458852 C7.08961625,19.4103285 6.896614,19.4876605 6.69074492,19.5907698 C6.63927765,19.6165472 6.58781038,19.6423245 6.53634312,19.6681018 C6.53634312,19.6681018 6.53634312,19.6681018 6.53634312,19.6681018 C6.48487585,19.6938792 6.43340858,19.7196565 6.38194131,19.7583225 C6.33047404,19.7840998 6.27900677,19.8227658 6.21467269,19.8485431 C6.16320542,19.8743205 6.09887133,19.9129865 6.04740406,19.9387638 C6.00880361,19.9645411 5.95733634,19.9903184 5.91873589,20.0160958 C5.67426637,20.1578711 5.42979684,20.3254237 5.1724605,20.4929764 C5.10812641,20.5316423 5.05665914,20.5703083 4.99232506,20.6089743 C4.96659142,20.621863 4.94085779,20.6347517 4.92799097,20.660529 C4.88939052,20.6863063 4.85079007,20.7120836 4.82505643,20.737861 C4.77358916,20.7636383 4.73498871,20.8023043 4.68352144,20.8409703 C4.64492099,20.8667476 4.59345372,20.9054136 4.55485327,20.9311909 C4.40045147,21.0343003 4.25891648,21.1374096 4.11738149,21.2405189 C4.06591422,21.2791849 4.00158014,21.3307395 3.95011287,21.3694055 C3.8986456,21.4080715 3.83431151,21.4467375 3.78284424,21.4982922 C3.42257336,21.7689541 3.08803612,22.0267274 2.79209932,22.2587234 L2.76636569,22.232946 C2.77923251,22.2200574 2.83069977,22.1813914 2.90790068,22.1169481 C2.93363431,22.1040594 2.94650113,22.0782821 2.97223476,22.0525047 C2.98510158,22.0396161 3.01083521,22.0267274 3.02370203,22.0009501 C3.24243792,21.8205088 3.57697517,21.5240695 3.96297968,21.1889642 C4.00158014,21.1502982 4.04018059,21.1245209 4.07878104,21.0858549 C4.58058691,20.6476403 5.15959368,20.1320937 5.71286682,19.6294358 C5.73860045,19.6036585 5.76433409,19.5778812 5.80293454,19.5521039 C5.82866817,19.5263265 5.85440181,19.5005492 5.88013544,19.4747719 C5.91873589,19.4489945 5.94446953,19.4103285 5.98306998,19.3845512 C6.02167043,19.3458852 6.06027088,19.3201079 6.09887133,19.2814419 C6.21467269,19.1654439 6.33047404,19.0623346 6.4462754,18.9592253 C6.49774266,18.9076706 6.54920993,18.8690046 6.6006772,18.81745 C6.63927765,18.778784 6.6778781,18.7530067 6.70361174,18.7143407 C6.72934537,18.6885633 6.75507901,18.662786 6.78081264,18.6370087 C6.81941309,18.5983427 6.85801354,18.5596767 6.896614,18.5210107 C6.93521445,18.4823447 6.9738149,18.4436787 6.99954853,18.4179014 C7.06388262,18.3534581 7.14108352,18.2632374 7.23115124,18.1730168 C7.24401806,18.1601281 7.25688488,18.1343508 7.28261851,18.1214621 C7.29548533,18.1085734 7.29548533,18.0956848 7.30835214,18.0827961 C7.32121896,18.0570188 7.3469526,18.0312415 7.35981941,18.0054641 C7.35981941,18.0054641 7.37268623,17.9925755 7.37268623,17.9925755 C7.38555305,17.9796868 7.39841986,17.9667981 7.41128668,17.9539095 C7.4241535,17.9281321 7.44988713,17.9023548 7.46275395,17.8765775 C7.47562077,17.8636888 7.48848758,17.8379115 7.5013544,17.8250228 C7.5013544,17.8121342 7.51422122,17.8121342 7.51422122,17.7992455 C7.52708804,17.7863568 7.53995485,17.7605795 7.55282167,17.7476908 C7.55282167,17.7476908 7.56568849,17.7348022 7.56568849,17.7348022 C7.5785553,17.7090248 7.59142212,17.6961362 7.60428894,17.6703589 C7.61715576,17.6574702 7.61715576,17.6445815 7.61715576,17.6316929 C7.63002257,17.6188042 7.63002257,17.6059155 7.63002257,17.5801382 C7.63002257,17.5672495 7.64288939,17.5543609 7.64288939,17.5414722 C7.64288939,17.5285835 7.65575621,17.5156949 7.65575621,17.5156949 C7.66862302,17.4641402 7.68148984,17.4125856 7.69435666,17.3610309 C7.69435666,17.3481422 7.69435666,17.3352536 7.69435666,17.3223649 C7.69435666,17.3094763 7.69435666,17.2965876 7.69435666,17.2836989 C7.69435666,17.2708103 7.69435666,17.2579216 7.69435666,17.2450329 C7.69435666,17.2063669 7.69435666,17.1677009 7.68148984,17.129035 C7.68148984,17.129035 7.68148984,17.1161463 7.68148984,17.1161463 C7.68148984,17.1032576 7.68148984,17.090369 7.66862302,17.0774803 C7.61715576,16.8712617 7.48848758,16.7294864 7.44988713,16.703709 C7.43702032,16.6908204 7.4241535,16.6779317 7.39841986,16.6779317 C7.38555305,16.6779317 7.38555305,16.665043 7.37268623,16.665043 C7.33408578,16.6521544 7.30835214,16.6521544 7.25688488,16.6521544 C7.24401806,16.6521544 7.21828442,16.6521544 7.20541761,16.6521544 C7.19255079,16.6521544 7.17968397,16.6521544 7.16681716,16.6521544 C7.15395034,16.6521544 7.14108352,16.6521544 7.11534989,16.665043 C7.10248307,16.665043 7.08961625,16.665043 7.07674944,16.6779317 C7.0510158,16.6779317 7.02528217,16.6908204 6.99954853,16.6908204 L6.99954853,16.6908204 C6.9738149,16.703709 6.94808126,16.703709 6.92234763,16.7165977 C6.90948081,16.7165977 6.896614,16.7294864 6.88374718,16.7294864 C6.85801354,16.742375 6.81941309,16.7552637 6.79367946,16.7681523 C6.49774266,16.897039 6.08600451,17.129035 5.51986456,17.5156949 C5.44266366,17.5672495 5.36546275,17.6316929 5.27539503,17.6832475 C5.2496614,17.7090248 5.21106095,17.7348022 5.18532731,17.7476908 C5.14672686,17.7734682 5.12099323,17.7992455 5.08239278,17.8250228 C4.97945824,17.9023548 4.8765237,17.9796868 4.77358916,18.0570188 C4.73498871,18.0827961 4.69638826,18.1085734 4.67065463,18.1343508 C4.63205418,18.1601281 4.59345372,18.1859054 4.55485327,18.2245714 C4.51625282,18.2503488 4.47765237,18.2890147 4.4261851,18.3147921 C4.38758465,18.3534581 4.33611738,18.3792354 4.28465011,18.4179014 C4.24604966,18.4436787 4.20744921,18.469456 4.18171558,18.508122 C4.16884876,18.5210107 4.15598194,18.5338994 4.14311512,18.5338994 C4.07878104,18.585454 4.01444695,18.6370087 3.95011287,18.6885633 C3.86004515,18.7530067 3.78284424,18.8303386 3.69277652,18.894782 C3.62844244,18.9463366 3.57697517,18.9978913 3.51264108,19.0494459 C3.29390519,19.2298872 3.04943567,19.4232172 2.80496614,19.6423245 C2.76636569,19.6681018 2.72776524,19.7067678 2.68916479,19.7325452 C2.27742664,20.0805391 1.82708804,20.467199 1.3510158,20.8796363 C3.5255079,18.7916727 5.18532731,17.129035 5.99593679,16.2654944 C6.25327314,15.9948325 6.76794582,15.4406199 6.61354402,14.976628 C6.61354402,14.976628 6.53634312,14.7188547 6.21467269,14.5641907 C5.35259594,14.1130875 2.00722348,17.4641402 0.0128668172,19.5521039 C0.0257336343,19.5392152 0.0257336343,19.5263265 0.0386004515,19.5134379 C0.0514672686,19.5005492 0.0643340858,19.4747719 0.0772009029,19.4618832 C0.102934537,19.4232172 0.141534989,19.3845512 0.18013544,19.3329966 C0.205869074,19.2943306 0.231602709,19.2685532 0.257336343,19.2298872 C0.295936795,19.1654439 0.334537246,19.1138893 0.386004515,19.0623346 C1.6469526,17.3481422 2.08442438,16.7939297 2.66343115,15.8917232 C3.04943567,15.2859559 3.03656885,15.24729 3.12663657,15.0797373 C3.19097065,14.9637393 3.26817156,14.86063 3.31963883,14.7575207 C3.448307,14.5513021 3.61557562,14.3321948 3.69277652,13.9970895 C3.75711061,13.7908709 3.79571106,13.5717636 3.74424379,13.4042109 L3.74424379,13.4042109 C4.29751693,11.2002493 5.35259594,8.57096181 7.51422122,7.77186462 C8.28623025,7.488314 8.44063205,7.8491966 9.16117381,7.44964801 C10.9110609,6.47010951 10.8595937,3.46705072 14.1920993,1.17286846 C18.3223476,-1.67552637 21.1273138,2.02352031 21.1273138,2.02352031 C21.1273138,2.02352031 21.9121896,1.76574702 22.9029345,1.76574702 C24.0223476,1.76574702 25.3862302,2.10085229 26.1196388,3.5443827 C27.0460497,5.37457304 28.3198646,5.51634835 29.5164786,5.68390099 L33.3893905,19.7840998 Z" id="hair_2_"></path>
                                <path d="M18.6311512,17.090369 C18.6440181,17.090369 18.6568849,17.1032576 18.6697517,17.1032576 C19.2616253,17.3610309 19.8020316,17.2836989 20.1108352,17.2450329 C21.1659142,17.1032576 22.2595937,16.3557151 22.3882619,16.2654944 C22.1952596,16.6005997 21.8607223,17.090369 21.2945824,17.5028062 C20.2009029,18.3019034 19.0300226,18.2632374 18.6568849,18.2374601 C18.6568849,17.8508002 18.6440181,17.4641402 18.6311512,17.090369 Z" id="Path"></path>
                                <path d="M24.6656885,11.174472 C24.6528217,11.174472 24.6399549,11.174472 24.627088,11.1615833 C24.5884876,11.1486947 24.5756208,11.09714 24.6013544,11.058474 C24.7171558,10.8135894 24.8972912,10.6202594 25.1031603,10.4784841 C25.2060948,10.4140408 25.3090293,10.3495975 25.4248307,10.3109315 C25.4634312,10.2980428 25.5020316,10.3109315 25.5148984,10.3624862 C25.5277652,10.4011521 25.5148984,10.4398181 25.476298,10.4655955 C25.3733634,10.5042615 25.2832957,10.5558161 25.193228,10.6073708 C25.0002257,10.7362574 24.8458239,10.9166987 24.7428894,11.135806 C24.7171558,11.1615833 24.6914221,11.174472 24.6656885,11.174472 Z" id="Path"></path>
                            </g>
                            <g id="hand_l_2_" transform="translate(5.018059, 25.777329)" fill="#000000">
                                <path d="M3.35823928,3.93104263 L3.30677201,4.00837462 C3.30677201,4.00837462 3.29390519,4.02126328 3.29390519,4.02126328 C3.08803612,4.26614791 2.94650113,4.47236654 2.85643341,4.62703051 C2.79209932,4.73013982 2.75349887,4.82036048 2.57336343,5.12968842 C2.49616253,5.25857506 2.44469526,5.36168438 2.39322799,5.4261277 C2.30316027,5.606569 2.20022573,5.7870103 2.11015801,5.9674516 L1.98148984,5.47768236 L1.51828442,3.76349 C1.51828442,3.76349 1.81422122,2.03640897 2.56049661,2.0621863 C3.29390519,2.08796363 3.35823928,3.93104263 3.35823928,3.93104263 Z" id="Path"></path>
                                <path d="M0.167268623,11.5095773 C0.167268623,11.5095773 0.154401806,11.5095773 0.154401806,11.5095773 C0.115801354,11.4966886 0.0900677201,11.4580226 0.102934537,11.4193566 L1.44108352,3.76349 C1.45395034,3.724824 1.49255079,3.69904667 1.53115124,3.69904667 C1.56975169,3.71193534 1.59548533,3.75060133 1.59548533,3.78926733 L0.411738149,10.5815934 L2.05869074,5.95456294 C2.07155756,5.91589695 2.11015801,5.89011962 2.14875847,5.90300828 C2.18735892,5.91589695 2.21309255,5.95456294 2.18735892,6.0061176 L0.257336343,11.4580226 C0.231602709,11.4838 0.205869074,11.5095773 0.167268623,11.5095773 Z" id="Path"></path>
                                <path d="M3.67990971,6.75366013 C3.66704289,6.75366013 3.65417607,6.75366013 3.64130926,6.74077147 C3.6027088,6.71499414 3.6027088,6.66343948 3.62844244,6.63766215 C4.59345372,5.32301839 5.28826185,4.33059123 5.68713318,3.73771267 C6.21467269,2.97728147 6.62641084,2.33284825 6.92234763,1.84307901 C7.10248307,1.53375106 7.52708804,0.811985855 7.28261851,0.451103253 C7.28261851,0.451103253 7.19255079,0.322216609 6.99954853,0.257773287 C6.74221219,0.180441301 5.93160271,0.567101232 3.35823928,4.05992928 C3.33250564,4.09859527 3.28103837,4.09859527 3.25530474,4.07281794 C3.21670429,4.04704061 3.21670429,3.99548596 3.24243792,3.96970863 C5.27539503,1.19864579 6.51060948,-0.0644433219 7.03814898,0.103109315 C7.28261851,0.180441301 7.39841986,0.347993938 7.39841986,0.360882602 C7.69435666,0.811985855 7.23115124,1.58530572 7.03814898,1.92041099 C6.74221219,2.4230689 6.33047404,3.05461346 5.80293454,3.82793332 C5.39119639,4.42081188 4.70925508,5.41323904 3.74424379,6.7278828 C3.73137698,6.74077147 3.70564334,6.75366013 3.67990971,6.75366013 Z" id="Path"></path>
                                <path d="M4.7993228,16.3428264 C4.77358916,16.3428264 4.76072235,16.3299378 4.74785553,16.3170491 C4.7221219,16.2783831 4.7221219,16.2397171 4.76072235,16.2139398 L4.85079007,16.1366078 C5.72573363,15.4019539 6.2275395,14.5384134 6.54920993,13.9713122 C7.1282167,12.9659964 7.52708804,11.8575712 7.73295711,10.6847028 C7.73295711,10.6589254 7.74582393,10.6460368 7.75869074,10.6331481 C8.51783296,10.0660469 9.21264108,9.5505003 9.80451467,9.09939705 C10.3577878,8.67407112 10.8209932,8.30029986 11.1297968,8.0296379 C11.3613995,7.82341927 11.9146727,7.34653869 11.8374718,6.86965811 C11.8117381,6.74077147 11.7474041,6.61188482 11.68307,6.5474415 C11.4772009,6.3670002 10.5507901,6.27677955 6.48487585,9.44739098 C6.45914221,9.47316831 6.42054176,9.47316831 6.39480813,9.44739098 L6.36907449,9.42161366 C6.34334086,9.39583633 6.34334086,9.34428167 6.36907449,9.31850434 C6.39480813,9.29272701 6.42054176,9.29272701 6.4462754,9.30561568 C8.54356659,7.6687553 11.1426637,5.86434229 11.7860045,6.44433219 C11.8889391,6.53455284 11.96614,6.70210547 11.9918736,6.85676945 C12.0819413,7.42387068 11.4772009,7.93941725 11.2327314,8.15852455 C10.9110609,8.4291865 10.4478555,8.80295777 9.89458239,9.24117235 C9.31557562,9.69227561 8.63363431,10.2078222 7.8744921,10.7620348 C7.66862302,11.9477919 7.26975169,13.056217 6.6778781,14.0744215 C6.34334086,14.6544114 5.84153499,15.5179519 4.94085779,16.2783831 L4.85079007,16.3557151 C4.82505643,16.3428264 4.81218962,16.3428264 4.7993228,16.3428264 Z" id="Path"></path>
                                <path d="M6.40767494,9.43450232 C6.38194131,9.43450232 6.36907449,9.42161366 6.35620767,9.40872499 C6.33047404,9.370059 6.33047404,9.33139301 6.36907449,9.30561568 C6.6778781,9.04784239 9.34130926,6.7665488 10.6022573,5.49057102 C10.83386,5.25857506 11.3742664,4.71725116 11.258465,4.21459325 C11.2069977,4.00837462 11.0654628,3.87948798 11.0654628,3.87948798 C10.83386,3.68615801 9.7530474,3.95681996 5.06952596,8.05541523 C5.04379233,8.08119256 4.99232506,8.08119256 4.96659142,8.04252657 C4.94085779,8.01674924 4.94085779,7.96519458 4.97945824,7.93941725 C9.89458239,3.64749202 10.8595937,3.50571671 11.1683973,3.76349 C11.1812641,3.76349 11.3485327,3.91815397 11.4128668,4.17592726 C11.5544018,4.75591715 10.9625282,5.33590705 10.7180587,5.59368034 C9.48284424,6.84388078 6.9738149,8.99628773 6.48487585,9.40872499 C6.4462754,9.43450232 6.43340858,9.43450232 6.40767494,9.43450232 Z" id="Path"></path>
                                <path d="M5.00519187,8.08119256 C4.99232506,8.08119256 4.96659142,8.0683039 4.9537246,8.05541523 C4.92799097,8.0296379 4.92799097,7.97808325 4.9537246,7.95230592 C4.9537246,7.95230592 4.96659142,7.93941725 4.96659142,7.93941725 C7.29548533,5.69678965 8.89097065,4.09859527 9.5986456,3.33816407 C9.81738149,3.10616811 10.344921,2.55195555 10.203386,2.12662962 C10.203386,2.11374096 10.1261851,1.90752233 9.84311512,1.75285835 C9.49571106,1.57241705 8.2476298,1.98485431 3.73137698,6.7278828 C3.70564334,6.75366013 3.65417607,6.75366013 3.62844244,6.7278828 C3.6027088,6.70210547 3.6027088,6.65055082 3.62844244,6.62477349 C7.11534989,2.95150414 9.23837472,1.27597777 9.92031603,1.62397171 C10.2548533,1.80441301 10.344921,2.07507496 10.3577878,2.08796363 C10.5250564,2.6035102 9.95891648,3.19638876 9.71444695,3.45416205 C9.00677201,4.21459325 7.41128668,5.81278763 5.06952596,8.0683039 C5.04379233,8.0683039 5.03092551,8.08119256 5.00519187,8.08119256 Z" id="Path"></path>
                                <polygon id="Path" points="2.11015801 5.9674516 0.167268623 11.4322453 0.836343115 7.60431198 2.03295711 5.68390099"></polygon>
                                <path d="M2.11015801,6.04478359 C2.0972912,6.04478359 2.08442438,6.04478359 2.07155756,6.03189493 C2.03295711,6.0061176 2.02009029,5.9674516 2.04582393,5.92878561 C2.16162528,5.69678965 2.29029345,5.46479369 2.41896163,5.23279774 C2.66343115,4.79458315 2.94650113,4.36925722 3.24243792,3.96970863 C3.26817156,3.93104263 3.30677201,3.93104263 3.34537246,3.95681996 C3.38397291,3.98259729 3.38397291,4.03415195 3.35823928,4.05992928 C3.0751693,4.45947787 2.79209932,4.8848038 2.5476298,5.31012972 C2.41896163,5.52923702 2.29029345,5.76123297 2.1744921,5.99322893 C2.16162528,6.03189493 2.13589165,6.04478359 2.11015801,6.04478359 Z" id="Path"></path>
                            </g>
                            <g id="hand_r_2_" transform="translate(21.873589, 47.816945)" fill="#000000">
                                <path d="M10.7051919,12.7726664 C10.6923251,12.7726664 10.6923251,12.7726664 10.6794582,12.7726664 C10.3835214,12.6824457 10.0875847,12.5793364 9.80451467,12.4504498 C9.6758465,12.3860065 9.53431151,12.3215631 9.39277652,12.2571198 C9.148307,12.1282332 8.90383747,11.9735692 8.65936795,11.8060166 C7.43702032,10.9424761 6.71647856,9.84693958 6.34334086,9.06073105 C5.79006772,8.94473307 5.22392777,8.89317842 4.67065463,8.90606708 C4.29751693,8.91895575 3.91151242,8.95762174 3.55124153,9.03495372 C3.49977427,9.04784239 2.05869074,9.47316831 1.24808126,9.370059 C1.02934537,9.34428167 0.874943567,9.26694968 0.797742664,9.12517438 C0.759142212,9.06073105 0.746275395,8.99628773 0.733408578,8.91895575 C0.733408578,8.80295777 0.759142212,8.68695979 0.772009029,8.64829379 C1.01647856,7.90075126 3.17810384,7.50120266 3.42257336,7.46253667 C4.41331828,7.29498403 5.42979684,7.21765205 6.45914221,7.23054071 C6.49774266,7.23054071 6.53634312,7.26920671 6.53634312,7.3078727 C6.53634312,7.34653869 6.49774266,7.38520469 6.45914221,7.38520469 L6.45914221,7.38520469 C5.44266366,7.37231602 4.4261851,7.44964801 3.448307,7.61720064 C2.65056433,7.75897595 1.08081264,8.15852455 0.913544018,8.69984845 C0.900677201,8.73851444 0.874943567,8.82873509 0.874943567,8.91895575 C0.874943567,8.9705104 0.887810384,9.02206506 0.913544018,9.04784239 C0.965011287,9.13806304 1.08081264,9.1896177 1.26094808,9.21539503 C2.03295711,9.31850434 3.49977427,8.88028975 3.51264108,8.88028975 C3.8986456,8.80295777 4.28465011,8.76429177 4.67065463,8.75140311 C5.26252822,8.73851444 5.84153499,8.7900691 6.42054176,8.91895575 C6.4462754,8.91895575 6.45914221,8.94473307 6.47200903,8.95762174 C6.84514673,9.7309416 7.53995485,10.8264781 8.76230248,11.6771299 C8.99390519,11.8446826 9.23837472,11.9864579 9.48284424,12.1153445 C9.61151242,12.1797878 9.7530474,12.2442312 9.88171558,12.3086745 C10.1519187,12.4375611 10.4478555,12.5406704 10.7309255,12.6180024 C10.769526,12.6308911 10.7952596,12.6695571 10.7823928,12.7082231 C10.769526,12.7468891 10.7437923,12.7726664 10.7051919,12.7726664 Z" id="Path"></path>
                                <path d="M12.4808126,6.39277753 C12.4679458,6.39277753 12.4422122,6.37988886 12.4293454,6.3670002 L12.2749436,6.21233623 C12.1462754,6.07056092 12.0047404,5.94167428 11.8760722,5.79989897 C11.5158014,5.43901636 11.1941309,5.11679976 10.8981941,4.83324914 C10.6665914,4.60125318 10.4349887,4.38214589 10.203386,4.15014993 C9.74018059,3.69904667 9.25124153,3.23505476 8.76230248,2.7839515 C8.51783296,2.65506486 8.27336343,2.51328955 8.02889391,2.38440291 C8.02889391,2.38440291 8.02889391,2.38440291 8.02889391,2.38440291 C8.02889391,2.38440291 8.02889391,2.38440291 8.02889391,2.38440291 L8.02889391,2.38440291 L7.82302483,2.28129359 C7.48848758,2.10085229 6.45914221,1.55952839 5.42979684,1.09553647 C4.41331828,0.644433219 3.6027088,0.360882602 3.04943567,0.270661952 C2.59909707,0.193329966 2.31602709,0.231995959 2.20022573,0.386659931 C2.08442438,0.541323904 2.13589165,0.799097191 2.14875847,0.850651849 C2.14875847,0.850651849 2.14875847,0.863540513 2.14875847,0.863540513 C2.23882619,1.21153445 2.77923251,1.49508507 3.08803612,1.62397171 C3.24243792,1.68841503 3.34537246,1.72708103 3.35823928,1.72708103 C3.71851016,1.85596767 4.06591422,2.01063164 4.41331828,2.17818428 C4.85079007,2.39729157 5.19819413,2.6035102 5.53273138,2.80972883 C5.71286682,2.91283815 5.89300226,3.02883613 6.06027088,3.14483411 C6.09887133,3.17061144 6.09887133,3.20927743 6.08600451,3.24794342 C6.06027088,3.28660941 6.02167043,3.29949808 5.98306998,3.27372075 C5.80293454,3.15772277 5.63566591,3.05461346 5.45553047,2.93861548 C5.12099323,2.73239685 4.78645598,2.52617822 4.3489842,2.31995959 C4.01444695,2.15240695 3.66704289,2.01063164 3.31963883,1.881745 C3.31963883,1.881745 3.20383747,1.84307901 3.04943567,1.77863568 C2.63769752,1.59819438 2.12302483,1.3017551 2.02009029,0.91509517 C2.02009029,0.91509517 2.02009029,0.902206506 2.02009029,0.902206506 C1.99435666,0.811985855 1.94288939,0.515546575 2.0972912,0.296439281 C2.251693,0.0902206506 2.57336343,0.0386659931 3.08803612,0.115997979 C3.66704289,0.20621863 4.47765237,0.489769246 5.50699774,0.953761164 C6.54920993,1.41775308 7.5785553,1.95907698 7.91309255,2.13951829 L8.11896163,2.2426276 C8.11896163,2.2426276 8.11896163,2.2426276 8.11896163,2.2426276 C8.11896163,2.2426276 8.11896163,2.2426276 8.11896163,2.2426276 L8.11896163,2.2426276 C8.37629797,2.37151424 8.62076749,2.51328955 8.86523702,2.65506486 C8.86523702,2.65506486 8.87810384,2.66795353 8.87810384,2.66795353 C9.36704289,3.13194544 9.85598194,3.59593736 10.3191874,4.04704061 C10.5507901,4.26614791 10.7823928,4.49814387 11.0139955,4.73013982 C11.3099323,5.01369044 11.6187359,5.33590705 11.9918736,5.69678965 C12.1334086,5.83856496 12.2620767,5.9674516 12.3907449,6.10922691 L12.5451467,6.26389088 C12.5708804,6.28966821 12.5708804,6.34122287 12.5451467,6.3670002 C12.5194131,6.37988886 12.4936795,6.39277753 12.4808126,6.39277753 Z" id="Path"></path>
                                <path d="M6.47200903,7.38520469 C6.45914221,7.38520469 6.45914221,7.38520469 6.4462754,7.38520469 C6.09887133,7.28209537 5.7772009,7.20476338 5.44266366,7.1274314 L5.40406321,7.11454273 C4.60632054,6.92121277 3.79571106,6.74077147 3.02370203,6.57321883 C1.98148984,6.34122287 1.31241535,6.21233623 1.31241535,6.21233623 L1.29954853,6.21233623 C1.09367946,6.17367023 0.836343115,6.12211558 0.604740406,6.0061176 C0.398871332,5.90300828 0.257336343,5.76123297 0.193002257,5.59368034 C0.0643340858,5.27146373 0.218735892,4.92346979 0.231602709,4.8848038 C0.257336343,4.82036048 0.308803612,4.76880582 0.36027088,4.73013982 C0.424604966,4.67858517 0.514672686,4.63991917 0.617607223,4.61414185 C1.02934537,4.49814387 1.76275395,4.53680986 2.83069977,4.71725116 L2.85643341,4.71725116 C2.92076749,4.73013982 2.98510158,4.74302849 3.06230248,4.75591715 C3.73137698,4.87191513 4.52911964,5.0652451 5.45553047,5.29724106 C6.0731377,5.45190503 6.78081264,5.64523499 7.55282167,5.86434229 C7.59142212,5.87723095 7.61715576,5.91589695 7.60428894,5.95456294 C7.59142212,5.99322893 7.55282167,6.01900626 7.51422122,6.0061176 C6.75507901,5.7870103 6.04740406,5.59368034 5.42979684,5.43901636 C4.51625282,5.20702041 3.70564334,5.02657911 3.04943567,4.89769246 C2.98510158,4.8848038 2.92076749,4.87191513 2.85643341,4.85902647 L2.83069977,4.85902647 C1.78848758,4.67858517 1.06794582,4.63991917 0.681941309,4.75591715 C0.591873589,4.78169448 0.527539503,4.80747181 0.476072235,4.8461378 C0.437471783,4.87191513 0.411738149,4.91058113 0.386004515,4.94924712 C0.373137698,4.98791311 0.231602709,5.27146373 0.347404063,5.54212568 C0.398871332,5.68390099 0.514672686,5.7870103 0.694808126,5.87723095 C0.900677201,5.98034027 1.14514673,6.03189493 1.3510158,6.07056092 L1.36388262,6.07056092 C1.37674944,6.07056092 2.04582393,6.21233623 3.08803612,6.43144352 C3.87291196,6.59899616 4.67065463,6.77943746 5.46839729,6.97276743 L5.50699774,6.98565609 C5.84153499,7.06298808 6.17607223,7.15320873 6.5234763,7.25631804 C6.54920993,7.26920671 6.57494357,7.29498403 6.57494357,7.33365003 C6.54920993,7.34653869 6.51060948,7.38520469 6.47200903,7.38520469 Z" id="Path"></path>
                                <path d="M7.51422122,6.0061176 C7.5013544,6.0061176 7.48848758,6.0061176 7.47562077,5.99322893 C6.72934537,5.59368034 6.03453725,5.25857506 5.39119639,4.98791311 C5.39119639,4.98791311 5.39119639,4.98791311 5.37832957,4.98791311 C5.26252822,4.93635845 5.15959368,4.89769246 5.05665914,4.85902647 C5.05665914,4.85902647 5.05665914,4.85902647 5.05665914,4.85902647 C4.31038375,4.56258719 3.62844244,4.34347989 3.01083521,4.21459325 C2.68916479,4.15014993 2.39322799,4.11148393 2.12302483,4.08570661 L2.07155756,4.08570661 C1.73702032,4.05992928 1.05507901,4.00837462 0.579006772,3.69904667 C0.411738149,3.5830487 0.283069977,3.45416205 0.205869074,3.28660941 C0.167268623,3.19638876 0.0257336343,2.87417215 0.154401806,2.6035102 C0.231602709,2.44884623 0.373137698,2.34573692 0.591873589,2.26840493 C0.617607223,2.25551627 0.643340858,2.25551627 0.669074492,2.2426276 C1.02934537,2.15240695 1.58261851,2.15240695 2.30316027,2.2426276 C2.52189616,2.26840493 2.76636569,2.30707092 3.03656885,2.35862558 C3.34537246,2.41018024 3.61557562,2.47462356 3.8214447,2.51328955 L3.84717833,2.51328955 C4.37471783,2.62928753 4.91512415,2.77106284 5.44266366,2.93861548 C5.64853273,3.0030588 5.82866817,3.06750212 6.00880361,3.13194544 C6.76794582,3.40260739 7.51422122,3.724824 8.2476298,4.09859527 C8.28623025,4.11148393 8.29909707,4.16303859 8.28623025,4.20170459 C8.27336343,4.24037058 8.22189616,4.25325924 8.18329571,4.24037058 C7.46275395,3.86659931 6.71647856,3.5443827 5.97020316,3.28660941 C5.80293454,3.22216609 5.60993228,3.15772277 5.41693002,3.10616811 C4.88939052,2.93861548 4.36185102,2.79684017 3.83431151,2.68084219 L3.80857788,2.68084219 C3.6027088,2.6421762 3.33250564,2.57773287 3.02370203,2.52617822 C2.75349887,2.47462356 2.52189616,2.43595757 2.30316027,2.41018024 C1.59548533,2.31995959 1.06794582,2.31995959 0.720541761,2.41018024 C0.694808126,2.41018024 0.669074492,2.4230689 0.656207675,2.43595757 C0.476072235,2.48751222 0.36027088,2.57773287 0.308803612,2.69373085 C0.205869074,2.89994948 0.334537246,3.1835001 0.36027088,3.24794342 C0.424604966,3.38971873 0.527539503,3.50571671 0.681941309,3.59593736 C1.11941309,3.89237664 1.8013544,3.9439313 2.0972912,3.95681996 L2.14875847,3.95681996 C2.43182844,3.98259729 2.72776524,4.02126328 3.04943567,4.08570661 C3.66704289,4.21459325 4.36185102,4.43370054 5.10812641,4.73013982 C5.10812641,4.73013982 5.10812641,4.73013982 5.12099323,4.73013982 C5.23679458,4.76880582 5.33972912,4.82036048 5.45553047,4.87191513 C5.45553047,4.87191513 5.46839729,4.87191513 5.46839729,4.87191513 C6.11173815,5.14257708 6.80654628,5.47768236 7.53995485,5.86434229 C7.53995485,5.86434229 7.55282167,5.86434229 7.55282167,5.86434229 C7.59142212,5.87723095 7.60428894,5.92878561 7.59142212,5.9674516 L7.59142212,5.9674516 C7.5785553,5.98034027 7.56568849,6.0061176 7.55282167,6.0061176 C7.53995485,6.0061176 7.52708804,6.0061176 7.51422122,6.0061176 Z" id="Path"></path>
                                <path d="M13.227088,5.37457304 L13.1884876,5.38746171 L12.6609481,5.54212568 L11.9275395,5.74834431 L11.1941309,5.02657911 C11.1941309,5.02657911 10.344921,1.95907698 11.2455982,1.7013037 C11.9404063,1.50797373 12.8024831,4.02126328 13.227088,5.37457304 Z" id="Path"></path>
                                <path d="M14.0505643,7.90075126 C14.0248307,7.90075126 13.9862302,7.8878626 13.9862302,7.8491966 L13.4072235,6.22522489 C13.3943567,6.1865589 13.368623,6.10922691 13.3300226,5.9674516 C13.2914221,5.8256763 13.227088,5.63234633 13.162754,5.40035037 C13.1498871,5.36168438 13.1756208,5.32301839 13.2142212,5.31012972 C13.2528217,5.29724106 13.2914221,5.32301839 13.3042889,5.36168438 C13.368623,5.59368034 13.4329571,5.7870103 13.4715576,5.92878561 C13.510158,6.05767225 13.5358916,6.14789291 13.5487585,6.17367023 L14.1277652,7.79764195 C14.1406321,7.83630794 14.1277652,7.87497393 14.0891648,7.90075126 C14.076298,7.90075126 14.0634312,7.90075126 14.0505643,7.90075126 Z" id="Path"></path>
                                <path d="M13.9733634,7.59142332 L9.84311512,12.3731178 C10.1647856,12.5148931 10.4478555,12.6180024 10.7051919,12.6824457 C11.824605,11.058474 12.9311512,9.43450232 14.0505643,7.81053061 C14.0505643,7.78475328 14.0505643,7.74608729 14.0376975,7.70742129 C14.0248307,7.65586664 13.9990971,7.61720064 13.9733634,7.59142332 Z" id="Path"></path>
                            </g>
                            <g id="body_2_" transform="translate(0.000000, 26.550649)" fill="#000000">
                                <path d="M4.96659142,42.5583698 C4.91512415,42.5583698 4.88939052,42.5583698 4.8765237,42.5583698 C4.8765237,42.5583698 4.8765237,42.5583698 4.8765237,42.5583698 C4.32325056,42.5583698 3.8214447,42.4681491 3.40970655,42.2748191 C1.94288939,41.8366046 0.926410835,39.7486409 0.386004515,36.0495942 C0.27020316,35.2891631 0.205869074,34.5673978 0.154401806,34.0905173 C0.141534989,33.9229646 0.128668172,33.7683007 0.115801354,33.6265253 C-0.218735892,30.146586 0.36027088,25.6613308 1.83995485,20.2996464 C2.67629797,17.2321443 3.8214447,13.8939802 5.13386005,10.6331481 C5.14672686,10.6073708 5.15959368,10.5944821 5.18532731,10.5815934 C5.21106095,10.5815934 5.23679458,10.5815934 5.2496614,10.6073708 L9.86884876,15.4535086 C9.88171558,15.4663972 9.89458239,15.4921746 9.89458239,15.5050632 L9.65011287,30.5590232 C9.65011287,30.5976892 9.61151242,30.6363552 9.57291196,30.6363552 C9.57291196,30.6363552 9.57291196,30.6363552 9.57291196,30.6363552 C9.53431151,30.6363552 9.49571106,30.5976892 9.49571106,30.5590232 L9.74018059,15.5308406 L5.21106095,10.7878121 C3.91151242,14.0099782 2.79209932,17.3094763 1.96862302,20.3254237 C0.501805869,25.6613308 -0.0772009029,30.1208086 0.257336343,33.5878594 C0.27020316,33.7296347 0.283069977,33.8842986 0.295936795,34.0518513 C0.347404063,34.5158432 0.411738149,35.2376084 0.527539503,35.9980396 C1.05507901,39.6326429 2.03295711,41.6819406 3.448307,42.1072665 C3.448307,42.1072665 3.46117381,42.1072665 3.46117381,42.1072665 C3.86004515,42.2877078 4.33611738,42.3779285 4.8765237,42.3779285 C4.88939052,42.3779285 5.93160271,42.4165944 7.11534989,41.9526025 C7.56568849,41.7721612 8.20902935,41.4112786 8.96817156,40.8957321 C9.13544018,40.7797341 9.31557562,40.6637361 9.49571106,40.5219608 C11.1426637,39.3490923 13.1370203,37.673566 15.1056433,35.791821 C15.131377,35.7660436 15.1828442,35.7660436 15.2085779,35.791821 C15.2343115,35.8175983 15.2343115,35.8691529 15.2085779,35.8949303 C13.2399549,37.7766753 11.2455982,39.4650903 9.58577878,40.6379588 C9.39277652,40.7797341 9.21264108,40.8957321 9.04537246,41.01173 C8.28623025,41.5272766 7.63002257,41.8881592 7.16681716,42.0814892 C6.1503386,42.5197038 5.2496614,42.5583698 4.96659142,42.5583698 Z" id="Path"></path>
                                <path d="M42.7306998,27.7879604 C42.6920993,27.7879604 42.6534989,27.7492944 42.6534989,27.7106284 C42.6406321,25.0684522 42.6406321,22.4391647 42.6277652,19.7969885 L42.6277652,19.1010006 C42.6277652,19.0623346 42.6663657,19.0236686 42.7049661,19.0236686 C42.7049661,19.0236686 42.7049661,19.0236686 42.7049661,19.0236686 C42.7435666,19.0236686 42.782167,19.0623346 42.782167,19.1010006 L42.782167,19.7969885 C42.7950339,22.4391647 42.7950339,25.0684522 42.8079007,27.7106284 C42.8079007,27.7492944 42.7693002,27.7879604 42.7306998,27.7879604 C42.7306998,27.7879604 42.7306998,27.7879604 42.7306998,27.7879604 Z" id="Path"></path>
                                <path d="M7.0510158,61.3242651 C7.02528217,61.3242651 7.01241535,61.3113764 6.98668172,61.2984878 C6.9738149,61.2727104 6.9738149,61.2469331 6.9738149,61.2340444 L15.0413093,35.9078189 C15.4530474,34.6060638 15.8776524,33.2914201 16.2893905,31.989665 L17.6275395,27.7750717 C17.8076749,27.1950818 18.0006772,26.6279806 18.1808126,26.0479907 C18.438149,25.2231162 18.7083521,24.3982417 18.9656885,23.5862558 L19.5961625,21.6014015 C19.6090293,21.5627355 19.6476298,21.5369582 19.6862302,21.5498468 C19.7248307,21.5627355 19.7505643,21.6014015 19.7376975,21.6400675 L19.1072235,23.6249218 C18.8498871,24.4497963 18.579684,25.2746708 18.3223476,26.0866567 C18.1422122,26.6666466 17.9620767,27.2337478 17.7690745,27.8137377 L16.4309255,32.028331 C16.0191874,33.3300861 15.5945824,34.6447298 15.1828442,35.9464849 L7.15395034,61.1696011 L42.7564334,59.3007448 C42.7564334,55.8079167 42.7435666,52.263534 42.7306998,48.7835946 C42.717833,44.4916694 42.6920993,41.2179487 42.6663657,38.1633352 C42.6663657,38.1246692 42.7049661,38.0860032 42.7435666,38.0860032 C42.7435666,38.0860032 42.7435666,38.0860032 42.7435666,38.0860032 C42.782167,38.0860032 42.8207675,38.1246692 42.8207675,38.1633352 C42.8465011,41.2179487 42.8593679,44.5045581 42.8851016,48.7835946 C42.8979684,52.3022 42.9108352,55.8594714 42.9108352,59.3780768 C42.9108352,59.4167428 42.8851016,59.4554087 42.8465011,59.4554087 L7.0510158,61.3242651 C7.0510158,61.3242651 7.0510158,61.3242651 7.0510158,61.3242651 Z" id="Path"></path>
                                <path d="M47.7230248,26.7697559 C47.6972912,26.7697559 47.6715576,26.7568672 47.6586907,26.7310899 C45.9860045,24.2049117 44.3133183,21.6658448 42.6406321,19.1396666 C42.6148984,19.1010006 42.6277652,19.0623346 42.6663657,19.0365573 C42.7049661,19.0107799 42.7435666,19.0236686 42.7693002,19.0623346 C44.4419865,21.5885128 46.1146727,24.1275797 47.7873589,26.6537579 C47.8130926,26.6924239 47.8002257,26.7310899 47.7616253,26.7568672 C47.7616253,26.7697559 47.7487585,26.7697559 47.7230248,26.7697559 Z" id="Path"></path>
                                <path d="M27.2261851,18.894782 C27.2261851,18.894782 27.2133183,18.894782 27.2261851,18.894782 C27.1875847,18.894782 27.161851,18.8690046 27.1489842,18.8432273 L24.2539503,8.63540513 C24.2410835,8.59673914 24.2668172,8.55807314 24.3054176,8.54518448 C24.3440181,8.53229581 24.3826185,8.55807314 24.3954853,8.59673914 L27.2519187,18.6498973 L30.4814898,14.1001988 C32.4758465,11.2775813 34.4702032,8.45496383 36.4645598,5.64523499 C36.4902935,5.606569 36.5288939,5.606569 36.5674944,5.63234633 C36.6060948,5.65812366 36.6060948,5.70967832 36.5803612,5.73545565 C34.5860045,8.55807314 32.5916479,11.3806906 30.5972912,14.1904195 L27.2905192,18.8690046 C27.2776524,18.894782 27.2519187,18.894782 27.2261851,18.894782 Z" id="Path"></path>
                                <path d="M9.6758465,23.9729157 C9.66297968,23.9729157 9.65011287,23.9729157 9.63724605,23.9600271 C9.5986456,23.9342497 9.58577878,23.8955837 9.61151242,23.8569178 C9.76591422,23.5604785 9.94604966,23.2511505 10.1261851,22.9289339 C10.5121896,22.2458347 10.9239278,21.5627355 11.3356659,20.9054136 C14.2950339,16.2526058 19.4674944,10.1176015 27.2647856,7.25631804 L27.3162528,3.57016003 C27.3162528,3.53149404 27.3548533,3.49282804 27.3934537,3.49282804 C27.4320542,3.49282804 27.4706546,3.53149404 27.4706546,3.57016003 L27.4191874,7.3078727 C27.4191874,7.33365003 27.3934537,7.37231602 27.3677201,7.37231602 C19.5832957,10.2078222 14.423702,16.3428264 11.4643341,20.9827456 C11.0525959,21.6400675 10.6408578,22.310278 10.2548533,23.0062659 C10.0747178,23.3155938 9.90744921,23.6378105 9.74018059,23.9342497 C9.72731377,23.9471384 9.70158014,23.9729157 9.6758465,23.9729157 Z" id="Path"></path>
                                <path d="M42.3060948,38.2406672 C37.6740406,38.2406672 33.8783296,36.4104769 31.7939052,35.1216104 C31.7810384,35.1087217 31.7681716,35.0958331 31.7553047,35.0700558 C31.7553047,35.0442784 31.7553047,35.0313898 31.7681716,35.0056124 C32.2185102,34.3611792 32.6688488,33.7038573 33.1063205,33.0465354 L33.8397291,31.9767763 C34.5088036,30.9972378 35.1778781,30.0176993 35.8598194,29.0381608 C35.8726862,29.0252722 35.885553,29.0123835 35.9112867,29.0123835 L36.451693,28.9092742 C36.593228,28.8834969 36.734763,28.8577195 36.876298,28.8190535 C41.4440181,27.8910697 45.9988713,26.9759745 50.5665914,26.0479907 C50.6051919,26.035102 50.6437923,26.0608794 50.6566591,26.112434 C50.669526,26.1511 50.6437923,26.189766 50.5923251,26.2026547 C46.024605,27.1306385 41.4697517,28.0457337 36.9020316,28.9737175 C36.7604966,28.9994948 36.6189616,29.0252722 36.4774266,29.0639382 L35.9756208,29.1670475 C35.3065463,30.1336973 34.6374718,31.1132358 33.9812641,32.0798856 L33.2478555,33.1496448 C32.8103837,33.7811893 32.3857788,34.4127339 31.948307,35.0313898 C34.5988713,36.6424728 39.9257336,39.091319 46.1532731,37.6477886 C47.3498871,37.364238 50.527991,36.6295841 53.1399549,34.5931752 C53.4358916,34.3611792 53.7189616,34.1291833 53.976298,33.87141 C54.9799097,32.9176488 55.7261851,31.8092237 56.2022573,30.5976892 C57.1544018,28.187509 56.7683973,26.0093247 56.43386,24.0889137 C56.4209932,24.0115817 56.4081264,23.9213611 56.3823928,23.8440291 L56.369526,23.7666971 C56.3566591,23.6764765 56.3309255,23.5733671 56.3180587,23.4831465 C54.2079007,13.133549 47.285553,7.69453263 41.9844244,6.19944756 C39.2566591,5.4261277 36.3487585,5.34879571 33.3507901,5.95456294 C33.3250564,5.95456294 33.3121896,5.95456294 33.286456,5.94167428 C33.2735892,5.92878561 33.2607223,5.90300828 33.2607223,5.87723095 C33.2735892,4.93635845 33.2993228,3.96970863 33.3379233,3.01594746 C33.3765237,2.0621863 33.4408578,1.10842514 33.5180587,0.167552637 C33.5180587,0.128886644 33.5566591,0.0902206506 33.5952596,0.103109315 C33.63386,0.103109315 33.6724605,0.141775308 33.6595937,0.180441301 C33.5823928,1.1213138 33.5180587,2.07507496 33.4794582,3.02883613 C33.4408578,3.95681996 33.4151242,4.8848038 33.4022573,5.7870103 C36.4002257,5.19413174 39.2952596,5.28435239 42.010158,6.04478359 C45.88307,7.14032006 49.331377,9.65360961 51.9948081,13.3011016 C54.889842,17.2708103 56.0349887,21.3694055 56.4595937,23.4573692 C56.4853273,23.5475898 56.4981941,23.6506991 56.5110609,23.7409198 L56.5239278,23.8182518 C56.5367946,23.9084724 56.5496614,23.9858044 56.575395,24.0631364 C56.8970655,25.9062154 57.2959368,28.2003976 56.3309255,30.6492439 C55.8419865,31.8865557 55.0828442,33.0078695 54.0663657,33.9745193 C53.8090293,34.2194039 53.5130926,34.4642885 53.2171558,34.6962845 C50.5794582,36.7584708 47.3884876,37.4931247 46.1790068,37.7766753 C44.8408578,38.0988919 43.5541761,38.2406672 42.3060948,38.2406672 Z" id="Path"></path>
                                <g id="pattern_2_" transform="translate(11.322799, 5.542126)">
                                    <g id="Group">
                                        <path d="M13.0469526,3.32527541 L12.6609481,3.32527541 C12.6223476,3.32527541 12.5837472,3.28660941 12.5837472,3.24794342 C12.5837472,3.20927743 12.6223476,3.17061144 12.6609481,3.17061144 L13.0469526,3.17061144 C13.085553,3.17061144 13.1241535,3.20927743 13.1241535,3.24794342 C13.1241535,3.28660941 13.085553,3.32527541 13.0469526,3.32527541 Z" id="Path"></path>
                                        <path d="M28.0367946,3.32527541 L23.0058691,3.32527541 C22.9672686,3.32527541 22.9286682,3.28660941 22.9286682,3.24794342 C22.9286682,3.20927743 22.9672686,3.17061144 23.0058691,3.17061144 L30.4428894,3.17061144 L31.3950339,3.13194544 C31.3950339,3.13194544 31.3950339,3.13194544 31.3950339,3.13194544 C31.4336343,3.13194544 31.4722348,3.15772277 31.4722348,3.20927743 C31.4722348,3.24794342 31.4465011,3.28660941 31.3950339,3.28660941 L30.4428894,3.32527541 L28.0367946,3.32527541 Z" id="Path"></path>
                                        <path d="M32.0769752,5.7870103 L21.2559819,5.7870103 C21.2173815,5.7870103 21.178781,5.74834431 21.178781,5.70967832 C21.178781,5.67101232 21.2173815,5.63234633 21.2559819,5.63234633 L32.0769752,5.63234633 C32.1155756,5.63234633 32.1541761,5.67101232 32.1541761,5.70967832 C32.1541761,5.76123297 32.1155756,5.7870103 32.0769752,5.7870103 Z" id="Path"></path>
                                        <path d="M1.17088036,5.7870103 L1.17088036,5.7870103 C1.13227991,5.7870103 1.09367946,5.74834431 1.09367946,5.70967832 C1.09367946,5.67101232 1.13227991,5.63234633 1.17088036,5.63234633 C1.20948081,5.63234633 1.24808126,5.67101232 1.24808126,5.70967832 C1.24808126,5.76123297 1.20948081,5.7870103 1.17088036,5.7870103 Z" id="Path"></path>
                                        <path d="M13.7546275,5.7870103 L8.81376975,5.7870103 C8.7751693,5.7870103 8.73656885,5.74834431 8.73656885,5.70967832 C8.73656885,5.67101232 8.7751693,5.63234633 8.81376975,5.63234633 L13.7546275,5.63234633 C13.793228,5.63234633 13.8318284,5.67101232 13.8318284,5.70967832 C13.8318284,5.76123297 13.793228,5.7870103 13.7546275,5.7870103 Z" id="Path"></path>
                                        <path d="M32.7460497,8.26163386 L19.5189616,8.26163386 C19.4803612,8.26163386 19.4417607,8.22296787 19.4417607,8.18430188 C19.4417607,8.14563588 19.4803612,8.10696989 19.5189616,8.10696989 L32.7460497,8.10696989 C32.7846501,8.10696989 32.8232506,8.14563588 32.8232506,8.18430188 C32.8232506,8.22296787 32.7846501,8.26163386 32.7460497,8.26163386 Z" id="Path"></path>
                                        <path d="M14.4494357,8.26163386 L5.91873589,8.26163386 C5.88013544,8.26163386 5.84153499,8.22296787 5.84153499,8.18430188 C5.84153499,8.14563588 5.88013544,8.10696989 5.91873589,8.10696989 L14.4494357,8.10696989 C14.4880361,8.10696989 14.5266366,8.14563588 14.5266366,8.18430188 C14.5266366,8.22296787 14.4880361,8.26163386 14.4494357,8.26163386 Z" id="Path"></path>
                                        <path d="M30.4428894,10.7233688 L17.7690745,10.7233688 C17.730474,10.7233688 17.6918736,10.6847028 17.6918736,10.6460368 C17.6918736,10.6073708 17.730474,10.5687048 17.7690745,10.5687048 L32.8361174,10.5687048 C33.0291196,10.5687048 33.2092551,10.5558161 33.4022573,10.5558161 C33.4408578,10.5558161 33.4794582,10.5815934 33.4794582,10.6331481 C33.4794582,10.6718141 33.4537246,10.7104801 33.4022573,10.7104801 C33.2092551,10.7104801 33.0291196,10.7233688 32.8361174,10.7233688 L32.6045147,10.7233688 L30.4428894,10.7233688 Z" id="Path"></path>
                                        <path d="M15.1571106,10.7233688 L3.58984199,10.7233688 C3.55124153,10.7233688 3.51264108,10.6847028 3.51264108,10.6460368 C3.51264108,10.6073708 3.55124153,10.5687048 3.58984199,10.5687048 L15.1571106,10.5687048 C15.1957111,10.5687048 15.2343115,10.6073708 15.2343115,10.6460368 C15.2343115,10.6847028 15.1957111,10.7233688 15.1571106,10.7233688 Z" id="Path"></path>
                                        <path d="M30.4428894,13.1851037 L16.0320542,13.1851037 C15.9934537,13.1851037 15.9548533,13.1464377 15.9548533,13.1077717 C15.9548533,13.0691057 15.9934537,13.0304397 16.0320542,13.0304397 L32.861851,13.0304397 C33.2607223,13.017551 33.6724605,13.017551 34.0713318,13.0046624 C34.1099323,13.0046624 34.1485327,13.0433283 34.1485327,13.0819943 C34.1485327,13.1206603 34.1227991,13.1593263 34.0713318,13.1593263 C33.6724605,13.1593263 33.2607223,13.172215 32.861851,13.1851037 L32.8361174,13.1851037 L30.4428894,13.1851037 Z" id="Path"></path>
                                        <path d="M15.8519187,13.1851037 L1.63408578,13.1851037 C1.59548533,13.1851037 1.55688488,13.1464377 1.55688488,13.1077717 C1.55688488,13.0691057 1.59548533,13.0304397 1.63408578,13.0304397 L15.8519187,13.0304397 C15.8905192,13.0304397 15.9291196,13.0691057 15.9291196,13.1077717 C15.9291196,13.1593263 15.903386,13.1851037 15.8519187,13.1851037 Z" id="Path"></path>
                                        <path d="M32.8489842,15.6468385 L32.720316,15.6468385 C32.6817156,15.6468385 32.6431151,15.6081726 32.6431151,15.5695066 C32.6431151,15.5308406 32.6817156,15.4921746 32.720316,15.4921746 L34.7532731,15.4921746 L34.7532731,15.4921746 C34.7918736,15.4921746 34.830474,15.5308406 34.830474,15.5695066 C34.830474,15.6081726 34.7918736,15.6468385 34.7532731,15.6468385 L32.8489842,15.6468385 Z" id="Path"></path>
                                        <path d="M31.3950339,15.6468385 L0.128668172,15.6468385 C0.0900677201,15.6468385 0.0514672686,15.6081726 0.0514672686,15.5695066 C0.0514672686,15.5308406 0.0900677201,15.4921746 0.128668172,15.4921746 L31.3950339,15.4921746 C31.4336343,15.4921746 31.4722348,15.5308406 31.4722348,15.5695066 C31.4722348,15.6081726 31.4336343,15.6468385 31.3950339,15.6468385 Z" id="Path"></path>
                                        <path d="M11.258465,18.1214621 L0.784875847,18.1214621 C0.746275395,18.1214621 0.707674944,18.0827961 0.707674944,18.0441301 C0.707674944,18.0054641 0.746275395,17.9667981 0.784875847,17.9667981 L11.258465,17.9667981 C11.2970655,17.9667981 11.3356659,18.0054641 11.3356659,18.0441301 C11.3356659,18.0827961 11.2970655,18.1214621 11.258465,18.1214621 Z" id="Path"></path>
                                        <path d="M15.0670429,18.1343508 C15.0670429,18.1343508 15.0670429,18.1343508 15.0670429,18.1343508 C14.7839729,18.1343508 14.5009029,18.1214621 14.217833,18.1214621 C14.0119639,18.1214621 13.793228,18.1214621 13.5873589,18.1214621 L12.8668172,18.1214621 C12.8282167,18.1214621 12.7896163,18.0827961 12.7896163,18.0441301 C12.7896163,18.0054641 12.8282167,17.9667981 12.8668172,17.9667981 L13.5873589,17.9667981 C13.793228,17.9667981 14.0119639,17.9667981 14.217833,17.9667981 C14.5009029,17.9667981 14.7839729,17.9667981 15.0670429,17.9796868 C15.1056433,17.9796868 15.1442438,18.0183528 15.1442438,18.0570188 C15.1442438,18.0956848 15.1056433,18.1343508 15.0670429,18.1343508 Z" id="Path"></path>
                                        <path d="M28.0367946,18.1214621 L18.6054176,18.1214621 C18.5668172,18.1214621 18.5282167,18.0827961 18.5282167,18.0441301 C18.5282167,18.0054641 18.5668172,17.9667981 18.6054176,17.9667981 L30.4428894,17.9667981 L31.4079007,17.9539095 C31.4079007,17.9539095 31.4079007,17.9539095 31.4079007,17.9539095 C31.4465011,17.9539095 31.4851016,17.9925755 31.4851016,18.0312415 C31.4851016,18.0699074 31.4593679,18.1085734 31.4079007,18.1085734 L30.4428894,18.1214621 L28.0367946,18.1214621 Z" id="Path"></path>
                                        <path d="M15.6460497,20.583197 L15.6460497,20.583197 C14.9641084,20.583197 14.282167,20.583197 13.5873589,20.583197 L13.368623,20.583197 C13.3300226,20.583197 13.2914221,20.544531 13.2914221,20.505865 C13.2914221,20.467199 13.3300226,20.428533 13.368623,20.428533 L13.5873589,20.428533 C14.2693002,20.428533 14.9512415,20.428533 15.6331828,20.428533 C15.6717833,20.428533 15.7103837,20.467199 15.7103837,20.505865 C15.7232506,20.5574197 15.6846501,20.583197 15.6460497,20.583197 Z" id="Path"></path>
                                        <path d="M10.9625282,20.583197 L1.46681716,20.583197 C1.4282167,20.583197 1.38961625,20.544531 1.38961625,20.505865 C1.38961625,20.467199 1.4282167,20.428533 1.46681716,20.428533 L10.9625282,20.428533 C11.0011287,20.428533 11.0397291,20.467199 11.0397291,20.505865 C11.0268623,20.544531 11.0011287,20.583197 10.9625282,20.583197 Z" id="Path"></path>
                                        <path d="M25.8494357,20.583197 L21.5004515,20.583197 C21.461851,20.583197 21.4232506,20.544531 21.4232506,20.505865 C21.4232506,20.467199 21.461851,20.428533 21.5004515,20.428533 L25.8494357,20.428533 C25.8880361,20.428533 25.9266366,20.467199 25.9266366,20.505865 C25.9266366,20.544531 25.8880361,20.583197 25.8494357,20.583197 Z" id="Path"></path>
                                        <path d="M11.1941309,23.0449319 L2.13589165,23.0449319 C2.0972912,23.0449319 2.05869074,23.0062659 2.05869074,22.9675999 C2.05869074,22.9289339 2.0972912,22.8902679 2.13589165,22.8902679 L13.6002257,22.8902679 L16.5595937,22.8516019 C16.5981941,22.8516019 16.6367946,22.8902679 16.6367946,22.9289339 C16.6367946,22.9675999 16.6110609,23.0062659 16.5595937,23.0062659 L13.6002257,23.0449319 L11.1941309,23.0449319 Z" id="Path"></path>
                                        <path d="M8.58216704,25.5195555 L2.80496614,25.5195555 C2.76636569,25.5195555 2.72776524,25.4808895 2.72776524,25.4422235 C2.72776524,25.4035575 2.76636569,25.3648915 2.80496614,25.3648915 L8.58216704,25.3648915 C8.62076749,25.3648915 8.65936795,25.4035575 8.65936795,25.4422235 C8.65936795,25.4808895 8.62076749,25.5195555 8.58216704,25.5195555 Z" id="Path"></path>
                                        <path d="M1.56975169,21.0085229 C1.53115124,21.0085229 1.49255079,20.9698569 1.49255079,20.9311909 L1.49255079,13.1979923 C1.49255079,13.1593263 1.53115124,13.1206603 1.56975169,13.1206603 C1.60835214,13.1206603 1.6469526,13.1593263 1.6469526,13.1979923 L1.6469526,20.9311909 C1.6469526,20.9698569 1.60835214,21.0085229 1.56975169,21.0085229 Z" id="Path"></path>
                                        <path d="M3.9758465,26.8341992 C3.93724605,26.8341992 3.8986456,26.7955332 3.8986456,26.7568672 L3.8986456,10.2078222 C3.8986456,10.1691562 3.93724605,10.1304902 3.9758465,10.1304902 C4.01444695,10.1304902 4.0530474,10.1691562 4.0530474,10.2078222 L4.0530474,26.7568672 C4.0530474,26.7955332 4.01444695,26.8341992 3.9758465,26.8341992 Z" id="Path"></path>
                                        <path d="M6.38194131,26.1382113 C6.34334086,26.1382113 6.30474041,26.0995454 6.30474041,26.0608794 L6.30474041,7.74608729 C6.30474041,7.70742129 6.34334086,7.6687553 6.38194131,7.6687553 C6.42054176,7.6687553 6.45914221,7.70742129 6.45914221,7.74608729 L6.45914221,26.0608794 C6.45914221,26.112434 6.42054176,26.1382113 6.38194131,26.1382113 Z" id="Path"></path>
                                        <path d="M8.78803612,25.4551121 C8.74943567,25.4551121 8.71083521,25.4164461 8.71083521,25.3777801 L8.71083521,5.73545565 C8.71083521,5.69678965 8.74943567,5.65812366 8.78803612,5.65812366 C8.82663657,5.65812366 8.86523702,5.69678965 8.86523702,5.73545565 L8.86523702,25.3777801 C8.86523702,25.4164461 8.82663657,25.4551121 8.78803612,25.4551121 Z" id="Path"></path>
                                        <path d="M11.2069977,24.7591243 C11.1683973,24.7591243 11.1297968,24.7204583 11.1297968,24.6817923 L11.1040632,22.9675999 L11.1040632,21.6529561 C11.1040632,21.6142902 11.1426637,21.5756242 11.1812641,21.5756242 C11.2198646,21.5756242 11.258465,21.6142902 11.258465,21.6529561 L11.258465,22.9675999 L11.2841986,24.6817923 C11.2841986,24.7333469 11.258465,24.7591243 11.2069977,24.7591243 C11.2198646,24.7591243 11.2198646,24.7591243 11.2069977,24.7591243 Z" id="Path"></path>
                                        <path d="M11.1941309,18.1343508 C11.1555305,18.1343508 11.11693,18.0956848 11.11693,18.0570188 L11.11693,4.08570661 C11.11693,4.04704061 11.1555305,4.00837462 11.1941309,4.00837462 C11.2327314,4.00837462 11.2713318,4.04704061 11.2713318,4.08570661 L11.2713318,18.0570188 C11.258465,18.1085734 11.2327314,18.1343508 11.1941309,18.1343508 Z" id="Path"></path>
                                        <path d="M11.1941309,20.4800877 C11.1555305,20.4800877 11.11693,20.4414217 11.11693,20.4027557 L11.11693,19.3587739 C11.11693,19.3201079 11.1555305,19.2814419 11.1941309,19.2814419 C11.2327314,19.2814419 11.2713318,19.3201079 11.2713318,19.3587739 L11.2713318,20.4027557 C11.258465,20.4414217 11.2327314,20.4800877 11.1941309,20.4800877 Z" id="Path"></path>
                                        <path d="M13.5873589,20.621863 C13.5487585,20.621863 13.510158,20.583197 13.510158,20.544531 L13.510158,20.2996464 C13.510158,20.2609804 13.5487585,20.2223144 13.5873589,20.2223144 C13.6259594,20.2223144 13.6645598,20.2609804 13.6645598,20.2996464 L13.6645598,20.544531 C13.6645598,20.583197 13.6388262,20.621863 13.5873589,20.621863 Z" id="Path"></path>
                                        <path d="M13.5873589,22.7871586 C13.5487585,22.7871586 13.510158,22.7484926 13.510158,22.7098266 L13.510158,22.2200574 C13.510158,22.1813914 13.5487585,22.1427254 13.5873589,22.1427254 C13.6259594,22.1427254 13.6645598,22.1813914 13.6645598,22.2200574 L13.6645598,22.7098266 C13.6645598,22.7484926 13.6388262,22.7871586 13.5873589,22.7871586 Z" id="Path"></path>
                                        <path d="M13.5873589,15.9948325 C13.5487585,15.9948325 13.510158,15.9561665 13.510158,15.9175005 L13.510158,5.15546575 C13.510158,5.11679976 13.5487585,5.07813376 13.5873589,5.07813376 C13.6259594,5.07813376 13.6645598,5.11679976 13.6645598,5.15546575 L13.6645598,15.9175005 C13.6645598,15.9561665 13.6388262,15.9948325 13.5873589,15.9948325 Z" id="Path"></path>
                                        <path d="M13.5873589,20.583197 C13.5487585,20.583197 13.510158,20.544531 13.510158,20.505865 L13.510158,19.8614318 C13.510158,19.8227658 13.5487585,19.7840998 13.5873589,19.7840998 C13.6259594,19.7840998 13.6645598,19.8227658 13.6645598,19.8614318 L13.6645598,20.505865 C13.6645598,20.544531 13.6388262,20.583197 13.5873589,20.583197 Z" id="Path"></path>
                                        <path d="M13.5873589,18.2374601 C13.5487585,18.2374601 13.510158,18.1987941 13.510158,18.1601281 L13.510158,17.4254742 C13.510158,17.3868082 13.5487585,17.3481422 13.5873589,17.3481422 C13.6259594,17.3481422 13.6645598,17.3868082 13.6645598,17.4254742 L13.6645598,18.1601281 C13.6645598,18.1987941 13.6388262,18.2374601 13.5873589,18.2374601 Z" id="Path"></path>
                                        <path d="M13.5873589,23.4187032 C13.5487585,23.4187032 13.510158,23.3800372 13.510158,23.3413712 L13.510158,22.619606 C13.510158,22.58094 13.5487585,22.542274 13.5873589,22.542274 C13.6259594,22.542274 13.6645598,22.58094 13.6645598,22.619606 L13.6645598,23.3413712 C13.6645598,23.3800372 13.6388262,23.4187032 13.5873589,23.4187032 Z" id="Path"></path>
                                        <path d="M15.9934537,16.8325957 C15.9548533,16.8325957 15.9162528,16.7939297 15.9162528,16.7552637 L15.9162528,13.1593263 C15.9162528,13.1206603 15.9548533,13.0819943 15.9934537,13.0819943 C16.0320542,13.0819943 16.0706546,13.1206603 16.0706546,13.1593263 L16.0706546,16.7552637 C16.0706546,16.7939297 16.0320542,16.8325957 15.9934537,16.8325957 Z" id="Path"></path>
                                        <path d="M15.9934537,18.81745 C15.9548533,18.81745 15.9162528,18.778784 15.9162528,18.740118 L15.9162528,18.6370087 C15.9162528,18.5983427 15.9548533,18.5596767 15.9934537,18.5596767 C16.0320542,18.5596767 16.0706546,18.5983427 16.0706546,18.6370087 L16.0706546,18.740118 C16.0706546,18.7916727 16.0320542,18.81745 15.9934537,18.81745 Z" id="Path"></path>
                                        <path d="M15.9677201,23.1222639 C15.9291196,23.1222639 15.8905192,23.0835979 15.8905192,23.0449319 L15.8905192,22.9418226 C15.8905192,22.8773793 15.8905192,22.8129359 15.8905192,22.7484926 C15.8905192,22.7098266 15.9291196,22.6711606 15.9677201,22.6711606 C15.9677201,22.6711606 15.9677201,22.6711606 15.9677201,22.6711606 C16.0063205,22.6711606 16.044921,22.7098266 16.044921,22.7484926 C16.044921,22.8129359 16.044921,22.8773793 16.044921,22.9418226 L16.044921,23.0449319 C16.044921,23.0835979 16.0191874,23.1222639 15.9677201,23.1222639 Z" id="Path"></path>
                                        <path d="M15.9805869,21.1631869 C15.9419865,21.1631869 15.903386,21.1245209 15.903386,21.0858549 C15.903386,20.9440796 15.903386,20.8023043 15.903386,20.6476403 C15.903386,20.6089743 15.9419865,20.5703083 15.9805869,20.5703083 C15.9805869,20.5703083 15.9805869,20.5703083 15.9805869,20.5703083 C16.0191874,20.5703083 16.0577878,20.6089743 16.0577878,20.6476403 C16.0577878,20.7894156 16.0577878,20.9440796 16.0577878,21.0858549 C16.0577878,21.1245209 16.0191874,21.1631869 15.9805869,21.1631869 Z" id="Path"></path>
                                        <path d="M18.3995485,18.0054641 C18.3609481,18.0054641 18.3223476,17.9667981 18.3223476,17.9281321 L18.3223476,9.75671893 C18.3223476,9.71805294 18.3609481,9.67938694 18.3995485,9.67938694 C18.438149,9.67938694 18.4767494,9.71805294 18.4767494,9.75671893 L18.4767494,17.9281321 C18.4767494,17.9796868 18.438149,18.0054641 18.3995485,18.0054641 Z" id="Path"></path>
                                        <path d="M20.8056433,19.9000978 C20.7670429,19.9000978 20.7284424,19.8614318 20.7284424,19.8227658 L20.7284424,6.35411154 C20.7284424,6.31544554 20.7670429,6.27677955 20.8056433,6.27677955 C20.8442438,6.27677955 20.8828442,6.31544554 20.8828442,6.35411154 L20.8828442,19.8227658 C20.8828442,19.8743205 20.8442438,19.9000978 20.8056433,19.9000978 Z" id="Path"></path>
                                        <path d="M23.2117381,21.0343003 C23.1731377,21.0343003 23.1345372,20.9956343 23.1345372,20.9569683 L23.1345372,2.96439281 C23.1345372,2.92572681 23.1731377,2.88706082 23.2117381,2.88706082 C23.2503386,2.88706082 23.2889391,2.92572681 23.2889391,2.96439281 L23.2889391,20.9569683 C23.2760722,20.9956343 23.2503386,21.0343003 23.2117381,21.0343003 Z" id="Path"></path>
                                        <path d="M25.6306998,20.6476403 C25.5920993,20.6476403 25.5534989,20.6089743 25.5534989,20.5703083 L25.5534989,0.141775308 C25.5534989,0.103109315 25.5920993,0.0644433219 25.6306998,0.0644433219 C25.6693002,0.0644433219 25.7079007,0.103109315 25.7079007,0.141775308 L25.7079007,20.5703083 C25.7079007,20.6089743 25.6693002,20.6476403 25.6306998,20.6476403 Z" id="Path"></path>
                                        <path d="M28.0367946,19.9645411 C27.9981941,19.9645411 27.9595937,19.9258751 27.9595937,19.8872091 L27.9595937,0.244884623 C27.9595937,0.20621863 27.9981941,0.167552637 28.0367946,0.167552637 C28.075395,0.167552637 28.1139955,0.20621863 28.1139955,0.244884623 L28.1139955,19.8743205 C28.1139955,19.9258751 28.075395,19.9645411 28.0367946,19.9645411 Z" id="Path"></path>
                                        <path d="M30.4428894,19.2685532 C30.4042889,19.2685532 30.3656885,19.2298872 30.3656885,19.1912212 L30.3656885,0.541323904 C30.3656885,0.502657911 30.4042889,0.463991917 30.4428894,0.463991917 C30.4814898,0.463991917 30.5200903,0.502657911 30.5200903,0.541323904 L30.5200903,19.2041099 C30.5072235,19.2427759 30.4814898,19.2685532 30.4428894,19.2685532 Z" id="Path"></path>
                                        <path d="M32.8361174,15.8401685 C32.7975169,15.8401685 32.7589165,15.8015025 32.7589165,15.7628365 L32.7589165,8.54518448 C32.7589165,8.50651849 32.7975169,8.46785249 32.8361174,8.46785249 C32.8747178,8.46785249 32.9133183,8.50651849 32.9133183,8.54518448 L32.9133183,15.7628365 C32.9133183,15.8015025 32.8875847,15.8401685 32.8361174,15.8401685 Z" id="Path"></path>
                                    </g>
                                    <path d="M24.6528217,0.992427157 C24.6399549,0.992427157 24.627088,0.992427157 24.6142212,0.979538492 C24.5756208,0.953761164 24.5756208,0.91509517 24.5884876,0.876429177 C24.6142212,0.82487452 24.6142212,0.82487452 25.6306998,0.82487452 C26.2611738,0.82487452 27.1361174,0.82487452 28.0367946,0.82487452 C28.7444695,0.82487452 29.4650113,0.82487452 30.1083521,0.837763184 L30.468623,0.837763184 C30.5715576,0.837763184 30.6744921,0.837763184 30.7774266,0.837763184 C30.8160271,0.837763184 30.8546275,0.876429177 30.8546275,0.91509517 C30.8546275,0.953761164 30.8160271,0.992427157 30.7774266,0.992427157 C30.6744921,0.992427157 30.5715576,0.992427157 30.468623,0.992427157 L30.1083521,0.992427157 C29.4650113,0.992427157 28.7444695,0.992427157 28.0367946,0.979538492 C27.1361174,0.979538492 26.2611738,0.979538492 25.6306998,0.979538492 C24.8715576,0.979538492 24.7042889,0.992427157 24.6785553,0.992427157 C24.6656885,0.992427157 24.6656885,0.992427157 24.6528217,0.992427157 Z" id="Path"></path>
                                </g>
                                <ellipse id="Oval" cx="24.7300226" cy="32.0541083" rx="1" ry="1"></ellipse>
                                <ellipse id="Oval" cx="23.7907449" cy="39.8775276" rx="1" ry="1"></ellipse>
                                <ellipse id="Oval" cx="22.7485327" cy="47.8942768" rx="1" ry="1"></ellipse>
                                <ellipse id="Oval" cx="21.5776524" cy="56.06569" rx="1" ry="1"></ellipse>
                                <path d="M9.76591422,18.778784 C9.7530474,18.778784 9.7530474,18.778784 9.76591422,18.778784 L2.66343115,17.7605795 C2.6248307,17.7605795 2.59909707,17.7219135 2.59909707,17.6703589 C2.59909707,17.6316929 2.63769752,17.6059155 2.67629797,17.6059155 L9.76591422,18.62412 C9.80451467,18.62412 9.83024831,18.662786 9.83024831,18.7143407 C9.83024831,18.7530067 9.79164786,18.778784 9.76591422,18.778784 Z" id="Path"></path>
                                <path d="M39.2823928,37.9700052 C39.2437923,37.9700052 39.2051919,37.9313392 39.2051919,37.8926733 L38.9735892,28.4581709 C38.9735892,28.4195049 38.9993228,28.3808389 39.0507901,28.3808389 C39.0893905,28.3808389 39.127991,28.4066163 39.127991,28.4581709 L39.3595937,37.8926733 C39.3595937,37.9313392 39.3209932,37.9700052 39.2823928,37.9700052 C39.2823928,37.9700052 39.2823928,37.9700052 39.2823928,37.9700052 Z" id="Path"></path>
                                <path d="M8.99390519,40.9859527 C8.22189616,41.5143879 7.5785553,41.8623819 7.1282167,42.0428232 C5.91873589,42.5197038 4.86365688,42.4681491 4.86365688,42.4681491 C4.07878104,42.4681491 3.61557562,42.2748191 3.42257336,42.1845985 C1.58261851,41.6432746 0.810609481,38.5628838 0.4503386,36.0238169 C3.28103837,36.3846995 6.69074492,37.596234 8.99390519,40.9859527 Z" id="Path"></path>
                                <path d="M56.2665914,30.6363552 C55.7390519,31.9638876 54.9413093,33.0465354 54.0148984,33.9358533 C53.7446953,34.1936266 53.4616253,34.4385112 53.1785553,34.6576185 C51.9819413,32.1829949 51.9047404,29.3603774 53.0498871,27.0017519 C53.9376975,25.1586729 55.3530474,24.076025 56.3952596,23.4702578 C56.4209932,23.5604785 56.43386,23.6635878 56.4467269,23.7538084 C56.4724605,23.8698064 56.4853273,23.9729157 56.5110609,24.076025 C56.858465,26.0866567 57.2058691,28.2519523 56.2665914,30.6363552 Z" id="Path"></path>
                            </g>
                        </g>
                    </g>
                </g>
                <rect id="Black-border-rectangle" stroke="#000000" stroke-width="5" x="2.5" y="22.5" width="141" height="101"></rect>
            </g>
        </g>
    </g>
</svg>