<svg xmlns="http://www.w3.org/2000/svg" width="27" height="27" viewBox="0 0 27 27">
    <g fill="none" fill-rule="evenodd">
        <g>
            <g transform="translate(-677 -1718) translate(677 1718)">
                <circle cx="13.5" cy="13.5" r="13" fill="#FFF" stroke="#1A7AF7"/>
                <path fill="#016DF0" fill-rule="nonzero" d="M17.775 12.446h-.267V10.28c0-2.31-1.832-4.238-4.122-4.28h-.25c-2.29.042-4.123 1.97-4.123 4.28v.048c0 .485.394.879.879.879.486 0 .879-.394.879-.88v-.047c0-1.376 1.118-2.513 2.49-2.513 1.371 0 2.489 1.137 2.489 2.513v2.166H8.746c-.41 0-.746.424-.746.948v6.26c0 .524.335.952.746.952h9.029c.41 0 .746-.428.746-.951v-6.261c0-.524-.335-.948-.746-.948zm-3.669 4.072v1.892c0 .216-.181.4-.398.4h-.895c-.217 0-.398-.184-.398-.4v-1.892c-.21-.207-.333-.493-.333-.81 0-.6.464-1.116 1.053-1.14.063-.002.188-.002.25 0 .59.024 1.054.54 1.054 1.14 0 .316-.122.603-.333.81z"/>
            </g>
        </g>
    </g>
</svg>
