<?xml version="1.0" encoding="UTF-8"?>
<svg width="146px" height="146px" viewBox="0 0 146 146" version="1.1" xmlns="http://www.w3.org/2000/svg" xmlns:xlink="http://www.w3.org/1999/xlink">
    <title>Image container</title>
    <g id="No-Ads" stroke="none" stroke-width="1" fill="none" fill-rule="evenodd">
        <g id="Home_2b" transform="translate(-382.000000, -1910.000000)">
            <g id="Image-container" transform="translate(382.000000, 1910.000000)">
                <g id="Picture" transform="translate(5.000000, 25.000000)">
                    <rect id="Woman-background" fill="#E4F0FF" x="0" y="0" width="136" height="96"></rect>
                    <g id="Woman-image" transform="translate(25.000000, 4.000000)" fill-rule="nonzero">
                        <g id="general_3_">
                            <g id="picture_2_" transform="translate(3.106095, 0.000000)">
                                <path d="M48.6880361,4.35636856 C48.5133183,3.91815397 47.8532731,3.67326935 47.2126411,3.78926733 L29.8767494,7.07587674 L19.5295711,9.02206506 L1.02889391,12.5277818 C0.388261851,12.6437797 0.0194130926,13.094883 0.194130926,13.5330976 L6.75575621,29.5537074 C6.75575621,29.5537074 7.20225734,27.8266264 8.3282167,27.8524037 C9.45417607,27.878181 9.55124153,29.72126 9.55124153,29.72126 L9.47358916,29.798592 C11.5507901,27.916847 14.1715576,25.7644401 15.0839729,25.9706587 C15.4139955,26.035102 15.5693002,26.189766 15.5693002,26.189766 C15.6081264,26.228432 15.6275395,26.267098 15.6469526,26.305764 L15.6469526,26.305764 C16.4817156,24.1018024 18.0735892,21.4725148 21.3349887,20.6734177 C22.4997743,20.389867 22.7327314,20.7507496 23.8198646,20.351201 C26.4600451,19.3716626 26.3823928,16.3686038 31.4103837,14.0744215 C37.6419865,11.2260267 41.8740406,14.9250733 41.8740406,14.9250733 C41.8740406,14.9250733 43.0582393,14.6673001 44.5530474,14.6673001 C46.2419865,14.6673001 48.2997743,15.0024053 49.4063205,16.4459357 C50.8040632,18.2761261 52.7259594,18.4179014 54.531377,18.585454 L48.6880361,4.35636856 Z M18.2094808,35.5082703 C17.9765237,35.6242683 17.7435666,35.7402663 17.5106095,35.8562643 C17.7435666,35.7402663 17.9765237,35.6113797 18.2094808,35.5082703 Z M16.3458239,45.2907666 L16.4428894,45.200546 L16.3458239,45.200546 L16.3458239,45.2907666 Z M15.724605,37.8668959 C15.724605,37.8540073 15.7440181,37.8282299 15.7440181,37.8153413 C15.7440181,37.8024526 15.7440181,37.8024526 15.7634312,37.7895639 C15.7634312,37.8024526 15.7634312,37.8024526 15.7440181,37.8153413 C15.7440181,37.8282299 15.724605,37.8411186 15.724605,37.8668959 Z M15.5498871,26.8857539 C15.4139955,27.1693045 15.1616253,27.4528551 14.9869074,27.6461851 C15.2004515,27.4528551 15.4334086,27.2208592 15.5498871,26.8857539 Z M10.5801354,31.950999 C12.4826185,30.2368066 13.1426637,29.682594 14.0162528,28.7803875 C14.5986456,28.1746203 14.5792325,28.1359543 14.7151242,27.9684017 C14.268623,28.4452823 13.7250564,28.9994948 13.1620767,29.5408187 C12.1914221,30.4688026 11.2013544,31.3838977 10.5801354,31.950999 Z M16.3458239,45.200546 L16.3458239,45.2907666 L16.4428894,45.200546 L16.3458239,45.200546 Z" id="Shape" fill="#52A0FF"></path>
                                <path d="M66.703386,49.8920198 C66.5674944,49.9951291 66.3733634,50.0724611 66.1792325,50.1111271 L65.8492099,50.1755704 L64.6455982,50.3946777 L63.5390519,50.6008963 L63.4808126,50.613785 L61.3647856,51.0133336 L61.0153499,51.0777769 L59.9088036,51.2839955 L57.3851016,51.7608761 L56.2785553,51.9670947 L54.2595937,52.3537547 L53.7548533,52.4439753 L52.9783296,52.5857506 L52.648307,52.650194 L50.1051919,53.1270745 L49.8528217,53.1786292 C49.2121896,51.8253194 47.9115124,49.2991412 46.8826185,49.5053599 C45.5042889,49.7631331 46.8049661,52.8306353 46.8049661,52.8306353 L47.8920993,53.5524005 C47.4261851,53.2559612 46.9602709,52.9466332 46.4943567,52.650194 C46.3390519,52.5470846 46.1837472,52.4439753 46.0284424,52.340866 C45.096614,51.7350988 44.1453725,51.1293316 43.213544,50.5235643 C43.1553047,50.5106757 43.1164786,50.4848983 43.0582393,50.459121 C43.0194131,50.4462324 42.9805869,50.4333437 42.9417607,50.420455 C42.7088036,50.3302344 42.4176072,50.2271251 42.0875847,50.1111271 C42.0875847,50.1111271 42.0875847,50.1111271 42.0875847,50.1111271 C42.0099323,50.0853497 41.951693,50.0595724 41.8546275,50.0337951 C41.8352144,50.0209064 41.7963883,50.0080178 41.7769752,50.0080178 C41.7575621,50.0080178 41.7575621,49.9951291 41.738149,49.9951291 C41.6799097,49.9693518 41.6022573,49.9435744 41.524605,49.9177971 C41.4663657,49.9049084 41.4081264,49.8791311 41.3693002,49.8662425 C41.2334086,49.8146878 41.0975169,49.7760218 40.9422122,49.7244671 C40.8839729,49.6986898 40.8257336,49.6858012 40.7674944,49.6600238 C40.6510158,49.6213578 40.5345372,49.5826918 40.3986456,49.5440258 C40.3598194,49.5311372 40.3015801,49.5182485 40.262754,49.4924712 C40.0297968,49.4151392 39.7968397,49.3378072 39.5444695,49.2604752 C39.4862302,49.2475866 39.4474041,49.2346979 39.3891648,49.2089206 C38.9814898,49.0800339 38.5544018,48.9511473 38.1273138,48.8222606 C38.0496614,48.7964833 37.972009,48.770706 37.8749436,48.7449287 C37.7972912,48.7191513 37.7390519,48.7062627 37.6808126,48.6804853 C37.3507901,48.5902647 37.0207675,48.500044 36.710158,48.422712 C36.6325056,48.3969347 36.5548533,48.3840461 36.4772009,48.3711574 C36.3995485,48.3582687 36.3218962,48.3324914 36.2442438,48.3196027 C36.069526,48.2809367 35.9142212,48.2422707 35.7589165,48.2036048 C35.7006772,48.1907161 35.661851,48.1778274 35.6036117,48.1649388 C35.5647856,48.1520501 35.5259594,48.1520501 35.4871332,48.1391614 C35.3706546,48.1133841 35.234763,48.0876068 35.1182844,48.0747181 C35.0794582,48.0618294 35.0406321,48.0618294 35.0018059,48.0489408 C34.9629797,48.0489408 34.9241535,48.0360521 34.9047404,48.0360521 C34.8659142,48.0360521 34.827088,48.0231635 34.8076749,48.0231635 C34.7688488,48.0231635 34.7300226,48.0102748 34.6911964,48.0102748 C34.6329571,47.9973861 34.5553047,47.9973861 34.4970655,47.9844975 C34.4582393,47.9844975 34.4194131,47.9716088 34.3805869,47.9716088 C34.3805869,47.9716088 34.3611738,47.9716088 34.3611738,47.9716088 C34.2446953,47.9587201 34.1476298,47.9587201 34.0311512,47.9458315 C33.9146727,47.9458315 33.7981941,47.9458315 33.6817156,47.9458315 C33.6623025,47.9458315 33.6428894,47.9458315 33.6040632,47.9458315 C33.5846501,47.9458315 33.5458239,47.9458315 33.5264108,47.9587201 C33.5069977,47.9587201 33.4875847,47.9587201 33.4681716,47.9716088 C33.4487585,47.9716088 33.4293454,47.9716088 33.4099323,47.9844975 C33.3905192,47.9844975 33.3711061,47.9973861 33.351693,47.9973861 C33.3322799,47.9973861 33.3322799,47.9973861 33.3128668,48.0102748 C33.2934537,48.0102748 33.2934537,48.0231635 33.2740406,48.0231635 C33.2546275,48.0231635 33.2352144,48.0360521 33.2158014,48.0489408 C33.1963883,48.0489408 33.1963883,48.0618294 33.1769752,48.0618294 C33.1575621,48.0618294 33.1575621,48.0747181 33.138149,48.0747181 C33.1187359,48.0747181 33.1187359,48.0876068 33.1187359,48.0876068 C33.0993228,48.1004954 33.0799097,48.1133841 33.0604966,48.1262728 C32.8469526,48.3067141 32.9440181,48.6031533 32.9634312,48.654708 C32.9634312,48.654708 32.9634312,48.654708 32.9634312,48.6675967 C32.9634312,48.6804853 32.9828442,48.7062627 32.9828442,48.7191513 C32.9828442,48.73204 33.0022573,48.7449287 33.0022573,48.7578173 C33.0022573,48.7578173 33.0022573,48.770706 33.0216704,48.7835946 C33.0216704,48.7964833 33.0410835,48.809372 33.0410835,48.8222606 C33.0410835,48.8351493 33.0604966,48.848038 33.0799097,48.8609266 C33.0993228,48.8738153 33.1187359,48.886704 33.138149,48.9124813 C33.138149,48.92537 33.1575621,48.92537 33.1575621,48.9382586 C33.1575621,48.9511473 33.1769752,48.9511473 33.1769752,48.9640359 C33.1963883,48.9769246 33.2158014,48.9898133 33.2352144,49.0155906 C33.2546275,49.0284793 33.2740406,49.0413679 33.2934537,49.0542566 C33.2934537,49.0542566 33.2934537,49.0542566 33.2934537,49.0542566 C33.3128668,49.0671453 33.3322799,49.0800339 33.351693,49.0929226 C33.351693,49.0929226 33.3711061,49.1058113 33.3711061,49.1058113 C33.3905192,49.1186999 33.4293454,49.1315886 33.4487585,49.1444773 C33.4875847,49.1573659 33.5264108,49.1831432 33.565237,49.1960319 C33.6234763,49.2218092 33.6623025,49.2475866 33.7205418,49.2604752 C33.778781,49.2862526 33.8176072,49.2991412 33.8758465,49.3249186 C33.8758465,49.3249186 33.8758465,49.3249186 33.8952596,49.3249186 C33.9534989,49.3506959 33.9923251,49.3635845 34.0505643,49.3764732 C34.1088036,49.3893619 34.1476298,49.4151392 34.2058691,49.4280279 C34.2252822,49.4409165 34.2641084,49.4409165 34.3029345,49.4538052 C34.3417607,49.4666939 34.4,49.4795825 34.4388262,49.4924712 C34.5164786,49.5182485 34.5747178,49.5311372 34.6329571,49.5440258 C34.6523702,49.5440258 34.6717833,49.5569145 34.6911964,49.5569145 C34.7106095,49.5569145 34.7494357,49.5698032 34.7688488,49.5698032 C34.7882619,49.5698032 34.7882619,49.5826918 34.8076749,49.5826918 C34.8076749,49.5826918 34.827088,49.5826918 34.827088,49.5826918 C34.827088,49.5826918 34.8465011,49.5826918 34.8465011,49.5826918 C34.8465011,49.5826918 34.8465011,49.5826918 34.8465011,49.5826918 C34.8465011,49.5826918 34.8465011,49.5826918 34.8465011,49.5826918 C35.0600451,49.6342465 35.2930023,49.6858012 35.5453725,49.7631331 C35.6424379,49.7889105 35.7589165,49.8275765 35.8559819,49.8533538 C36.6325056,50.0853497 37.6225734,50.4462324 38.8844244,50.9875563 C38.593228,50.9231129 38.3214447,50.8586696 38.0496614,50.7942263 C37.8749436,50.7555603 37.6808126,50.7168943 37.5060948,50.691117 C37.4478555,50.6782283 37.4090293,50.6782283 37.3507901,50.6653396 C37.137246,50.6266737 36.923702,50.5880077 36.710158,50.5493417 C36.6130926,50.536453 36.5354402,50.5235643 36.4383747,50.5106757 C36.2248307,50.4720097 36.0112867,50.4462324 35.8171558,50.4075664 C35.7589165,50.3946777 35.6812641,50.3946777 35.6230248,50.381789 C35.5841986,50.381789 35.5453725,50.3689004 35.5065463,50.3689004 C35.3706546,50.3560117 35.234763,50.3302344 35.0794582,50.304457 C34.8659142,50.2786797 34.6523702,50.2400137 34.4,50.2142364 C34.0505643,50.1755704 33.6817156,50.1369044 33.3128668,50.0982384 C33.2158014,50.0853497 33.1187359,50.0853497 33.0022573,50.0724611 C32.8663657,50.0595724 32.730474,50.0466838 32.5751693,50.0466838 C32.4975169,50.0466838 32.4004515,50.0337951 32.3227991,50.0337951 C32.2451467,50.0337951 32.1869074,50.0337951 32.1092551,50.0337951 C32.0316027,50.0337951 31.9539503,50.0337951 31.876298,50.0337951 C31.8568849,50.0337951 31.8180587,50.0337951 31.7986456,50.0337951 C31.7598194,50.0337951 31.7404063,50.0337951 31.7015801,50.0337951 C31.682167,50.0337951 31.6433409,50.0337951 31.6045147,50.0337951 C31.5462754,50.0337951 31.468623,50.0337951 31.4103837,50.0466838 C31.3521445,50.0466838 31.3133183,50.0466838 31.255079,50.0595724 C31.2162528,50.0595724 31.1774266,50.0595724 31.1580135,50.0724611 C31.0997743,50.0724611 31.0221219,50.0853497 30.9638826,50.0982384 C30.9250564,50.0982384 30.8862302,50.1111271 30.8474041,50.1111271 C30.8085779,50.1111271 30.7697517,50.1240157 30.7309255,50.1369044 C30.6920993,50.1369044 30.6726862,50.1497931 30.6532731,50.1626817 C30.63386,50.1626817 30.63386,50.1755704 30.614447,50.1755704 C30.5950339,50.1755704 30.5756208,50.1884591 30.5562077,50.1884591 C30.5367946,50.1884591 30.5367946,50.2013477 30.5173815,50.2013477 C30.4785553,50.2142364 30.4397291,50.2271251 30.4009029,50.2529024 L30.3814898,50.2657911 C30.3620767,50.2657911 30.3620767,50.2786797 30.3426637,50.2786797 C30.3232506,50.2786797 30.3232506,50.2915684 30.3038375,50.304457 C30.3038375,50.304457 30.3038375,50.304457 30.3038375,50.304457 C30.2844244,50.304457 30.2844244,50.3173457 30.2650113,50.3302344 C30.2650113,50.3302344 30.2455982,50.3302344 30.2455982,50.343123 C30.2261851,50.3560117 30.206772,50.3689004 30.1873589,50.3946777 C30.1679458,50.4075664 30.1485327,50.4333437 30.1485327,50.4462324 C29.9544018,50.7040056 30.1873589,51.0262222 30.2261851,51.0648882 C30.2455982,51.0777769 30.2455982,51.0906656 30.2650113,51.1035542 C30.2844244,51.1164429 30.2844244,51.1293316 30.3038375,51.1422202 C30.3232506,51.1551089 30.3426637,51.1808862 30.3620767,51.1937749 C30.3814898,51.2195522 30.4009029,51.2324409 30.4397291,51.2582182 C30.4397291,51.2582182 30.4397291,51.2582182 30.4397291,51.2582182 C30.4591422,51.2711069 30.4591422,51.2711069 30.4785553,51.2839955 C30.5173815,51.3097729 30.5562077,51.3355502 30.5756208,51.3484389 C30.5950339,51.3613275 30.614447,51.3742162 30.63386,51.3871049 C30.6726862,51.4128822 30.7115124,51.4257708 30.7503386,51.4386595 C30.7891648,51.4515482 30.827991,51.4773255 30.8668172,51.4902142 C30.8668172,51.4902142 30.8668172,51.4902142 30.8862302,51.4902142 C30.9056433,51.4902142 30.9056433,51.5031028 30.9250564,51.5031028 C30.9250564,51.5031028 30.9250564,51.5031028 30.9444695,51.5031028 C30.9832957,51.5159915 31.0221219,51.5288802 31.0609481,51.5417688 C31.0997743,51.5546575 31.1386005,51.5675462 31.1774266,51.5804348 C31.1968397,51.5804348 31.2162528,51.5933235 31.2356659,51.5933235 C31.255079,51.6062121 31.2939052,51.6062121 31.3133183,51.6191008 C31.3327314,51.6319895 31.3715576,51.6319895 31.3909707,51.6448781 C31.468623,51.6577668 31.5656885,51.6835441 31.6433409,51.6964328 C31.682167,51.6964328 31.7209932,51.7093215 31.7404063,51.7093215 C31.7986456,51.7222101 31.8374718,51.7222101 31.876298,51.7350988 C31.9345372,51.7479875 31.9733634,51.7479875 32.0316027,51.7608761 C32.0704289,51.7608761 32.1092551,51.7737648 32.1480813,51.7737648 C32.1480813,51.7737648 32.1674944,51.7737648 32.1674944,51.7737648 C32.2257336,51.7737648 32.2645598,51.7866534 32.3227991,51.7866534 C32.3616253,51.7866534 32.3810384,51.7866534 32.4198646,51.7995421 C32.5557562,51.8124308 32.6916479,51.8124308 32.7887133,51.8253194 C32.8275395,51.8253194 32.8663657,51.8253194 32.8857788,51.8253194 C32.924605,51.8253194 32.9828442,51.8253194 33.0022573,51.8253194 C33.3905192,51.8382081 33.8370203,51.8897628 34.3611738,51.9542061 C34.4194131,51.9670947 34.4970655,51.9670947 34.5553047,51.9799834 C34.613544,51.9928721 34.6911964,52.0057607 34.7494357,52.0057607 C34.8076749,52.0186494 34.8659142,52.0186494 34.9241535,52.0315381 C35.0794582,52.0573154 35.234763,52.0830927 35.3900677,52.1088701 C35.4288939,52.1088701 35.448307,52.1217587 35.4871332,52.1217587 C35.5065463,52.1217587 35.5453725,52.1346474 35.5647856,52.1346474 C35.7977427,52.1733134 36.0306998,52.224868 36.28307,52.2893114 C36.3218962,52.3022 36.3607223,52.3150887 36.4189616,52.3150887 C36.5160271,52.340866 36.6130926,52.3666433 36.710158,52.379532 C36.7489842,52.3924207 36.7878104,52.3924207 36.8266366,52.4053093 C37.0401806,52.456864 37.2343115,52.5084187 37.4672686,52.572862 L37.4672686,52.572862 C37.4672686,52.572862 37.4672686,52.572862 37.4672686,52.572862 C37.6419865,52.611528 37.7972912,52.6630826 37.972009,52.7146373 C38.0302483,52.7275259 38.0884876,52.7404146 38.1273138,52.7661919 C38.1273138,52.7661919 38.1273138,52.7661919 38.1467269,52.7661919 C38.2632054,52.8048579 38.379684,52.8306353 38.4961625,52.8693013 C38.6514673,52.9079672 38.806772,52.9595219 38.9620767,53.0110766 C39.020316,53.0368539 39.0979684,53.0497426 39.1562077,53.0755199 C39.3309255,53.1270745 39.5056433,53.1786292 39.6803612,53.2430725 C39.7774266,53.2688498 39.855079,53.2946272 39.9521445,53.3332932 C40.0492099,53.3590705 40.1268623,53.3977365 40.2239278,53.4235138 C40.262754,53.4364025 40.282167,53.4492912 40.3209932,53.4621798 C40.5733634,53.5524005 40.8451467,53.6426211 41.11693,53.7328418 C41.0198646,53.7070644 40.9227991,53.6941758 40.8063205,53.6812871 C40.689842,53.6555098 40.5733634,53.6426211 40.4568849,53.6168438 C40.3792325,53.6039551 40.3015801,53.5910665 40.2239278,53.5781778 C40.1462754,53.5652891 40.068623,53.5524005 39.9909707,53.5395118 C39.9133183,53.5266231 39.8162528,53.5137345 39.7386005,53.4879571 C39.6221219,53.4621798 39.5250564,53.4492912 39.4085779,53.4235138 C39.3503386,53.4106252 39.2920993,53.3977365 39.23386,53.3848478 C38.9814898,53.3332932 38.7291196,53.2946272 38.4961625,53.2559612 C38.379684,53.2301839 38.2437923,53.2172952 38.1273138,53.1915179 C38.0690745,53.1786292 38.0108352,53.1657405 37.9525959,53.1657405 C37.1760722,53.0368539 36.4772009,52.9208559 35.8365688,52.8306353 C35.7006772,52.8048579 35.5841986,52.7919693 35.448307,52.7790806 C35.0406321,52.7275259 34.6717833,52.6759713 34.3417607,52.6373053 C34.2252822,52.6244166 34.1088036,52.611528 34.0117381,52.5986393 C33.972912,52.5986393 33.9340858,52.5857506 33.9146727,52.5857506 C33.8370203,52.572862 33.7399549,52.572862 33.6623025,52.5599733 C33.5264108,52.5470846 33.3905192,52.534196 33.2740406,52.5213073 C33.1769752,52.5084187 33.0799097,52.5084187 32.9828442,52.49553 C32.924605,52.49553 32.8857788,52.4826413 32.8469526,52.4826413 C32.7498871,52.4697527 32.6722348,52.4697527 32.5751693,52.4697527 C32.5363431,52.4697527 32.4975169,52.4697527 32.4392777,52.456864 C32.4004515,52.456864 32.3616253,52.456864 32.3227991,52.4439753 C32.1480813,52.4310867 31.9927765,52.4310867 31.8374718,52.4310867 C31.8374718,52.4310867 31.8180587,52.4310867 31.8180587,52.4310867 C31.7792325,52.4310867 31.7598194,52.4310867 31.7209932,52.4310867 C31.662754,52.4310867 31.5851016,52.4310867 31.5268623,52.4310867 C31.5074492,52.4310867 31.468623,52.4310867 31.4492099,52.4310867 C31.4103837,52.4310867 31.3715576,52.4310867 31.3327314,52.4310867 C31.255079,52.4310867 31.1774266,52.4310867 31.1191874,52.4439753 C31.0803612,52.4439753 31.0609481,52.4439753 31.0221219,52.456864 C31.0027088,52.456864 30.9832957,52.456864 30.9444695,52.456864 C30.9056433,52.456864 30.8862302,52.4697527 30.8474041,52.4697527 C30.827991,52.4697527 30.8085779,52.4697527 30.7891648,52.4826413 C30.7503386,52.4826413 30.7309255,52.49553 30.6920993,52.49553 C30.6920993,52.49553 30.6726862,52.49553 30.6726862,52.49553 C30.6532731,52.49553 30.6532731,52.49553 30.63386,52.5084187 C30.614447,52.5084187 30.5950339,52.5213073 30.5756208,52.5213073 C30.5562077,52.5213073 30.5367946,52.534196 30.5173815,52.534196 C30.4979684,52.534196 30.4785553,52.5470846 30.4591422,52.5470846 C30.4397291,52.5470846 30.420316,52.5599733 30.4009029,52.572862 C30.3814898,52.5857506 30.3620767,52.5857506 30.3426637,52.5986393 C30.3426637,52.5986393 30.3232506,52.611528 30.3232506,52.611528 C30.3232506,52.611528 30.3038375,52.6244166 30.3038375,52.6244166 C30.3038375,52.6244166 30.2844244,52.6373053 30.2844244,52.6373053 C30.2844244,52.6373053 30.2650113,52.650194 30.2650113,52.650194 C30.2650113,52.650194 30.2455982,52.6630826 30.2455982,52.6630826 C30.2261851,52.68886 30.206772,52.7017486 30.1873589,52.7275259 C30.1485327,52.7790806 29.9544018,53.0884085 30.1291196,53.3848478 C30.1485327,53.3977365 30.1485327,53.4235138 30.1679458,53.4364025 C30.1679458,53.4364025 30.1679458,53.4492912 30.1679458,53.4492912 C30.1873589,53.4621798 30.1873589,53.4750685 30.206772,53.4879571 C30.206772,53.4879571 30.206772,53.4879571 30.206772,53.4879571 C30.206772,53.5008458 30.2261851,53.5008458 30.2261851,53.5137345 C30.2650113,53.5395118 30.2844244,53.5652891 30.3232506,53.5910665 C30.3232506,53.5910665 30.3426637,53.6039551 30.3620767,53.6039551 C30.3814898,53.6168438 30.4009029,53.6297325 30.4397291,53.6426211 C30.4591422,53.6555098 30.4785553,53.6555098 30.4979684,53.6683984 C30.4979684,53.6683984 30.4979684,53.6683984 30.4979684,53.6683984 C30.5173815,53.6812871 30.5367946,53.6812871 30.5367946,53.6941758 C30.5950339,53.7199531 30.63386,53.7328418 30.6920993,53.7586191 C30.7309255,53.7715078 30.7697517,53.7843964 30.8085779,53.7972851 C30.8474041,53.8101738 30.9056433,53.8230624 30.9444695,53.8359511 C30.9832957,53.8488397 31.041535,53.8617284 31.0803612,53.8617284 C31.1191874,53.8746171 31.1580135,53.8746171 31.1968397,53.8875057 C31.3715576,53.9132831 31.5462754,53.9390604 31.7015801,53.9648377 C31.7015801,53.9648377 31.7209932,53.9648377 31.7404063,53.9648377 C31.7404063,53.9648377 31.7598194,53.9648377 31.7598194,53.9648377 C31.7598194,53.9648377 31.7598194,53.9648377 31.7792325,53.9648377 C31.7792325,53.9648377 31.7986456,53.9648377 31.7986456,53.9648377 C31.7986456,53.9648377 31.7986456,53.9648377 31.7986456,53.9648377 C31.8180587,53.9648377 31.8374718,53.9648377 31.876298,53.9777264 C31.9151242,53.9777264 31.9539503,53.9906151 31.9927765,53.9906151 C32.0316027,53.9906151 32.089842,54.0035037 32.1286682,54.0035037 C32.1674944,54.0035037 32.2257336,54.0163924 32.2839729,54.029281 C32.2839729,54.029281 32.2839729,54.029281 32.2839729,54.029281 C32.2839729,54.029281 32.303386,54.029281 32.303386,54.029281 C32.3227991,54.029281 32.3616253,54.0421697 32.3810384,54.0421697 C32.4198646,54.0421697 32.4392777,54.0550584 32.4781038,54.0550584 C32.4975169,54.0550584 32.5363431,54.067947 32.5557562,54.067947 C32.6139955,54.0808357 32.6722348,54.0808357 32.7498871,54.0937244 C32.7498871,54.0937244 32.7498871,54.0937244 32.7498871,54.0937244 C32.8469526,54.106613 32.9634312,54.1195017 33.0799097,54.145279 C33.0799097,54.145279 33.0993228,54.145279 33.0993228,54.145279 C33.1769752,54.1581677 33.2546275,54.1710564 33.3322799,54.1710564 C33.3322799,54.1710564 33.351693,54.1710564 33.351693,54.1710564 C33.4293454,54.183945 33.5069977,54.1968337 33.5846501,54.1968337 C33.7981941,54.222611 34.0311512,54.261277 34.2835214,54.299943 C34.5941309,54.338609 34.9241535,54.3901636 35.2930023,54.4417183 C35.3318284,54.4417183 35.3706546,54.454607 35.4094808,54.454607 C35.5065463,54.4674956 35.5841986,54.4803843 35.6812641,54.493273 C35.7783296,54.5061616 35.875395,54.5190503 35.9724605,54.531939 C36.2636569,54.570605 36.5742664,54.6221596 36.9042889,54.6737143 C37.2343115,54.7252689 37.5643341,54.7768236 37.8943567,54.8283782 C37.9137698,54.8283782 37.9331828,54.8283782 37.9525959,54.8412669 C38.0108352,54.8541556 38.0496614,54.8541556 38.1079007,54.8670442 C38.16614,54.8799329 38.2049661,54.8799329 38.2632054,54.8928216 C38.3990971,54.9185989 38.5155756,54.9314876 38.6514673,54.9572649 C38.7291196,54.9701535 38.7873589,54.9830422 38.8455982,54.9959309 C39.0591422,55.0345969 39.23386,55.0603742 39.3891648,55.0990402 C39.427991,55.0990402 39.4474041,55.1119289 39.4862302,55.1119289 C39.3115124,55.1119289 39.1173815,55.1119289 38.9426637,55.1119289 C38.8261851,55.1119289 38.7097065,55.1119289 38.6126411,55.1119289 C38.3990971,55.1119289 38.185553,55.1248175 37.972009,55.1248175 C37.8943567,55.1248175 37.8361174,55.1248175 37.758465,55.1377062 C37.5837472,55.1377062 37.4284424,55.1505948 37.2731377,55.1634835 C37.1954853,55.1634835 37.117833,55.1763722 37.0207675,55.1763722 C36.8460497,55.1892608 36.6713318,55.2021495 36.496614,55.2150382 C36.2636569,55.2279268 36.0501129,55.2408155 35.8559819,55.2665928 C35.7977427,55.2665928 35.7200903,55.2794815 35.661851,55.2794815 C35.3900677,55.3052588 35.1376975,55.3310361 34.9241535,55.3568135 C34.9241535,55.3568135 34.9047404,55.3568135 34.9047404,55.3568135 C34.8853273,55.3568135 34.8853273,55.3568135 34.8659142,55.3568135 C34.8465011,55.3568135 34.827088,55.3568135 34.8076749,55.3697021 C34.7882619,55.3697021 34.7688488,55.3697021 34.7300226,55.3825908 C34.7106095,55.3825908 34.6717833,55.3954795 34.6329571,55.3954795 C34.5941309,55.3954795 34.5358916,55.4083681 34.4970655,55.4212568 C34.4388262,55.4341455 34.3805869,55.4341455 34.3223476,55.4470341 C34.1282167,55.4728115 33.8952596,55.5114775 33.6428894,55.5630321 C33.565237,55.5759208 33.4681716,55.5888094 33.3905192,55.6145868 C33.3905192,55.6145868 33.3905192,55.6145868 33.3905192,55.6145868 C33.351693,55.6274754 33.3128668,55.6274754 33.2740406,55.6403641 C33.1963883,55.6532528 33.0993228,55.6790301 33.0216704,55.6919188 C32.9440181,55.7048074 32.8469526,55.7305847 32.7693002,55.7434734 C32.730474,55.7563621 32.6916479,55.7692507 32.6528217,55.7692507 C32.5945824,55.7821394 32.5363431,55.7950281 32.4781038,55.8079167 C32.4198646,55.8208054 32.3616253,55.8336941 32.3227991,55.8465827 C32.2645598,55.8594714 32.2063205,55.8723601 32.1674944,55.8981374 C32.1286682,55.911026 32.089842,55.9239147 32.0704289,55.9239147 C32.0316027,55.9368034 31.9927765,55.949692 31.9539503,55.9625807 C31.8180587,56.0012467 31.7015801,56.0528014 31.6045147,56.104356 C31.5656885,56.1172447 31.5268623,56.143022 31.4880361,56.1559107 C31.4492099,56.1687993 31.4103837,56.1945767 31.3715576,56.220354 C31.3521445,56.2332427 31.3327314,56.2461313 31.3133183,56.25902 C31.2939052,56.2719086 31.2744921,56.2847973 31.255079,56.297686 C31.2356659,56.3105746 31.2356659,56.3234633 31.2162528,56.3234633 C31.1968397,56.336352 31.1774266,56.3492406 31.1774266,56.3621293 C31.1580135,56.375018 31.1580135,56.3879066 31.1386005,56.4007953 C31.1191874,56.413684 31.1191874,56.4265726 31.0997743,56.4394613 C31.0803612,56.4652386 31.0609481,56.4910159 31.041535,56.5167933 C31.0221219,56.5554593 30.9638826,56.6585686 30.9832957,56.7616779 L30.7503386,56.8003439 L28.2072235,57.2772245 L28.0713318,57.3030018 L27.1006772,57.4834431 L26.7900677,57.5478864 L24.5963883,57.9603237 L23.489842,58.1665423 L20.96614,58.6434229 L19.8595937,58.8496415 L19.8595937,58.8496415 C19.2189616,58.9656395 18.5589165,58.7207549 18.3841986,58.2825403 L18.0735892,57.5349978 L17.9765237,57.2901131 L17.3358916,55.7434734 L17.0641084,55.0732629 L16.9670429,54.8283782 L16.2293454,53.0239652 L16.0546275,52.5986393 L15.9575621,52.3537547 L15.0451467,50.1369044 L14.9480813,49.8920198 L14.0356659,47.6622808 L13.9580135,47.4818395 C14.6374718,46.772963 15.3945824,46.0254205 16.2293454,45.2778779 L16.3264108,45.1876573 C17.2194131,44.3756714 18.2094808,43.5507969 19.2772009,42.7259224 C19.4713318,42.5841471 19.6654628,42.4294831 19.8595937,42.2877078 C20.772009,41.6046086 21.7620767,40.9215094 22.7909707,40.2641875 C23.0239278,40.1224122 23.2374718,39.9806369 23.4704289,39.8388616 C24.6158014,39.1428737 25.8194131,38.4597745 27.1006772,37.8153413 C27.1200903,37.8153413 27.1200903,37.8024526 27.1395034,37.8024526 C28.2848758,37.2353514 29.4690745,36.6940275 30.7309255,36.1784809 C31.4492099,35.8820416 32.2063205,35.598491 32.9634312,35.3407177 C33.138149,35.2762744 33.2934537,35.2247197 33.4681716,35.1731651 C34.9047404,34.6833958 36.4189616,34.2451812 38.0108352,33.8585213 C38.0690745,32.6083209 38.1079007,31.3581204 38.16614,30.0950313 C37.4478555,29.837258 36.3995485,29.3861548 35.448307,28.5999462 C33.778781,27.2337478 33.4681716,25.7386628 33.4099323,25.1200069 C35.7977427,24.076025 37.0401806,22.9675999 37.7390519,22.1685027 C38.8455982,20.8667476 39.3309255,19.4361059 40.5927765,19.0881119 C40.9810384,19.4876605 41.4275395,19.9129865 41.9711061,20.351201 C43.9512415,21.9493954 46.144921,22.9031566 47.6979684,23.4573692 C47.8532731,23.3800372 48.241535,23.2124845 48.7851016,23.2124845 C48.8045147,23.2124845 49.289842,23.2124845 49.7363431,23.3800372 C50.551693,23.6893651 50.978781,24.4755736 50.8234763,25.1586729 C50.6293454,26.0608794 49.4257336,26.7826446 48.2609481,26.8084219 C47.9503386,26.8213106 47.6979684,26.7697559 47.5038375,26.7310899 C47.3873589,27.6461851 47.2902935,28.5999462 47.2320542,29.5794847 C47.1544018,30.5590232 47.1349887,31.5127844 47.1155756,32.4407682 C51.4835214,32.0927743 55.8902935,32.2087723 60.2,32.6856528 L60.3358916,33.0078695 L60.9376975,34.4900659 L61.1900677,35.0958331 L61.2677201,35.3020517 L62.1995485,37.557568 L62.296614,37.8024526 L62.3936795,38.0602259 L63.1896163,40.0193029 L63.2866817,40.2641875 L63.4419865,40.6250701 L64.1990971,42.4810378 L64.2961625,42.7001451 L64.5485327,43.3316896 L65.2085779,44.9427727 L65.3056433,45.16188 L66.2180587,47.4045076 L66.3151242,47.6493922 L66.8975169,49.0800339 C67.1110609,49.3893619 66.9945824,49.6858012 66.703386,49.8920198 Z" id="Path" fill="#52A0FF"></path>
                                <path d="M19.5295711,9.09939705 C19.510158,9.09939705 19.510158,9.09939705 19.5295711,9.09939705 C19.4519187,9.09939705 19.4130926,9.06073105 19.4130926,9.0091764 L20.7525959,0.244884623 C20.7525959,0.219107294 20.7914221,0.193329966 20.8302483,0.180441301 C20.8690745,0.167552637 20.9273138,0.180441301 20.9467269,0.20621863 L29.9349887,7.01143342 C29.9738149,7.03721075 29.9738149,7.0887654 29.9349887,7.11454273 C29.8961625,7.14032006 29.8185102,7.14032006 29.779684,7.11454273 L20.9467269,0.438214589 L19.6266366,9.03495372 C19.6266366,9.07361972 19.5878104,9.09939705 19.5295711,9.09939705 Z" id="Path" fill="#000000"></path>
                                <ellipse id="Oval" fill="#000000" cx="20.96614" cy="0.451103253" rx="1" ry="1"></ellipse>
                            </g>
                            <g id="head_2_" transform="translate(13.006772, 12.888664)" fill="#000000">
                                <path d="M50.3769752,19.7840998 C46.0866817,19.3072192 41.6799097,19.1912212 37.2925508,19.5392152 C37.3119639,18.62412 37.3507901,17.6703589 37.4090293,16.6779317 C37.4866817,15.6983932 37.5643341,14.744632 37.6808126,13.8295369 C37.8749436,13.8810915 38.1273138,13.9197575 38.4379233,13.9068689 C39.6027088,13.8810915 40.8063205,13.1593263 41.0004515,12.2571198 C41.1557562,11.5740206 40.7092551,10.7878121 39.9133183,10.4784841 C39.4668172,10.3109315 39.0009029,10.3109315 38.9620767,10.3109315 C38.4185102,10.3109315 38.0302483,10.4913728 37.8749436,10.5558161 C36.3218962,10.0016036 34.1282167,9.06073105 32.1480813,7.44964801 C31.6239278,7.02432208 31.1580135,6.59899616 30.7697517,6.1865589 C29.4884876,6.53455284 29.0225734,7.96519458 27.9160271,9.26694968 C27.2171558,10.0789355 25.9747178,11.1873607 23.5869074,12.2184538 C23.6645598,12.8242211 23.9557562,14.3193061 25.6252822,15.6983932 C26.5765237,16.4717131 27.6248307,16.935705 28.3431151,17.1934783 C28.2848758,18.4436787 28.2460497,19.6938792 28.1878104,20.9569683 C26.5959368,21.3436282 25.0817156,21.7818428 23.6451467,22.271612 C23.4704289,22.3231667 23.3151242,22.38761 23.1404063,22.4391647 C22.3832957,22.7098266 21.6261851,22.9933772 20.9079007,23.2769279 C19.6460497,23.7795858 18.461851,24.3337983 17.3164786,24.9008996 C17.2970655,24.9008996 17.2970655,24.9137882 17.2776524,24.9137882 C15.9963883,25.5582214 14.7927765,26.228432 13.6474041,26.9373085 C13.414447,27.0790838 13.1814898,27.2208592 12.9679458,27.3626345 C11.9196388,28.0199563 10.9489842,28.7030556 10.0365688,29.3861548 C9.84243792,29.5279301 9.648307,29.682594 9.45417607,29.8243694 C8.38645598,30.6492439 7.39638826,31.4741184 6.503386,32.2861043 L6.40632054,32.2861043 L6.40632054,32.3763249 C5.59097065,33.1238674 4.83386005,33.87141 4.13498871,34.5802865 L1.88306998,29.0639382 C2.05778781,28.9608288 2.23250564,28.8577195 2.40722348,28.7546102 C2.46546275,28.7159442 2.52370203,28.6901669 2.56252822,28.6515009 C2.91196388,28.4195049 3.20316027,28.1746203 3.45553047,27.9426244 C3.51376975,27.8910697 3.55259594,27.8524037 3.61083521,27.8008491 C3.66907449,27.7492944 3.70790068,27.7106284 3.74672686,27.6590737 C3.78555305,27.6075191 3.84379233,27.5688531 3.88261851,27.5172984 C4.01851016,27.3755231 4.15440181,27.2337478 4.27088036,27.1048612 C4.34853273,27.0275292 4.40677201,26.9501972 4.46501129,26.8728652 C4.62031603,26.7053126 4.73679458,26.5377599 4.87268623,26.383096 C4.91151242,26.3315413 4.9503386,26.2799867 4.98916479,26.228432 C5.2221219,25.9191041 5.41625282,25.5968874 5.57155756,25.3004482 C5.59097065,25.2617822 5.61038375,25.2231162 5.62979684,25.1844502 C5.64920993,25.1457842 5.66862302,25.1200069 5.68803612,25.0813409 C5.70744921,25.0297862 5.7268623,24.9911202 5.76568849,24.9395656 C5.76568849,24.9266769 5.78510158,24.9008996 5.78510158,24.8880109 C5.78510158,24.8751222 5.78510158,24.8751222 5.80451467,24.8622336 C5.80451467,24.8493449 5.82392777,24.8364562 5.82392777,24.8364562 C5.84334086,24.7977903 5.86275395,24.7462356 5.88216704,24.7075696 C5.94040632,24.5915716 5.97923251,24.4755736 6.01805869,24.3595757 C6.03747178,24.3209097 6.05688488,24.2822437 6.05688488,24.2435777 C6.05688488,24.230689 6.07629797,24.2049117 6.07629797,24.192023 C6.09571106,24.153357 6.09571106,24.1275797 6.11512415,24.0889137 C6.11512415,24.076025 6.13453725,24.0631364 6.13453725,24.0373591 C6.15395034,23.9986931 6.15395034,23.9600271 6.17336343,23.9213611 C6.19277652,23.8698064 6.21218962,23.8182518 6.23160271,23.7538084 C6.2510158,23.6893651 6.27042889,23.6120331 6.28984199,23.5475898 C6.73634312,23.3284825 7.16343115,23.1222639 7.551693,22.9289339 C7.80406321,22.8129359 8.03702032,22.6840493 8.25056433,22.58094 C8.63882619,22.38761 9.00767494,22.19428 9.35711061,22.0138387 C9.47358916,21.9493954 9.59006772,21.8978408 9.68713318,21.8462861 C9.78419865,21.7947315 9.88126411,21.7431768 9.95891648,21.7045108 C10.5413093,21.4080715 11.0072235,21.1502982 11.3566591,20.9440796 C11.7837472,20.699195 12.5990971,20.2223144 12.4632054,19.7196565 C12.4243792,19.5778812 12.3273138,19.4232172 12.1914221,19.3458852 C12.0749436,19.2814419 11.9196388,19.2556646 11.7255079,19.2556646 C11.6866817,19.2556646 11.6284424,19.2556646 11.5896163,19.2556646 C11.5896163,19.2556646 11.5896163,19.2556646 11.5702032,19.2556646 C11.5119639,19.2556646 11.4731377,19.2685532 11.4148984,19.2685532 C11.3954853,19.2685532 11.3566591,19.2814419 11.337246,19.2814419 C11.317833,19.2814419 11.2790068,19.2943306 11.2401806,19.2943306 C11.1431151,19.3072192 11.0654628,19.3329966 10.9489842,19.3458852 C10.696614,19.4103285 10.4054176,19.4876605 10.0948081,19.5907698 C10.0171558,19.6165472 9.93950339,19.6423245 9.86185102,19.6681018 C9.86185102,19.6681018 9.86185102,19.6681018 9.86185102,19.6681018 C9.78419865,19.6938792 9.70654628,19.7196565 9.62889391,19.7583225 C9.55124153,19.7840998 9.47358916,19.8227658 9.3765237,19.8485431 C9.29887133,19.8743205 9.20180587,19.9129865 9.1241535,19.9387638 C9.06591422,19.9645411 8.98826185,19.9903184 8.93002257,20.0160958 C8.56117381,20.1578711 8.19232506,20.3254237 7.80406321,20.4929764 C7.70699774,20.5316423 7.62934537,20.5703083 7.53227991,20.6089743 C7.49345372,20.621863 7.45462754,20.6347517 7.43521445,20.660529 C7.37697517,20.6863063 7.31873589,20.7120836 7.27990971,20.737861 C7.20225734,20.7636383 7.14401806,20.8023043 7.06636569,20.8409703 C7.00812641,20.8667476 6.93047404,20.9054136 6.87223476,20.9311909 C6.63927765,21.0343003 6.42573363,21.1374096 6.21218962,21.2405189 C6.13453725,21.2791849 6.03747178,21.3307395 5.95981941,21.3694055 C5.88216704,21.4080715 5.78510158,21.4467375 5.70744921,21.4982922 C5.16388262,21.7689541 4.65914221,22.0267274 4.21264108,22.2587234 L4.1738149,22.232946 C4.19322799,22.2200574 4.27088036,22.1813914 4.38735892,22.1169481 C4.4261851,22.1040594 4.44559819,22.0782821 4.48442438,22.0525047 C4.50383747,22.0396161 4.54266366,22.0267274 4.56207675,22.0009501 C4.89209932,21.8205088 5.39683973,21.5240695 5.97923251,21.1889642 C6.03747178,21.1502982 6.09571106,21.1245209 6.15395034,21.0858549 C6.91106095,20.6476403 7.78465011,20.1320937 8.61941309,19.6294358 C8.65823928,19.6036585 8.69706546,19.5778812 8.75530474,19.5521039 C8.79413093,19.5263265 8.83295711,19.5005492 8.8717833,19.4747719 C8.93002257,19.4489945 8.96884876,19.4103285 9.02708804,19.3845512 C9.08532731,19.3458852 9.14356659,19.3201079 9.20180587,19.2814419 C9.3765237,19.1654439 9.55124153,19.0623346 9.72595937,18.9592253 C9.80361174,18.9076706 9.88126411,18.8690046 9.95891648,18.81745 C10.0171558,18.778784 10.075395,18.7530067 10.1142212,18.7143407 C10.1530474,18.6885633 10.1918736,18.662786 10.2306998,18.6370087 C10.2889391,18.5983427 10.3471783,18.5596767 10.4054176,18.5210107 C10.4636569,18.4823447 10.5218962,18.4436787 10.5607223,18.4179014 C10.6577878,18.3534581 10.7742664,18.2632374 10.910158,18.1730168 C10.9295711,18.1601281 10.9489842,18.1343508 10.9878104,18.1214621 C11.0072235,18.1085734 11.0072235,18.0956848 11.0266366,18.0827961 C11.0460497,18.0570188 11.0848758,18.0312415 11.1042889,18.0054641 C11.1042889,18.0054641 11.123702,17.9925755 11.123702,17.9925755 C11.1431151,17.9796868 11.1625282,17.9667981 11.1819413,17.9539095 C11.2013544,17.9281321 11.2401806,17.9023548 11.2595937,17.8765775 C11.2790068,17.8636888 11.2984199,17.8379115 11.317833,17.8250228 C11.317833,17.8121342 11.337246,17.8121342 11.337246,17.7992455 C11.3566591,17.7863568 11.3760722,17.7605795 11.3954853,17.7476908 C11.3954853,17.7476908 11.4148984,17.7348022 11.4148984,17.7348022 C11.4343115,17.7090248 11.4537246,17.6961362 11.4731377,17.6703589 C11.4925508,17.6574702 11.4925508,17.6445815 11.4925508,17.6316929 C11.5119639,17.6188042 11.5119639,17.6059155 11.5119639,17.5801382 C11.5119639,17.5672495 11.531377,17.5543609 11.531377,17.5414722 C11.531377,17.5285835 11.5507901,17.5156949 11.5507901,17.5156949 C11.5702032,17.4641402 11.5896163,17.4125856 11.6090293,17.3610309 C11.6090293,17.3481422 11.6090293,17.3352536 11.6090293,17.3223649 C11.6090293,17.3094763 11.6090293,17.2965876 11.6090293,17.2836989 C11.6090293,17.2708103 11.6090293,17.2579216 11.6090293,17.2450329 C11.6090293,17.2063669 11.6090293,17.1677009 11.5896163,17.129035 C11.5896163,17.129035 11.5896163,17.1161463 11.5896163,17.1161463 C11.5896163,17.1032576 11.5896163,17.090369 11.5702032,17.0774803 C11.4925508,16.8712617 11.2984199,16.7294864 11.2401806,16.703709 C11.2207675,16.6908204 11.2013544,16.6779317 11.1625282,16.6779317 C11.1431151,16.6779317 11.1431151,16.665043 11.123702,16.665043 C11.0654628,16.6521544 11.0266366,16.6521544 10.9489842,16.6521544 C10.9295711,16.6521544 10.8907449,16.6521544 10.8713318,16.6521544 C10.8519187,16.6521544 10.8325056,16.6521544 10.8130926,16.6521544 C10.7936795,16.6521544 10.7742664,16.6521544 10.7354402,16.665043 C10.7160271,16.665043 10.696614,16.665043 10.6772009,16.6779317 C10.6383747,16.6779317 10.5995485,16.6908204 10.5607223,16.6908204 L10.5607223,16.6908204 C10.5218962,16.703709 10.48307,16.703709 10.4442438,16.7165977 C10.4248307,16.7165977 10.4054176,16.7294864 10.3860045,16.7294864 C10.3471783,16.742375 10.2889391,16.7552637 10.2501129,16.7681523 C9.80361174,16.897039 9.18239278,17.129035 8.3282167,17.5156949 C8.21173815,17.5672495 8.09525959,17.6316929 7.95936795,17.6832475 C7.92054176,17.7090248 7.86230248,17.7348022 7.8234763,17.7476908 C7.76523702,17.7734682 7.72641084,17.7992455 7.66817156,17.8250228 C7.51286682,17.9023548 7.35756208,17.9796868 7.20225734,18.0570188 C7.14401806,18.0827961 7.08577878,18.1085734 7.0469526,18.1343508 C6.98871332,18.1601281 6.93047404,18.1859054 6.87223476,18.2245714 C6.81399549,18.2503488 6.75575621,18.2890147 6.67810384,18.3147921 C6.61986456,18.3534581 6.54221219,18.3792354 6.46455982,18.4179014 C6.40632054,18.4436787 6.34808126,18.469456 6.30925508,18.508122 C6.28984199,18.5210107 6.27042889,18.5338994 6.2510158,18.5338994 C6.15395034,18.585454 6.05688488,18.6370087 5.95981941,18.6885633 C5.82392777,18.7530067 5.70744921,18.8303386 5.57155756,18.894782 C5.4744921,18.9463366 5.39683973,18.9978913 5.29977427,19.0494459 C4.96975169,19.2298872 4.60090293,19.4232172 4.23205418,19.6423245 C4.1738149,19.6681018 4.11557562,19.7067678 4.05733634,19.7325452 C3.43611738,20.0805391 2.75665914,20.467199 2.03837472,20.8796363 C5.31918736,18.7916727 7.8234763,17.129035 9.04650113,16.2654944 C9.43476298,15.9948325 10.2112867,15.4406199 9.97832957,14.976628 C9.97832957,14.976628 9.86185102,14.7188547 9.3765237,14.5641907 C8.0758465,14.1130875 3.02844244,17.4641402 0.0194130926,19.5521039 C0.0388261851,19.5392152 0.0388261851,19.5263265 0.0582392777,19.5134379 C0.0776523702,19.5005492 0.0970654628,19.4747719 0.116478555,19.4618832 C0.15530474,19.4232172 0.213544018,19.3845512 0.271783296,19.3329966 C0.310609481,19.2943306 0.349435666,19.2685532 0.388261851,19.2298872 C0.446501129,19.1654439 0.504740406,19.1138893 0.582392777,19.0623346 C2.48487585,17.3481422 3.14492099,16.7939297 4.01851016,15.8917232 C4.60090293,15.2859559 4.58148984,15.24729 4.71738149,15.0797373 C4.81444695,14.9637393 4.93092551,14.86063 5.00857788,14.7575207 C5.2027088,14.5513021 5.45507901,14.3321948 5.57155756,13.9970895 C5.66862302,13.7908709 5.7268623,13.5717636 5.64920993,13.4042109 L5.64920993,13.4042109 C6.48397291,11.2002493 8.0758465,8.57096181 11.337246,7.77186462 C12.5020316,7.488314 12.7349887,7.8491966 13.8221219,7.44964801 C16.4623025,6.47010951 16.3846501,3.46705072 21.4126411,1.17286846 C27.6442438,-1.67552637 31.876298,2.02352031 31.876298,2.02352031 C31.876298,2.02352031 33.0604966,1.76574702 34.5553047,1.76574702 C36.2442438,1.76574702 38.3020316,2.10085229 39.4085779,3.5443827 C40.8063205,5.37457304 42.7282167,5.51634835 44.5336343,5.68390099 L50.3769752,19.7840998 Z" id="hair_2_"></path>
                                <path d="M28.110158,17.090369 C28.1295711,17.090369 28.1489842,17.1032576 28.1683973,17.1032576 C29.0613995,17.3610309 29.8767494,17.2836989 30.3426637,17.2450329 C31.9345372,17.1032576 33.5846501,16.3557151 33.778781,16.2654944 C33.4875847,16.6005997 32.9828442,17.090369 32.1286682,17.5028062 C30.4785553,18.3019034 28.7119639,18.2632374 28.1489842,18.2374601 C28.1489842,17.8508002 28.1295711,17.4641402 28.110158,17.090369 Z" id="Path"></path>
                                <path d="M37.2148984,11.174472 C37.1954853,11.174472 37.1760722,11.174472 37.1566591,11.1615833 C37.0984199,11.1486947 37.0790068,11.09714 37.117833,11.058474 C37.2925508,10.8135894 37.5643341,10.6202594 37.8749436,10.4784841 C38.0302483,10.4140408 38.185553,10.3495975 38.3602709,10.3109315 C38.4185102,10.2980428 38.4767494,10.3109315 38.4961625,10.3624862 C38.5155756,10.4011521 38.4961625,10.4398181 38.4379233,10.4655955 C38.2826185,10.5042615 38.1467269,10.5558161 38.0108352,10.6073708 C37.7196388,10.7362574 37.4866817,10.9166987 37.331377,11.135806 C37.2925508,11.1615833 37.2537246,11.174472 37.2148984,11.174472 Z" id="Path"></path>
                            </g>
                            <g id="hand_l_2_" transform="translate(7.571106, 25.777329)" fill="#000000">
                                <path d="M5.06681716,3.93104263 L4.98916479,4.00837462 C4.98916479,4.00837462 4.96975169,4.02126328 4.96975169,4.02126328 C4.65914221,4.26614791 4.44559819,4.47236654 4.30970655,4.62703051 C4.21264108,4.73013982 4.15440181,4.82036048 3.88261851,5.12968842 C3.76613995,5.25857506 3.68848758,5.36168438 3.61083521,5.4261277 C3.47494357,5.606569 3.31963883,5.7870103 3.18374718,5.9674516 L2.98961625,5.47768236 L2.29074492,3.76349 C2.29074492,3.76349 2.73724605,2.03640897 3.86320542,2.0621863 C4.96975169,2.08796363 5.06681716,3.93104263 5.06681716,3.93104263 Z" id="Path"></path>
                                <path d="M0.252370203,11.5095773 C0.252370203,11.5095773 0.232957111,11.5095773 0.232957111,11.5095773 C0.174717833,11.4966886 0.135891648,11.4580226 0.15530474,11.4193566 L2.17426637,3.76349 C2.19367946,3.724824 2.25191874,3.69904667 2.31015801,3.69904667 C2.36839729,3.71193534 2.40722348,3.75060133 2.40722348,3.78926733 L0.621218962,10.5815934 L3.10609481,5.95456294 C3.1255079,5.91589695 3.18374718,5.89011962 3.24198646,5.90300828 C3.30022573,5.91589695 3.33905192,5.95456294 3.30022573,6.0061176 L0.388261851,11.4580226 C0.349435666,11.4838 0.310609481,11.5095773 0.252370203,11.5095773 Z" id="Path"></path>
                                <path d="M5.55214447,6.75366013 C5.53273138,6.75366013 5.51331828,6.75366013 5.49390519,6.74077147 C5.43566591,6.71499414 5.43566591,6.66343948 5.4744921,6.63766215 C6.93047404,5.32301839 7.97878104,4.33059123 8.58058691,3.73771267 C9.3765237,2.97728147 9.99774266,2.33284825 10.4442438,1.84307901 C10.7160271,1.53375106 11.3566591,0.811985855 10.9878104,0.451103253 C10.9878104,0.451103253 10.8519187,0.322216609 10.5607223,0.257773287 C10.1724605,0.180441301 8.94943567,0.567101232 5.06681716,4.05992928 C5.02799097,4.09859527 4.9503386,4.09859527 4.91151242,4.07281794 C4.85327314,4.04704061 4.85327314,3.99548596 4.89209932,3.96970863 C7.95936795,1.19864579 9.82302483,-0.0644433219 10.6189616,0.103109315 C10.9878104,0.180441301 11.1625282,0.347993938 11.1625282,0.360882602 C11.6090293,0.811985855 10.910158,1.58530572 10.6189616,1.92041099 C10.1724605,2.4230689 9.55124153,3.05461346 8.75530474,3.82793332 C8.13408578,4.42081188 7.10519187,5.41323904 5.64920993,6.7278828 C5.62979684,6.74077147 5.59097065,6.75366013 5.55214447,6.75366013 Z" id="Path"></path>
                                <path d="M7.24108352,16.3428264 C7.20225734,16.3428264 7.18284424,16.3299378 7.16343115,16.3170491 C7.12460497,16.2783831 7.12460497,16.2397171 7.18284424,16.2139398 L7.31873589,16.1366078 C8.63882619,15.4019539 9.39593679,14.5384134 9.88126411,13.9713122 C10.7548533,12.9659964 11.3566591,11.8575712 11.6672686,10.6847028 C11.6672686,10.6589254 11.6866817,10.6460368 11.7060948,10.6331481 C12.8514673,10.0660469 13.8997743,9.5505003 14.7927765,9.09939705 C15.6275395,8.67407112 16.3264108,8.30029986 16.7923251,8.0296379 C17.1417607,7.82341927 17.9765237,7.34653869 17.8600451,6.86965811 C17.821219,6.74077147 17.7241535,6.61188482 17.627088,6.5474415 C17.3164786,6.3670002 15.9187359,6.27677955 9.78419865,9.44739098 C9.74537246,9.47316831 9.68713318,9.47316831 9.648307,9.44739098 L9.60948081,9.42161366 C9.57065463,9.39583633 9.57065463,9.34428167 9.60948081,9.31850434 C9.648307,9.29272701 9.68713318,9.29272701 9.72595937,9.30561568 C12.8902935,7.6687553 16.8117381,5.86434229 17.7823928,6.44433219 C17.9376975,6.53455284 18.0541761,6.70210547 18.0930023,6.85676945 C18.2288939,7.42387068 17.3164786,7.93941725 16.9476298,8.15852455 C16.4623025,8.4291865 15.7634312,8.80295777 14.9286682,9.24117235 C14.055079,9.69227561 13.0261851,10.2078222 11.8808126,10.7620348 C11.5702032,11.9477919 10.9683973,13.056217 10.075395,14.0744215 C9.57065463,14.6544114 8.81354402,15.5179519 7.45462754,16.2783831 L7.31873589,16.3557151 C7.27990971,16.3428264 7.26049661,16.3428264 7.24108352,16.3428264 Z" id="Path"></path>
                                <path d="M9.66772009,9.43450232 C9.62889391,9.43450232 9.60948081,9.42161366 9.59006772,9.40872499 C9.55124153,9.370059 9.55124153,9.33139301 9.60948081,9.30561568 C10.075395,9.04784239 14.0939052,6.7665488 15.9963883,5.49057102 C16.3458239,5.25857506 17.1611738,4.71725116 16.986456,4.21459325 C16.9088036,4.00837462 16.6952596,3.87948798 16.6952596,3.87948798 C16.3458239,3.68615801 14.7151242,3.95681996 7.64875847,8.05541523 C7.60993228,8.08119256 7.53227991,8.08119256 7.49345372,8.04252657 C7.45462754,8.01674924 7.45462754,7.96519458 7.51286682,7.93941725 C14.9286682,3.64749202 16.3846501,3.50571671 16.8505643,3.76349 C16.8699774,3.76349 17.1223476,3.91815397 17.2194131,4.17592726 C17.4329571,4.75591715 16.5399549,5.33590705 16.1711061,5.59368034 C14.3074492,6.84388078 10.5218962,8.99628773 9.78419865,9.40872499 C9.72595937,9.43450232 9.70654628,9.43450232 9.66772009,9.43450232 Z" id="Path"></path>
                                <path d="M7.551693,8.08119256 C7.53227991,8.08119256 7.49345372,8.0683039 7.47404063,8.05541523 C7.43521445,8.0296379 7.43521445,7.97808325 7.47404063,7.95230592 C7.47404063,7.95230592 7.49345372,7.93941725 7.49345372,7.93941725 C11.0072235,5.69678965 13.414447,4.09859527 14.482167,3.33816407 C14.8121896,3.10616811 15.6081264,2.55195555 15.3945824,2.12662962 C15.3945824,2.11374096 15.2781038,1.90752233 14.8510158,1.75285835 C14.3268623,1.57241705 12.4437923,1.98485431 5.62979684,6.7278828 C5.59097065,6.75366013 5.51331828,6.75366013 5.4744921,6.7278828 C5.43566591,6.70210547 5.43566591,6.65055082 5.4744921,6.62477349 C10.7354402,2.95150414 13.9386005,1.27597777 14.9674944,1.62397171 C15.4722348,1.80441301 15.6081264,2.07507496 15.6275395,2.08796363 C15.8799097,2.6035102 15.0257336,3.19638876 14.6568849,3.45416205 C13.5891648,4.21459325 11.1819413,5.81278763 7.64875847,8.0683039 C7.60993228,8.0683039 7.59051919,8.08119256 7.551693,8.08119256 Z" id="Path"></path>
                                <polygon id="Path" points="3.18374718 5.9674516 0.252370203 11.4322453 1.26185102 7.60431198 3.06726862 5.68390099"></polygon>
                                <path d="M3.18374718,6.04478359 C3.16433409,6.04478359 3.14492099,6.04478359 3.1255079,6.03189493 C3.06726862,6.0061176 3.04785553,5.9674516 3.08668172,5.92878561 C3.26139955,5.69678965 3.45553047,5.46479369 3.6496614,5.23279774 C4.01851016,4.79458315 4.44559819,4.36925722 4.89209932,3.96970863 C4.93092551,3.93104263 4.98916479,3.93104263 5.04740406,3.95681996 C5.10564334,3.98259729 5.10564334,4.03415195 5.06681716,4.05992928 C4.63972912,4.45947787 4.21264108,4.8848038 3.84379233,5.31012972 C3.6496614,5.52923702 3.45553047,5.76123297 3.28081264,5.99322893 C3.26139955,6.03189493 3.22257336,6.04478359 3.18374718,6.04478359 Z" id="Path"></path>
                            </g>
                            <g id="hand_r_2_" transform="translate(33.002257, 47.816945)" fill="#000000">
                                <path d="M16.151693,12.7726664 C16.1322799,12.7726664 16.1322799,12.7726664 16.1128668,12.7726664 C15.6663657,12.6824457 15.2198646,12.5793364 14.7927765,12.4504498 C14.5986456,12.3860065 14.3851016,12.3215631 14.1715576,12.2571198 C13.8027088,12.1282332 13.43386,11.9735692 13.0650113,11.8060166 C11.2207675,10.9424761 10.1336343,9.84693958 9.57065463,9.06073105 C8.73589165,8.94473307 7.88171558,8.89317842 7.0469526,8.90606708 C6.48397291,8.91895575 5.90158014,8.95762174 5.35801354,9.03495372 C5.28036117,9.04784239 3.10609481,9.47316831 1.88306998,9.370059 C1.5530474,9.34428167 1.32009029,9.26694968 1.20361174,9.12517438 C1.14537246,9.06073105 1.12595937,8.99628773 1.10654628,8.91895575 C1.10654628,8.80295777 1.14537246,8.68695979 1.16478555,8.64829379 C1.53363431,7.90075126 4.79503386,7.50120266 5.16388262,7.46253667 C6.65869074,7.29498403 8.19232506,7.21765205 9.74537246,7.23054071 C9.80361174,7.23054071 9.86185102,7.26920671 9.86185102,7.3078727 C9.86185102,7.34653869 9.80361174,7.38520469 9.74537246,7.38520469 L9.74537246,7.38520469 C8.21173815,7.37231602 6.67810384,7.44964801 5.2027088,7.61720064 C3.99909707,7.75897595 1.63069977,8.15852455 1.37832957,8.69984845 C1.35891648,8.73851444 1.32009029,8.82873509 1.32009029,8.91895575 C1.32009029,8.9705104 1.33950339,9.02206506 1.37832957,9.04784239 C1.45598194,9.13806304 1.63069977,9.1896177 1.90248307,9.21539503 C3.06726862,9.31850434 5.28036117,8.88028975 5.29977427,8.88028975 C5.88216704,8.80295777 6.46455982,8.76429177 7.0469526,8.75140311 C7.93995485,8.73851444 8.81354402,8.7900691 9.68713318,8.91895575 C9.72595937,8.91895575 9.74537246,8.94473307 9.76478555,8.95762174 C10.3277652,9.7309416 11.3760722,10.8264781 13.220316,11.6771299 C13.5697517,11.8446826 13.9386005,11.9864579 14.3074492,12.1153445 C14.5015801,12.1797878 14.7151242,12.2442312 14.9092551,12.3086745 C15.31693,12.4375611 15.7634312,12.5406704 16.1905192,12.6180024 C16.2487585,12.6308911 16.2875847,12.6695571 16.2681716,12.7082231 C16.2487585,12.7468891 16.2099323,12.7726664 16.151693,12.7726664 Z" id="Path"></path>
                                <path d="M18.8306998,6.39277753 C18.8112867,6.39277753 18.7724605,6.37988886 18.7530474,6.3670002 L18.5200903,6.21233623 C18.3259594,6.07056092 18.1124153,5.94167428 17.9182844,5.79989897 C17.3747178,5.43901636 16.8893905,5.11679976 16.4428894,4.83324914 C16.0934537,4.60125318 15.7440181,4.38214589 15.3945824,4.15014993 C14.6957111,3.69904667 13.9580135,3.23505476 13.220316,2.7839515 C12.8514673,2.65506486 12.4826185,2.51328955 12.1137698,2.38440291 C12.1137698,2.38440291 12.1137698,2.38440291 12.1137698,2.38440291 C12.1137698,2.38440291 12.1137698,2.38440291 12.1137698,2.38440291 L12.1137698,2.38440291 L11.8031603,2.28129359 C11.2984199,2.10085229 9.74537246,1.55952839 8.19232506,1.09553647 C6.65869074,0.644433219 5.43566591,0.360882602 4.60090293,0.270661952 C3.9214447,0.193329966 3.49435666,0.231995959 3.31963883,0.386659931 C3.14492099,0.541323904 3.22257336,0.799097191 3.24198646,0.850651849 C3.24198646,0.850651849 3.24198646,0.863540513 3.24198646,0.863540513 C3.3778781,1.21153445 4.19322799,1.49508507 4.65914221,1.62397171 C4.89209932,1.68841503 5.04740406,1.72708103 5.06681716,1.72708103 C5.61038375,1.85596767 6.13453725,2.01063164 6.65869074,2.17818428 C7.31873589,2.39729157 7.84288939,2.6035102 8.3476298,2.80972883 C8.61941309,2.91283815 8.89119639,3.02883613 9.14356659,3.14483411 C9.20180587,3.17061144 9.20180587,3.20927743 9.18239278,3.24794342 C9.14356659,3.28660941 9.08532731,3.29949808 9.02708804,3.27372075 C8.75530474,3.15772277 8.50293454,3.05461346 8.23115124,2.93861548 C7.72641084,2.73239685 7.22167043,2.52617822 6.56162528,2.31995959 C6.05688488,2.15240695 5.53273138,2.01063164 5.00857788,1.881745 C5.00857788,1.881745 4.83386005,1.84307901 4.60090293,1.77863568 C3.97968397,1.59819438 3.20316027,1.3017551 3.04785553,0.91509517 C3.04785553,0.91509517 3.04785553,0.902206506 3.04785553,0.902206506 C3.00902935,0.811985855 2.93137698,0.515546575 3.16433409,0.296439281 C3.3972912,0.0902206506 3.88261851,0.0386659931 4.65914221,0.115997979 C5.53273138,0.20621863 6.75575621,0.489769246 8.30880361,0.953761164 C9.88126411,1.41775308 11.4343115,1.95907698 11.9390519,2.13951829 L12.2496614,2.2426276 C12.2496614,2.2426276 12.2496614,2.2426276 12.2496614,2.2426276 C12.2496614,2.2426276 12.2496614,2.2426276 12.2496614,2.2426276 L12.2496614,2.2426276 C12.6379233,2.37151424 13.006772,2.51328955 13.3756208,2.65506486 C13.3756208,2.65506486 13.3950339,2.66795353 13.3950339,2.66795353 C14.1327314,3.13194544 14.8704289,3.59593736 15.5693002,4.04704061 C15.9187359,4.26614791 16.2681716,4.49814387 16.6176072,4.73013982 C17.0641084,5.01369044 17.5300226,5.33590705 18.0930023,5.69678965 C18.3065463,5.83856496 18.5006772,5.9674516 18.6948081,6.10922691 L18.9277652,6.26389088 C18.9665914,6.28966821 18.9665914,6.34122287 18.9277652,6.3670002 C18.8889391,6.37988886 18.8501129,6.39277753 18.8306998,6.39277753 Z" id="Path"></path>
                                <path d="M9.76478555,7.38520469 C9.74537246,7.38520469 9.74537246,7.38520469 9.72595937,7.38520469 C9.20180587,7.28209537 8.71647856,7.20476338 8.21173815,7.1274314 L8.15349887,7.11454273 C6.94988713,6.92121277 5.7268623,6.74077147 4.56207675,6.57321883 C2.98961625,6.34122287 1.98013544,6.21233623 1.98013544,6.21233623 L1.96072235,6.21233623 C1.65011287,6.17367023 1.26185102,6.12211558 0.91241535,6.0061176 C0.601805869,5.90300828 0.388261851,5.76123297 0.291196388,5.59368034 C0.0970654628,5.27146373 0.330022573,4.92346979 0.349435666,4.8848038 C0.388261851,4.82036048 0.465914221,4.76880582 0.543566591,4.73013982 C0.640632054,4.67858517 0.776523702,4.63991917 0.931828442,4.61414185 C1.5530474,4.49814387 2.65959368,4.53680986 4.27088036,4.71725116 L4.30970655,4.71725116 C4.40677201,4.73013982 4.50383747,4.74302849 4.62031603,4.75591715 C5.62979684,4.87191513 6.83340858,5.0652451 8.23115124,5.29724106 C9.16297968,5.45190503 10.2306998,5.64523499 11.3954853,5.86434229 C11.4537246,5.87723095 11.4925508,5.91589695 11.4731377,5.95456294 C11.4537246,5.99322893 11.3954853,6.01900626 11.337246,6.0061176 C10.1918736,5.7870103 9.1241535,5.59368034 8.19232506,5.43901636 C6.81399549,5.20702041 5.59097065,5.02657911 4.60090293,4.89769246 C4.50383747,4.8848038 4.40677201,4.87191513 4.30970655,4.85902647 L4.27088036,4.85902647 C2.69841986,4.67858517 1.61128668,4.63991917 1.02889391,4.75591715 C0.893002257,4.78169448 0.795936795,4.80747181 0.718284424,4.8461378 C0.660045147,4.87191513 0.621218962,4.91058113 0.582392777,4.94924712 C0.562979684,4.98791311 0.349435666,5.27146373 0.524153499,5.54212568 C0.601805869,5.68390099 0.776523702,5.7870103 1.048307,5.87723095 C1.35891648,5.98034027 1.72776524,6.03189493 2.03837472,6.07056092 L2.05778781,6.07056092 C2.0772009,6.07056092 3.08668172,6.21233623 4.65914221,6.43144352 C5.84334086,6.59899616 7.0469526,6.77943746 8.25056433,6.97276743 L8.30880361,6.98565609 C8.81354402,7.06298808 9.31828442,7.15320873 9.84243792,7.25631804 C9.88126411,7.26920671 9.92009029,7.29498403 9.92009029,7.33365003 C9.88126411,7.34653869 9.82302483,7.38520469 9.76478555,7.38520469 Z" id="Path"></path>
                                <path d="M11.337246,6.0061176 C11.317833,6.0061176 11.2984199,6.0061176 11.2790068,5.99322893 C10.1530474,5.59368034 9.10474041,5.25857506 8.13408578,4.98791311 C8.13408578,4.98791311 8.13408578,4.98791311 8.11467269,4.98791311 C7.93995485,4.93635845 7.78465011,4.89769246 7.62934537,4.85902647 C7.62934537,4.85902647 7.62934537,4.85902647 7.62934537,4.85902647 C6.503386,4.56258719 5.4744921,4.34347989 4.54266366,4.21459325 C4.05733634,4.15014993 3.61083521,4.11148393 3.20316027,4.08570661 L3.1255079,4.08570661 C2.62076749,4.05992928 1.59187359,4.00837462 0.873589165,3.69904667 C0.621218962,3.5830487 0.427088036,3.45416205 0.310609481,3.28660941 C0.252370203,3.19638876 0.0388261851,2.87417215 0.232957111,2.6035102 C0.349435666,2.44884623 0.562979684,2.34573692 0.893002257,2.26840493 C0.931828442,2.25551627 0.970654628,2.25551627 1.00948081,2.2426276 C1.5530474,2.15240695 2.38781038,2.15240695 3.47494357,2.2426276 C3.80496614,2.26840493 4.1738149,2.30707092 4.58148984,2.35862558 C5.04740406,2.41018024 5.45507901,2.47462356 5.76568849,2.51328955 L5.80451467,2.51328955 C6.60045147,2.62928753 7.41580135,2.77106284 8.21173815,2.93861548 C8.52234763,3.0030588 8.79413093,3.06750212 9.06591422,3.13194544 C10.2112867,3.40260739 11.337246,3.724824 12.4437923,4.09859527 C12.5020316,4.11148393 12.5214447,4.16303859 12.5020316,4.20170459 C12.4826185,4.24037058 12.4049661,4.25325924 12.3467269,4.24037058 C11.2595937,3.86659931 10.1336343,3.5443827 9.00767494,3.28660941 C8.75530474,3.22216609 8.46410835,3.15772277 8.17291196,3.10616811 C7.37697517,2.93861548 6.58103837,2.79684017 5.78510158,2.68084219 L5.7462754,2.68084219 C5.43566591,2.6421762 5.02799097,2.57773287 4.56207675,2.52617822 C4.15440181,2.47462356 3.80496614,2.43595757 3.47494357,2.41018024 C2.40722348,2.31995959 1.61128668,2.31995959 1.08713318,2.41018024 C1.048307,2.41018024 1.00948081,2.4230689 0.99006772,2.43595757 C0.718284424,2.48751222 0.543566591,2.57773287 0.465914221,2.69373085 C0.310609481,2.89994948 0.504740406,3.1835001 0.543566591,3.24794342 C0.640632054,3.38971873 0.795936795,3.50571671 1.02889391,3.59593736 C1.68893905,3.89237664 2.71783296,3.9439313 3.16433409,3.95681996 L3.24198646,3.95681996 C3.66907449,3.98259729 4.11557562,4.02126328 4.60090293,4.08570661 C5.53273138,4.21459325 6.58103837,4.43370054 7.70699774,4.73013982 C7.70699774,4.73013982 7.70699774,4.73013982 7.72641084,4.73013982 C7.90112867,4.76880582 8.05643341,4.82036048 8.23115124,4.87191513 C8.23115124,4.87191513 8.25056433,4.87191513 8.25056433,4.87191513 C9.22121896,5.14257708 10.269526,5.47768236 11.3760722,5.86434229 C11.3760722,5.86434229 11.3954853,5.86434229 11.3954853,5.86434229 C11.4537246,5.87723095 11.4731377,5.92878561 11.4537246,5.9674516 L11.4537246,5.9674516 C11.4343115,5.98034027 11.4148984,6.0061176 11.3954853,6.0061176 C11.3760722,6.0061176 11.3566591,6.0061176 11.337246,6.0061176 Z" id="Path"></path>
                                <path d="M19.9566591,5.37457304 L19.8984199,5.38746171 L19.1024831,5.54212568 L17.9959368,5.74834431 L16.8893905,5.02657911 C16.8893905,5.02657911 15.6081264,1.95907698 16.9670429,1.7013037 C18.0153499,1.50797373 19.3160271,4.02126328 19.9566591,5.37457304 Z" id="Path"></path>
                                <path d="M21.1990971,7.90075126 C21.1602709,7.90075126 21.1020316,7.8878626 21.1020316,7.8491966 L20.2284424,6.22522489 C20.2090293,6.1865589 20.1702032,6.10922691 20.1119639,5.9674516 C20.0537246,5.8256763 19.9566591,5.63234633 19.8595937,5.40035037 C19.8401806,5.36168438 19.8790068,5.32301839 19.937246,5.31012972 C19.9954853,5.29724106 20.0537246,5.32301839 20.0731377,5.36168438 C20.1702032,5.59368034 20.2672686,5.7870103 20.3255079,5.92878561 C20.3837472,6.05767225 20.4225734,6.14789291 20.4419865,6.17367023 L21.3155756,7.79764195 C21.3349887,7.83630794 21.3155756,7.87497393 21.2573363,7.90075126 C21.2379233,7.90075126 21.2185102,7.90075126 21.1990971,7.90075126 Z" id="Path"></path>
                                <path d="M21.0826185,7.59142332 L14.8510158,12.3731178 C15.3363431,12.5148931 15.7634312,12.6180024 16.151693,12.6824457 C17.8406321,11.058474 19.510158,9.43450232 21.1990971,7.81053061 C21.1990971,7.78475328 21.1990971,7.74608729 21.179684,7.70742129 C21.1602709,7.65586664 21.1214447,7.61720064 21.0826185,7.59142332 Z" id="Path"></path>
                            </g>
                            <g id="body_2_" transform="translate(0.000000, 26.550649)" fill="#000000">
                                <path d="M7.49345372,42.5583698 C7.41580135,42.5583698 7.37697517,42.5583698 7.35756208,42.5583698 C7.35756208,42.5583698 7.35756208,42.5583698 7.35756208,42.5583698 C6.5227991,42.5583698 5.76568849,42.4681491 5.14446953,42.2748191 C2.93137698,41.8366046 1.39774266,39.7486409 0.582392777,36.0495942 C0.407674944,35.2891631 0.310609481,34.5673978 0.232957111,34.0905173 C0.213544018,33.9229646 0.194130926,33.7683007 0.174717833,33.6265253 C-0.330022573,30.146586 0.543566591,25.6613308 2.77607223,20.2996464 C4.03792325,17.2321443 5.76568849,13.8939802 7.74582393,10.6331481 C7.76523702,10.6073708 7.78465011,10.5944821 7.8234763,10.5815934 C7.86230248,10.5815934 7.90112867,10.5815934 7.92054176,10.6073708 L14.889842,15.4535086 C14.9092551,15.4663972 14.9286682,15.4921746 14.9286682,15.5050632 L14.5598194,30.5590232 C14.5598194,30.5976892 14.5015801,30.6363552 14.4433409,30.6363552 C14.4433409,30.6363552 14.4433409,30.6363552 14.4433409,30.6363552 C14.3851016,30.6363552 14.3268623,30.5976892 14.3268623,30.5590232 L14.6957111,15.5308406 L7.86230248,10.7878121 C5.90158014,14.0099782 4.21264108,17.3094763 2.97020316,20.3254237 C0.757110609,25.6613308 -0.116478555,30.1208086 0.388261851,33.5878594 C0.407674944,33.7296347 0.427088036,33.8842986 0.446501129,34.0518513 C0.524153499,34.5158432 0.621218962,35.2376084 0.795936795,35.9980396 C1.59187359,39.6326429 3.06726862,41.6819406 5.2027088,42.1072665 C5.2027088,42.1072665 5.2221219,42.1072665 5.2221219,42.1072665 C5.82392777,42.2877078 6.54221219,42.3779285 7.35756208,42.3779285 C7.37697517,42.3779285 8.94943567,42.4165944 10.7354402,41.9526025 C11.4148984,41.7721612 12.385553,41.4112786 13.5309255,40.8957321 C13.7832957,40.7797341 14.055079,40.6637361 14.3268623,40.5219608 C16.8117381,39.3490923 19.8207675,37.673566 22.7909707,35.791821 C22.8297968,35.7660436 22.9074492,35.7660436 22.9462754,35.791821 C22.9851016,35.8175983 22.9851016,35.8691529 22.9462754,35.8949303 C19.9760722,37.7766753 16.9670429,39.4650903 14.462754,40.6379588 C14.1715576,40.7797341 13.8997743,40.8957321 13.6474041,41.01173 C12.5020316,41.5272766 11.5119639,41.8881592 10.8130926,42.0814892 C9.27945824,42.5197038 7.92054176,42.5583698 7.49345372,42.5583698 Z" id="Path"></path>
                                <path d="M64.4708804,27.7879604 C64.4126411,27.7879604 64.3544018,27.7492944 64.3544018,27.7106284 C64.3349887,25.0684522 64.3349887,22.4391647 64.3155756,19.7969885 L64.3155756,19.1010006 C64.3155756,19.0623346 64.3738149,19.0236686 64.4320542,19.0236686 C64.4320542,19.0236686 64.4320542,19.0236686 64.4320542,19.0236686 C64.4902935,19.0236686 64.5485327,19.0623346 64.5485327,19.1010006 L64.5485327,19.7969885 C64.5679458,22.4391647 64.5679458,25.0684522 64.5873589,27.7106284 C64.5873589,27.7492944 64.5291196,27.7879604 64.4708804,27.7879604 C64.4708804,27.7879604 64.4708804,27.7879604 64.4708804,27.7879604 Z" id="Path"></path>
                                <path d="M10.6383747,61.3242651 C10.5995485,61.3242651 10.5801354,61.3113764 10.5413093,61.2984878 C10.5218962,61.2727104 10.5218962,61.2469331 10.5218962,61.2340444 L22.6939052,35.9078189 C23.3151242,34.6060638 23.9557562,33.2914201 24.5769752,31.989665 L26.5959368,27.7750717 C26.8677201,27.1950818 27.1589165,26.6279806 27.4306998,26.0479907 C27.8189616,25.2231162 28.2266366,24.3982417 28.6148984,23.5862558 L29.56614,21.6014015 C29.585553,21.5627355 29.6437923,21.5369582 29.7020316,21.5498468 C29.7602709,21.5627355 29.7990971,21.6014015 29.779684,21.6400675 L28.8284424,23.6249218 C28.4401806,24.4497963 28.0325056,25.2746708 27.6442438,26.0866567 C27.3724605,26.6666466 27.1006772,27.2337478 26.8094808,27.8137377 L24.7905192,32.028331 C24.1693002,33.3300861 23.5286682,34.6447298 22.9074492,35.9464849 L10.7936795,61.1696011 L64.5097065,59.3007448 C64.5097065,55.8079167 64.4902935,52.263534 64.4708804,48.7835946 C64.4514673,44.4916694 64.4126411,41.2179487 64.3738149,38.1633352 C64.3738149,38.1246692 64.4320542,38.0860032 64.4902935,38.0860032 C64.4902935,38.0860032 64.4902935,38.0860032 64.4902935,38.0860032 C64.5485327,38.0860032 64.606772,38.1246692 64.606772,38.1633352 C64.6455982,41.2179487 64.6650113,44.5045581 64.7038375,48.7835946 C64.7232506,52.3022 64.7426637,55.8594714 64.7426637,59.3780768 C64.7426637,59.4167428 64.7038375,59.4554087 64.6455982,59.4554087 L10.6383747,61.3242651 C10.6383747,61.3242651 10.6383747,61.3242651 10.6383747,61.3242651 Z" id="Path"></path>
                                <path d="M72.0031603,26.7697559 C71.9643341,26.7697559 71.9255079,26.7568672 71.9060948,26.7310899 C69.3823928,24.2049117 66.8586907,21.6658448 64.3349887,19.1396666 C64.2961625,19.1010006 64.3155756,19.0623346 64.3738149,19.0365573 C64.4320542,19.0107799 64.4902935,19.0236686 64.5291196,19.0623346 C67.0528217,21.5885128 69.5765237,24.1275797 72.1002257,26.6537579 C72.1390519,26.6924239 72.1196388,26.7310899 72.0613995,26.7568672 C72.0613995,26.7697559 72.0419865,26.7697559 72.0031603,26.7697559 Z" id="Path"></path>
                                <path d="M41.0781038,18.894782 C41.0781038,18.894782 41.0586907,18.894782 41.0781038,18.894782 C41.0198646,18.894782 40.9810384,18.8690046 40.9616253,18.8432273 L36.5936795,8.63540513 C36.5742664,8.59673914 36.6130926,8.55807314 36.6713318,8.54518448 C36.7295711,8.53229581 36.7878104,8.55807314 36.8072235,8.59673914 L41.11693,18.6498973 L45.9896163,14.1001988 C48.9986456,11.2775813 52.0076749,8.45496383 55.0167043,5.64523499 C55.0555305,5.606569 55.1137698,5.606569 55.172009,5.63234633 C55.2302483,5.65812366 55.2302483,5.70967832 55.1914221,5.73545565 C52.1823928,8.55807314 49.1733634,11.3806906 46.1643341,14.1904195 L41.1751693,18.8690046 C41.1557562,18.894782 41.11693,18.894782 41.0781038,18.894782 Z" id="Path"></path>
                                <path d="M14.5986456,23.9729157 C14.5792325,23.9729157 14.5598194,23.9729157 14.5404063,23.9600271 C14.482167,23.9342497 14.462754,23.8955837 14.5015801,23.8569178 C14.7345372,23.5604785 15.0063205,23.2511505 15.2781038,22.9289339 C15.8604966,22.2458347 16.4817156,21.5627355 17.1029345,20.9054136 C21.5679458,16.2526058 29.372009,10.1176015 41.1363431,7.25631804 L41.2139955,3.57016003 C41.2139955,3.53149404 41.2722348,3.49282804 41.330474,3.49282804 C41.3887133,3.49282804 41.4469526,3.53149404 41.4469526,3.57016003 L41.3693002,7.3078727 C41.3693002,7.33365003 41.330474,7.37231602 41.2916479,7.37231602 C29.5467269,10.2078222 21.7620767,16.3428264 17.2970655,20.9827456 C16.6758465,21.6400675 16.0546275,22.310278 15.4722348,23.0062659 C15.2004515,23.3155938 14.9480813,23.6378105 14.6957111,23.9342497 C14.676298,23.9471384 14.6374718,23.9729157 14.5986456,23.9729157 Z" id="Path"></path>
                                <path d="M63.8302483,38.2406672 C56.841535,38.2406672 51.1146727,36.4104769 47.9697517,35.1216104 C47.9503386,35.1087217 47.9309255,35.0958331 47.9115124,35.0700558 C47.9115124,35.0442784 47.9115124,35.0313898 47.9309255,35.0056124 C48.6103837,34.3611792 49.289842,33.7038573 49.9498871,33.0465354 L51.0564334,31.9767763 C52.0659142,30.9972378 53.075395,30.0176993 54.1042889,29.0381608 C54.123702,29.0252722 54.1431151,29.0123835 54.1819413,29.0123835 L54.9972912,28.9092742 C55.2108352,28.8834969 55.4243792,28.8577195 55.6379233,28.8190535 C62.5295711,27.8910697 69.4018059,26.9759745 76.2934537,26.0479907 C76.351693,26.035102 76.4099323,26.0608794 76.4293454,26.112434 C76.4487585,26.1511 76.4099323,26.189766 76.3322799,26.2026547 C69.4406321,27.1306385 62.5683973,28.0457337 55.6767494,28.9737175 C55.4632054,28.9994948 55.2496614,29.0252722 55.0361174,29.0639382 L54.2790068,29.1670475 C53.269526,30.1336973 52.2600451,31.1132358 51.2699774,32.0798856 L50.1634312,33.1496448 C49.503386,33.7811893 48.862754,34.4127339 48.2027088,35.0313898 C52.2018059,36.6424728 60.2388262,39.091319 69.634763,37.6477886 C71.4401806,37.364238 76.2352144,36.6295841 80.1760722,34.5931752 C80.6225734,34.3611792 81.0496614,34.1291833 81.4379233,33.87141 C82.9521445,32.9176488 84.0781038,31.8092237 84.7963883,30.5976892 C86.2329571,28.187509 85.6505643,26.0093247 85.1458239,24.0889137 C85.1264108,24.0115817 85.1069977,23.9213611 85.0681716,23.8440291 L85.0487585,23.7666971 C85.0293454,23.6764765 84.9905192,23.5733671 84.9711061,23.4831465 C81.7873589,13.133549 71.3431151,7.69453263 63.344921,6.19944756 C59.2293454,5.4261277 54.8419865,5.34879571 50.3187359,5.95456294 C50.2799097,5.95456294 50.2604966,5.95456294 50.2216704,5.94167428 C50.2022573,5.92878561 50.1828442,5.90300828 50.1828442,5.87723095 C50.2022573,4.93635845 50.2410835,3.96970863 50.2993228,3.01594746 C50.3575621,2.0621863 50.4546275,1.10842514 50.5711061,0.167552637 C50.5711061,0.128886644 50.6293454,0.0902206506 50.6875847,0.103109315 C50.7458239,0.103109315 50.8040632,0.141775308 50.7846501,0.180441301 C50.6681716,1.1213138 50.5711061,2.07507496 50.5128668,3.02883613 C50.4546275,3.95681996 50.4158014,4.8848038 50.3963883,5.7870103 C54.9196388,5.19413174 59.2875847,5.28435239 63.3837472,6.04478359 C69.227088,7.14032006 74.4297968,9.65360961 78.448307,13.3011016 C82.8162528,17.2708103 84.5440181,21.3694055 85.1846501,23.4573692 C85.2234763,23.5475898 85.2428894,23.6506991 85.2623025,23.7409198 L85.2817156,23.8182518 C85.3011287,23.9084724 85.3205418,23.9858044 85.3593679,24.0631364 C85.8446953,25.9062154 86.4465011,28.2003976 84.9905192,30.6492439 C84.2528217,31.8865557 83.1074492,33.0078695 81.5738149,33.9745193 C81.185553,34.2194039 80.7390519,34.4642885 80.2925508,34.6962845 C76.3128668,36.7584708 71.4984199,37.4931247 69.6735892,37.7766753 C67.6546275,38.0988919 65.7133183,38.2406672 63.8302483,38.2406672 Z" id="Path"></path>
                                <g id="pattern_2_" transform="translate(17.083521, 5.542126)">
                                    <g id="Group">
                                        <path d="M19.6848758,3.32527541 L19.1024831,3.32527541 C19.0442438,3.32527541 18.9860045,3.28660941 18.9860045,3.24794342 C18.9860045,3.20927743 19.0442438,3.17061144 19.1024831,3.17061144 L19.6848758,3.17061144 C19.7431151,3.17061144 19.8013544,3.20927743 19.8013544,3.24794342 C19.8013544,3.28660941 19.7431151,3.32527541 19.6848758,3.32527541 Z" id="Path"></path>
                                        <path d="M42.3011287,3.32527541 L34.7106095,3.32527541 C34.6523702,3.32527541 34.5941309,3.28660941 34.5941309,3.24794342 C34.5941309,3.20927743 34.6523702,3.17061144 34.7106095,3.17061144 L45.931377,3.17061144 L47.3679458,3.13194544 C47.3679458,3.13194544 47.3679458,3.13194544 47.3679458,3.13194544 C47.4261851,3.13194544 47.4844244,3.15772277 47.4844244,3.20927743 C47.4844244,3.24794342 47.4455982,3.28660941 47.3679458,3.28660941 L45.931377,3.32527541 L42.3011287,3.32527541 Z" id="Path"></path>
                                        <path d="M48.3968397,5.7870103 L32.0704289,5.7870103 C32.0121896,5.7870103 31.9539503,5.74834431 31.9539503,5.70967832 C31.9539503,5.67101232 32.0121896,5.63234633 32.0704289,5.63234633 L48.3968397,5.63234633 C48.455079,5.63234633 48.5133183,5.67101232 48.5133183,5.70967832 C48.5133183,5.76123297 48.455079,5.7870103 48.3968397,5.7870103 Z" id="Path"></path>
                                        <path d="M1.76659142,5.7870103 L1.76659142,5.7870103 C1.70835214,5.7870103 1.65011287,5.74834431 1.65011287,5.70967832 C1.65011287,5.67101232 1.70835214,5.63234633 1.76659142,5.63234633 C1.8248307,5.63234633 1.88306998,5.67101232 1.88306998,5.70967832 C1.88306998,5.76123297 1.8248307,5.7870103 1.76659142,5.7870103 Z" id="Path"></path>
                                        <path d="M20.7525959,5.7870103 L13.2979684,5.7870103 C13.2397291,5.7870103 13.1814898,5.74834431 13.1814898,5.70967832 C13.1814898,5.67101232 13.2397291,5.63234633 13.2979684,5.63234633 L20.7525959,5.63234633 C20.8108352,5.63234633 20.8690745,5.67101232 20.8690745,5.70967832 C20.8690745,5.76123297 20.8108352,5.7870103 20.7525959,5.7870103 Z" id="Path"></path>
                                        <path d="M49.4063205,8.26163386 L29.4496614,8.26163386 C29.3914221,8.26163386 29.3331828,8.22296787 29.3331828,8.18430188 C29.3331828,8.14563588 29.3914221,8.10696989 29.4496614,8.10696989 L49.4063205,8.10696989 C49.4645598,8.10696989 49.5227991,8.14563588 49.5227991,8.18430188 C49.5227991,8.22296787 49.4645598,8.26163386 49.4063205,8.26163386 Z" id="Path"></path>
                                        <path d="M21.8009029,8.26163386 L8.93002257,8.26163386 C8.8717833,8.26163386 8.81354402,8.22296787 8.81354402,8.18430188 C8.81354402,8.14563588 8.8717833,8.10696989 8.93002257,8.10696989 L21.8009029,8.10696989 C21.8591422,8.10696989 21.9173815,8.14563588 21.9173815,8.18430188 C21.9173815,8.22296787 21.8591422,8.26163386 21.8009029,8.26163386 Z" id="Path"></path>
                                        <path d="M45.931377,10.7233688 L26.8094808,10.7233688 C26.7512415,10.7233688 26.6930023,10.6847028 26.6930023,10.6460368 C26.6930023,10.6073708 26.7512415,10.5687048 26.8094808,10.5687048 L49.5422122,10.5687048 C49.8334086,10.5687048 50.1051919,10.5558161 50.3963883,10.5558161 C50.4546275,10.5558161 50.5128668,10.5815934 50.5128668,10.6331481 C50.5128668,10.6718141 50.4740406,10.7104801 50.3963883,10.7104801 C50.1051919,10.7104801 49.8334086,10.7233688 49.5422122,10.7233688 L49.1927765,10.7233688 L45.931377,10.7233688 Z" id="Path"></path>
                                        <path d="M22.868623,10.7233688 L5.41625282,10.7233688 C5.35801354,10.7233688 5.29977427,10.6847028 5.29977427,10.6460368 C5.29977427,10.6073708 5.35801354,10.5687048 5.41625282,10.5687048 L22.868623,10.5687048 C22.9268623,10.5687048 22.9851016,10.6073708 22.9851016,10.6460368 C22.9851016,10.6847028 22.9268623,10.7233688 22.868623,10.7233688 Z" id="Path"></path>
                                        <path d="M45.931377,13.1851037 L24.1887133,13.1851037 C24.130474,13.1851037 24.0722348,13.1464377 24.0722348,13.1077717 C24.0722348,13.0691057 24.130474,13.0304397 24.1887133,13.0304397 L49.5810384,13.0304397 C50.1828442,13.017551 50.8040632,13.017551 51.4058691,13.0046624 C51.4641084,13.0046624 51.5223476,13.0433283 51.5223476,13.0819943 C51.5223476,13.1206603 51.4835214,13.1593263 51.4058691,13.1593263 C50.8040632,13.1593263 50.1828442,13.172215 49.5810384,13.1851037 L49.5422122,13.1851037 L45.931377,13.1851037 Z" id="Path"></path>
                                        <path d="M23.91693,13.1851037 L2.46546275,13.1851037 C2.40722348,13.1851037 2.3489842,13.1464377 2.3489842,13.1077717 C2.3489842,13.0691057 2.40722348,13.0304397 2.46546275,13.0304397 L23.91693,13.0304397 C23.9751693,13.0304397 24.0334086,13.0691057 24.0334086,13.1077717 C24.0334086,13.1593263 23.9945824,13.1851037 23.91693,13.1851037 Z" id="Path"></path>
                                        <path d="M49.5616253,15.6468385 L49.3674944,15.6468385 C49.3092551,15.6468385 49.2510158,15.6081726 49.2510158,15.5695066 C49.2510158,15.5308406 49.3092551,15.4921746 49.3674944,15.4921746 L52.434763,15.4921746 L52.434763,15.4921746 C52.4930023,15.4921746 52.5512415,15.5308406 52.5512415,15.5695066 C52.5512415,15.6081726 52.4930023,15.6468385 52.434763,15.6468385 L49.5616253,15.6468385 Z" id="Path"></path>
                                        <path d="M47.3679458,15.6468385 L0.194130926,15.6468385 C0.135891648,15.6468385 0.0776523702,15.6081726 0.0776523702,15.5695066 C0.0776523702,15.5308406 0.135891648,15.4921746 0.194130926,15.4921746 L47.3679458,15.4921746 C47.4261851,15.4921746 47.4844244,15.5308406 47.4844244,15.5695066 C47.4844244,15.6081726 47.4261851,15.6468385 47.3679458,15.6468385 Z" id="Path"></path>
                                        <path d="M16.986456,18.1214621 L1.18419865,18.1214621 C1.12595937,18.1214621 1.06772009,18.0827961 1.06772009,18.0441301 C1.06772009,18.0054641 1.12595937,17.9667981 1.18419865,17.9667981 L16.986456,17.9667981 C17.0446953,17.9667981 17.1029345,18.0054641 17.1029345,18.0441301 C17.1029345,18.0827961 17.0446953,18.1214621 16.986456,18.1214621 Z" id="Path"></path>
                                        <path d="M22.7327314,18.1343508 C22.7327314,18.1343508 22.7327314,18.1343508 22.7327314,18.1343508 C22.3056433,18.1343508 21.8785553,18.1214621 21.4514673,18.1214621 C21.1408578,18.1214621 20.8108352,18.1214621 20.5002257,18.1214621 L19.4130926,18.1214621 C19.3548533,18.1214621 19.296614,18.0827961 19.296614,18.0441301 C19.296614,18.0054641 19.3548533,17.9667981 19.4130926,17.9667981 L20.5002257,17.9667981 C20.8108352,17.9667981 21.1408578,17.9667981 21.4514673,17.9667981 C21.8785553,17.9667981 22.3056433,17.9667981 22.7327314,17.9796868 C22.7909707,17.9796868 22.8492099,18.0183528 22.8492099,18.0570188 C22.8492099,18.0956848 22.7909707,18.1343508 22.7327314,18.1343508 Z" id="Path"></path>
                                        <path d="M42.3011287,18.1214621 L28.0713318,18.1214621 C28.0130926,18.1214621 27.9548533,18.0827961 27.9548533,18.0441301 C27.9548533,18.0054641 28.0130926,17.9667981 28.0713318,17.9667981 L45.931377,17.9667981 L47.3873589,17.9539095 C47.3873589,17.9539095 47.3873589,17.9539095 47.3873589,17.9539095 C47.4455982,17.9539095 47.5038375,17.9925755 47.5038375,18.0312415 C47.5038375,18.0699074 47.4650113,18.1085734 47.3873589,18.1085734 L45.931377,18.1214621 L42.3011287,18.1214621 Z" id="Path"></path>
                                        <path d="M23.6063205,20.583197 L23.6063205,20.583197 C22.5774266,20.583197 21.5485327,20.583197 20.5002257,20.583197 L20.1702032,20.583197 C20.1119639,20.583197 20.0537246,20.544531 20.0537246,20.505865 C20.0537246,20.467199 20.1119639,20.428533 20.1702032,20.428533 L20.5002257,20.428533 C21.5291196,20.428533 22.5580135,20.428533 23.5869074,20.428533 C23.6451467,20.428533 23.703386,20.467199 23.703386,20.505865 C23.7227991,20.5574197 23.6645598,20.583197 23.6063205,20.583197 Z" id="Path"></path>
                                        <path d="M16.5399549,20.583197 L2.21309255,20.583197 C2.15485327,20.583197 2.096614,20.544531 2.096614,20.505865 C2.096614,20.467199 2.15485327,20.428533 2.21309255,20.428533 L16.5399549,20.428533 C16.5981941,20.428533 16.6564334,20.467199 16.6564334,20.505865 C16.6370203,20.544531 16.5981941,20.583197 16.5399549,20.583197 Z" id="Path"></path>
                                        <path d="M39.0009029,20.583197 L32.4392777,20.583197 C32.3810384,20.583197 32.3227991,20.544531 32.3227991,20.505865 C32.3227991,20.467199 32.3810384,20.428533 32.4392777,20.428533 L39.0009029,20.428533 C39.0591422,20.428533 39.1173815,20.467199 39.1173815,20.505865 C39.1173815,20.544531 39.0591422,20.583197 39.0009029,20.583197 Z" id="Path"></path>
                                        <path d="M16.8893905,23.0449319 L3.22257336,23.0449319 C3.16433409,23.0449319 3.10609481,23.0062659 3.10609481,22.9675999 C3.10609481,22.9289339 3.16433409,22.8902679 3.22257336,22.8902679 L20.5196388,22.8902679 L24.9846501,22.8516019 C25.0428894,22.8516019 25.1011287,22.8902679 25.1011287,22.9289339 C25.1011287,22.9675999 25.0623025,23.0062659 24.9846501,23.0062659 L20.5196388,23.0449319 L16.8893905,23.0449319 Z" id="Path"></path>
                                        <path d="M12.9485327,25.5195555 L4.23205418,25.5195555 C4.1738149,25.5195555 4.11557562,25.4808895 4.11557562,25.4422235 C4.11557562,25.4035575 4.1738149,25.3648915 4.23205418,25.3648915 L12.9485327,25.3648915 C13.006772,25.3648915 13.0650113,25.4035575 13.0650113,25.4422235 C13.0650113,25.4808895 13.006772,25.5195555 12.9485327,25.5195555 Z" id="Path"></path>
                                        <path d="M2.36839729,21.0085229 C2.31015801,21.0085229 2.25191874,20.9698569 2.25191874,20.9311909 L2.25191874,13.1979923 C2.25191874,13.1593263 2.31015801,13.1206603 2.36839729,13.1206603 C2.42663657,13.1206603 2.48487585,13.1593263 2.48487585,13.1979923 L2.48487585,20.9311909 C2.48487585,20.9698569 2.42663657,21.0085229 2.36839729,21.0085229 Z" id="Path"></path>
                                        <path d="M5.9986456,26.8341992 C5.94040632,26.8341992 5.88216704,26.7955332 5.88216704,26.7568672 L5.88216704,10.2078222 C5.88216704,10.1691562 5.94040632,10.1304902 5.9986456,10.1304902 C6.05688488,10.1304902 6.11512415,10.1691562 6.11512415,10.2078222 L6.11512415,26.7568672 C6.11512415,26.7955332 6.05688488,26.8341992 5.9986456,26.8341992 Z" id="Path"></path>
                                        <path d="M9.62889391,26.1382113 C9.57065463,26.1382113 9.51241535,26.0995454 9.51241535,26.0608794 L9.51241535,7.74608729 C9.51241535,7.70742129 9.57065463,7.6687553 9.62889391,7.6687553 C9.68713318,7.6687553 9.74537246,7.70742129 9.74537246,7.74608729 L9.74537246,26.0608794 C9.74537246,26.112434 9.68713318,26.1382113 9.62889391,26.1382113 Z" id="Path"></path>
                                        <path d="M13.2591422,25.4551121 C13.2009029,25.4551121 13.1426637,25.4164461 13.1426637,25.3777801 L13.1426637,5.73545565 C13.1426637,5.69678965 13.2009029,5.65812366 13.2591422,5.65812366 C13.3173815,5.65812366 13.3756208,5.69678965 13.3756208,5.73545565 L13.3756208,25.3777801 C13.3756208,25.4164461 13.3173815,25.4551121 13.2591422,25.4551121 Z" id="Path"></path>
                                        <path d="M16.9088036,24.7591243 C16.8505643,24.7591243 16.7923251,24.7204583 16.7923251,24.6817923 L16.7534989,22.9675999 L16.7534989,21.6529561 C16.7534989,21.6142902 16.8117381,21.5756242 16.8699774,21.5756242 C16.9282167,21.5756242 16.986456,21.6142902 16.986456,21.6529561 L16.986456,22.9675999 L17.0252822,24.6817923 C17.0252822,24.7333469 16.986456,24.7591243 16.9088036,24.7591243 C16.9282167,24.7591243 16.9282167,24.7591243 16.9088036,24.7591243 Z" id="Path"></path>
                                        <path d="M16.8893905,18.1343508 C16.8311512,18.1343508 16.772912,18.0956848 16.772912,18.0570188 L16.772912,4.08570661 C16.772912,4.04704061 16.8311512,4.00837462 16.8893905,4.00837462 C16.9476298,4.00837462 17.0058691,4.04704061 17.0058691,4.08570661 L17.0058691,18.0570188 C16.986456,18.1085734 16.9476298,18.1343508 16.8893905,18.1343508 Z" id="Path"></path>
                                        <path d="M16.8893905,20.4800877 C16.8311512,20.4800877 16.772912,20.4414217 16.772912,20.4027557 L16.772912,19.3587739 C16.772912,19.3201079 16.8311512,19.2814419 16.8893905,19.2814419 C16.9476298,19.2814419 17.0058691,19.3201079 17.0058691,19.3587739 L17.0058691,20.4027557 C16.986456,20.4414217 16.9476298,20.4800877 16.8893905,20.4800877 Z" id="Path"></path>
                                        <path d="M20.5002257,20.621863 C20.4419865,20.621863 20.3837472,20.583197 20.3837472,20.544531 L20.3837472,20.2996464 C20.3837472,20.2609804 20.4419865,20.2223144 20.5002257,20.2223144 C20.558465,20.2223144 20.6167043,20.2609804 20.6167043,20.2996464 L20.6167043,20.544531 C20.6167043,20.583197 20.5778781,20.621863 20.5002257,20.621863 Z" id="Path"></path>
                                        <path d="M20.5002257,22.7871586 C20.4419865,22.7871586 20.3837472,22.7484926 20.3837472,22.7098266 L20.3837472,22.2200574 C20.3837472,22.1813914 20.4419865,22.1427254 20.5002257,22.1427254 C20.558465,22.1427254 20.6167043,22.1813914 20.6167043,22.2200574 L20.6167043,22.7098266 C20.6167043,22.7484926 20.5778781,22.7871586 20.5002257,22.7871586 Z" id="Path"></path>
                                        <path d="M20.5002257,15.9948325 C20.4419865,15.9948325 20.3837472,15.9561665 20.3837472,15.9175005 L20.3837472,5.15546575 C20.3837472,5.11679976 20.4419865,5.07813376 20.5002257,5.07813376 C20.558465,5.07813376 20.6167043,5.11679976 20.6167043,5.15546575 L20.6167043,15.9175005 C20.6167043,15.9561665 20.5778781,15.9948325 20.5002257,15.9948325 Z" id="Path"></path>
                                        <path d="M20.5002257,20.583197 C20.4419865,20.583197 20.3837472,20.544531 20.3837472,20.505865 L20.3837472,19.8614318 C20.3837472,19.8227658 20.4419865,19.7840998 20.5002257,19.7840998 C20.558465,19.7840998 20.6167043,19.8227658 20.6167043,19.8614318 L20.6167043,20.505865 C20.6167043,20.544531 20.5778781,20.583197 20.5002257,20.583197 Z" id="Path"></path>
                                        <path d="M20.5002257,18.2374601 C20.4419865,18.2374601 20.3837472,18.1987941 20.3837472,18.1601281 L20.3837472,17.4254742 C20.3837472,17.3868082 20.4419865,17.3481422 20.5002257,17.3481422 C20.558465,17.3481422 20.6167043,17.3868082 20.6167043,17.4254742 L20.6167043,18.1601281 C20.6167043,18.1987941 20.5778781,18.2374601 20.5002257,18.2374601 Z" id="Path"></path>
                                        <path d="M20.5002257,23.4187032 C20.4419865,23.4187032 20.3837472,23.3800372 20.3837472,23.3413712 L20.3837472,22.619606 C20.3837472,22.58094 20.4419865,22.542274 20.5002257,22.542274 C20.558465,22.542274 20.6167043,22.58094 20.6167043,22.619606 L20.6167043,23.3413712 C20.6167043,23.3800372 20.5778781,23.4187032 20.5002257,23.4187032 Z" id="Path"></path>
                                        <path d="M24.130474,16.8325957 C24.0722348,16.8325957 24.0139955,16.7939297 24.0139955,16.7552637 L24.0139955,13.1593263 C24.0139955,13.1206603 24.0722348,13.0819943 24.130474,13.0819943 C24.1887133,13.0819943 24.2469526,13.1206603 24.2469526,13.1593263 L24.2469526,16.7552637 C24.2469526,16.7939297 24.1887133,16.8325957 24.130474,16.8325957 Z" id="Path"></path>
                                        <path d="M24.130474,18.81745 C24.0722348,18.81745 24.0139955,18.778784 24.0139955,18.740118 L24.0139955,18.6370087 C24.0139955,18.5983427 24.0722348,18.5596767 24.130474,18.5596767 C24.1887133,18.5596767 24.2469526,18.5983427 24.2469526,18.6370087 L24.2469526,18.740118 C24.2469526,18.7916727 24.1887133,18.81745 24.130474,18.81745 Z" id="Path"></path>
                                        <path d="M24.0916479,23.1222639 C24.0334086,23.1222639 23.9751693,23.0835979 23.9751693,23.0449319 L23.9751693,22.9418226 C23.9751693,22.8773793 23.9751693,22.8129359 23.9751693,22.7484926 C23.9751693,22.7098266 24.0334086,22.6711606 24.0916479,22.6711606 C24.0916479,22.6711606 24.0916479,22.6711606 24.0916479,22.6711606 C24.1498871,22.6711606 24.2081264,22.7098266 24.2081264,22.7484926 C24.2081264,22.8129359 24.2081264,22.8773793 24.2081264,22.9418226 L24.2081264,23.0449319 C24.2081264,23.0835979 24.1693002,23.1222639 24.0916479,23.1222639 Z" id="Path"></path>
                                        <path d="M24.1110609,21.1631869 C24.0528217,21.1631869 23.9945824,21.1245209 23.9945824,21.0858549 C23.9945824,20.9440796 23.9945824,20.8023043 23.9945824,20.6476403 C23.9945824,20.6089743 24.0528217,20.5703083 24.1110609,20.5703083 C24.1110609,20.5703083 24.1110609,20.5703083 24.1110609,20.5703083 C24.1693002,20.5703083 24.2275395,20.6089743 24.2275395,20.6476403 C24.2275395,20.7894156 24.2275395,20.9440796 24.2275395,21.0858549 C24.2275395,21.1245209 24.1693002,21.1631869 24.1110609,21.1631869 Z" id="Path"></path>
                                        <path d="M27.7607223,18.0054641 C27.7024831,18.0054641 27.6442438,17.9667981 27.6442438,17.9281321 L27.6442438,9.75671893 C27.6442438,9.71805294 27.7024831,9.67938694 27.7607223,9.67938694 C27.8189616,9.67938694 27.8772009,9.71805294 27.8772009,9.75671893 L27.8772009,17.9281321 C27.8772009,17.9796868 27.8189616,18.0054641 27.7607223,18.0054641 Z" id="Path"></path>
                                        <path d="M31.3909707,19.9000978 C31.3327314,19.9000978 31.2744921,19.8614318 31.2744921,19.8227658 L31.2744921,6.35411154 C31.2744921,6.31544554 31.3327314,6.27677955 31.3909707,6.27677955 C31.4492099,6.27677955 31.5074492,6.31544554 31.5074492,6.35411154 L31.5074492,19.8227658 C31.5074492,19.8743205 31.4492099,19.9000978 31.3909707,19.9000978 Z" id="Path"></path>
                                        <path d="M35.021219,21.0343003 C34.9629797,21.0343003 34.9047404,20.9956343 34.9047404,20.9569683 L34.9047404,2.96439281 C34.9047404,2.92572681 34.9629797,2.88706082 35.021219,2.88706082 C35.0794582,2.88706082 35.1376975,2.92572681 35.1376975,2.96439281 L35.1376975,20.9569683 C35.1182844,20.9956343 35.0794582,21.0343003 35.021219,21.0343003 Z" id="Path"></path>
                                        <path d="M38.6708804,20.6476403 C38.6126411,20.6476403 38.5544018,20.6089743 38.5544018,20.5703083 L38.5544018,0.141775308 C38.5544018,0.103109315 38.6126411,0.0644433219 38.6708804,0.0644433219 C38.7291196,0.0644433219 38.7873589,0.103109315 38.7873589,0.141775308 L38.7873589,20.5703083 C38.7873589,20.6089743 38.7291196,20.6476403 38.6708804,20.6476403 Z" id="Path"></path>
                                        <path d="M42.3011287,19.9645411 C42.2428894,19.9645411 42.1846501,19.9258751 42.1846501,19.8872091 L42.1846501,0.244884623 C42.1846501,0.20621863 42.2428894,0.167552637 42.3011287,0.167552637 C42.3593679,0.167552637 42.4176072,0.20621863 42.4176072,0.244884623 L42.4176072,19.8743205 C42.4176072,19.9258751 42.3593679,19.9645411 42.3011287,19.9645411 Z" id="Path"></path>
                                        <path d="M45.931377,19.2685532 C45.8731377,19.2685532 45.8148984,19.2298872 45.8148984,19.1912212 L45.8148984,0.541323904 C45.8148984,0.502657911 45.8731377,0.463991917 45.931377,0.463991917 C45.9896163,0.463991917 46.0478555,0.502657911 46.0478555,0.541323904 L46.0478555,19.2041099 C46.0284424,19.2427759 45.9896163,19.2685532 45.931377,19.2685532 Z" id="Path"></path>
                                        <path d="M49.5422122,15.8401685 C49.4839729,15.8401685 49.4257336,15.8015025 49.4257336,15.7628365 L49.4257336,8.54518448 C49.4257336,8.50651849 49.4839729,8.46785249 49.5422122,8.46785249 C49.6004515,8.46785249 49.6586907,8.50651849 49.6586907,8.54518448 L49.6586907,15.7628365 C49.6586907,15.8015025 49.6198646,15.8401685 49.5422122,15.8401685 Z" id="Path"></path>
                                    </g>
                                    <path d="M37.1954853,0.992427157 C37.1760722,0.992427157 37.1566591,0.992427157 37.137246,0.979538492 C37.0790068,0.953761164 37.0790068,0.91509517 37.0984199,0.876429177 C37.137246,0.82487452 37.137246,0.82487452 38.6708804,0.82487452 C39.6221219,0.82487452 40.9422122,0.82487452 42.3011287,0.82487452 C43.3688488,0.82487452 44.4559819,0.82487452 45.4266366,0.837763184 L45.9702032,0.837763184 C46.1255079,0.837763184 46.2808126,0.837763184 46.4361174,0.837763184 C46.4943567,0.837763184 46.5525959,0.876429177 46.5525959,0.91509517 C46.5525959,0.953761164 46.4943567,0.992427157 46.4361174,0.992427157 C46.2808126,0.992427157 46.1255079,0.992427157 45.9702032,0.992427157 L45.4266366,0.992427157 C44.4559819,0.992427157 43.3688488,0.992427157 42.3011287,0.979538492 C40.9422122,0.979538492 39.6221219,0.979538492 38.6708804,0.979538492 C37.5255079,0.979538492 37.2731377,0.992427157 37.2343115,0.992427157 C37.2148984,0.992427157 37.2148984,0.992427157 37.1954853,0.992427157 Z" id="Path"></path>
                                </g>
                                <ellipse id="Oval" cx="37.3119639" cy="32.0541083" rx="1" ry="1"></ellipse>
                                <ellipse id="Oval" cx="35.8948081" cy="39.8775276" rx="1" ry="1"></ellipse>
                                <ellipse id="Oval" cx="34.3223476" cy="47.8942768" rx="1" ry="1"></ellipse>
                                <ellipse id="Oval" cx="32.5557562" cy="56.06569" rx="1" ry="1"></ellipse>
                                <path d="M14.7345372,18.778784 C14.7151242,18.778784 14.7151242,18.778784 14.7345372,18.778784 L4.01851016,17.7605795 C3.96027088,17.7605795 3.9214447,17.7219135 3.9214447,17.6703589 C3.9214447,17.6316929 3.97968397,17.6059155 4.03792325,17.6059155 L14.7345372,18.62412 C14.7927765,18.62412 14.8316027,18.662786 14.8316027,18.7143407 C14.8316027,18.7530067 14.7733634,18.778784 14.7345372,18.778784 Z" id="Path"></path>
                                <path d="M59.2681716,37.9700052 C59.2099323,37.9700052 59.151693,37.9313392 59.151693,37.8926733 L58.8022573,28.4581709 C58.8022573,28.4195049 58.8410835,28.3808389 58.9187359,28.3808389 C58.9769752,28.3808389 59.0352144,28.4066163 59.0352144,28.4581709 L59.3846501,37.8926733 C59.3846501,37.9313392 59.3264108,37.9700052 59.2681716,37.9700052 C59.2681716,37.9700052 59.2681716,37.9700052 59.2681716,37.9700052 Z" id="Path"></path>
                                <path d="M13.5697517,40.9859527 C12.4049661,41.5143879 11.4343115,41.8623819 10.7548533,42.0428232 C8.93002257,42.5197038 7.33814898,42.4681491 7.33814898,42.4681491 C6.15395034,42.4681491 5.45507901,42.2748191 5.16388262,42.1845985 C2.38781038,41.6432746 1.22302483,38.5628838 0.679458239,36.0238169 C4.9503386,36.3846995 10.0948081,37.596234 13.5697517,40.9859527 Z" id="Path"></path>
                                <path d="M84.8934537,30.6363552 C84.0975169,31.9638876 82.8939052,33.0465354 81.4961625,33.9358533 C81.0884876,34.1936266 80.6613995,34.4385112 80.2343115,34.6576185 C78.4288939,32.1829949 78.3124153,29.3603774 80.0401806,27.0017519 C81.379684,25.1586729 83.5151242,24.076025 85.0875847,23.4702578 C85.1264108,23.5604785 85.1458239,23.6635878 85.165237,23.7538084 C85.2040632,23.8698064 85.2234763,23.9729157 85.2623025,24.076025 C85.786456,26.0866567 86.3106095,28.2519523 84.8934537,30.6363552 Z" id="Path"></path>
                            </g>
                        </g>
                    </g>
                </g>
                <rect id="Black-border-rectangle" stroke="#000000" stroke-width="5" x="2.5" y="22.5" width="141" height="101"></rect>
            </g>
        </g>
    </g>
</svg>